<?xml version="1.0" encoding="utf-8"?>
<!-- Generator: Adobe Illustrator 21.0.2, SVG Export Plug-In . SVG Version: 6.00 Build 0)  -->
<svg version="1.1" id="svg" xmlns="http://www.w3.org/2000/svg" xmlns:xlink="http://www.w3.org/1999/xlink" x="0px" y="0px"
	 viewBox="0 0 400 341.6" style="enable-background:new 0 0 400 341.6;" xml:space="preserve">
<style type="text/css">
	.st0{fill:#292420;}
	.st1{fill:#EA5A24;}
	.st2{fill:#CBB129;}
	.st3{fill:#7DC241;}
</style>
<g id="svgg">
	<path id="path0" class="st0" d="M195.4,39.9c-0.7,0.7-0.2,4.6,0.5,4.6c0.7,0,0.7-0.1,0.5-2.1C196.3,40.3,195.9,39.4,195.4,39.9
		 M251.9,49.3c-2.3,3.5-2.4,3.9-1.3,4.3c0.7,0.2,1,0.2,1,0c0-0.2,0.5-1.5,1-2.9C254.2,46.9,253.9,46.3,251.9,49.3 M150.3,53.8
		c-0.8,0.6-1,0.2,3.3,5.2c3.5,4,4.2,4.8,4.7,4.5c0.6-0.4-0.4-2.2-3.5-6.1C151.3,53.2,151.2,53.1,150.3,53.8 M202.3,53.7
		c-8.1,1.4-12.4,10.3-7.2,14.9c8.5,7.6,18.2,7.2,22.3-0.9C221.1,60.2,212.2,52,202.3,53.7 M209.1,56.1c9.8,3.2,10.7,11.2,1.6,15.5
		c-6.4,3.1-16.1-3.8-14.1-10.1c0.4-1.1-0.8-0.7-1.3,0.5c-0.5,1.2-0.5,2.7,0.1,4.5c0.2,0.5,0,0.5-0.5-0.2c-2.1-2.4,0.4-7.7,4.5-9.8
		C202.4,55,205.2,54.9,209.1,56.1 M104.9,58.3c-0.9,2.6-0.7,3.8,0.3,2.4c0.7-0.9,1.9-4.3,1.6-4.6C106.3,55.2,105.7,55.9,104.9,58.3
		 M306.7,62.4c-0.5,0.6,0.6,1.5,2.9,2.4c2,0.8,2.3,0.1,0.5-1c-0.8-0.5-1.7-1.1-1.9-1.4C307.5,61.8,307.2,61.8,306.7,62.4
		 M237.3,73.6c-2.2,0.4-2.8,0.8-2,1.5c0.3,0.2,2,0.1,5.3-0.4c6.7-1,7.3-0.7,9.2,4.6c0.5,1.4,1.2,3.2,1.4,3.9c1.7,4.4,0.7,6.3-3.5,7
		c-1.3,0.2-4,0.9-6.2,1.4c-4.1,1.1-5,1-5.4-0.3c-0.3-0.9-1.2-8.4-1.4-11.8c-0.4-5.2-1.5-3.9-1.5,1.8c0,10.7,1.9,13,9.7,11.5
		c1.4-0.3,3.4-0.7,4.5-0.9c5.4-1,6.7-4.1,4.7-11C249.7,73.4,246.8,72,237.3,73.6 M98.6,87.8c-1.6,0.4-2.3,1.5-2.1,3.3
		c0.1,0.9,0.3,2.1,0.3,2.6c0,0.5,0.7,1.5,1.5,2.4c2.1,2.2,6,8.2,9.3,14.1c4.1,7.5,6,9.8,8.9,10.8c2.2,0.7,2.5,0,2.3-4.9
		C118.3,103.1,106,86,98.6,87.8 M101.7,89.7c4.2,2,12,12.9,14.5,20.3c0.8,2.4,2,10.2,1.6,10.6c-0.5,0.5-2.7-2.5-5.3-7.1
		c-4.3-7.7-9.1-14.6-11.9-17.4c-1.4-1.4-2.6-2.7-2.5-2.9c0.1-0.2-0.1-0.7-0.5-1.1c-0.8-1.2-0.5-2.6,0.5-2.9
		C99.5,88.8,99.9,88.9,101.7,89.7 M194.4,90.2c-0.8,0.2-0.8,0.8,0.1,2.5c0.7,1.4,1.6,2.3,1.9,2c0.2-0.2-1.2-4.8-1.4-4.6
		C195.1,90,194.8,90.1,194.4,90.2 M338.3,101.1c-3.6,1.9-7.9,4.4-9.1,5.2c-0.7,0.5-1.3,0.9-1.3,1c-0.7,0.5,0.8,0.8,1.6,0.3
		c1.2-0.7,8.2-3.9,10.6-5c2-0.8,1.9-0.8,1.4-1.7C341.1,99.9,340.3,100,338.3,101.1 M130.2,106.2c-0.2,0.2,4.1,5.2,5,5.6
		c0.4,0.2,0.8,0.1,1.5-0.5l0.9-0.8l-1.5-1.3C134,107.5,130.6,105.8,130.2,106.2 M216.5,107.8c-2.4,1.1-4.6,4.4-3.6,5.4
		c0.3,0.3,0.4,0.2,0.4-0.4c0-1.9,3.8-4.1,7.1-4.1c4.7,0,9.5,7.1,6.8,10.1c-2,2.3-9.9-0.7-10.7-4.1c-0.4-1.4-1.1-1.7-1.1-0.4
		c0,4.4,8.1,8.6,11.8,6.2C234,116.1,224.1,104.4,216.5,107.8 M258.1,111c0,0.8,3.6,4.1,4.1,3.8c0.4-0.3,0.1-0.7-1.5-2.2
		C258.7,110.9,258.1,110.5,258.1,111 M177.5,113.6c-1.4,1.4-1,1.6,8.7,2.5c8.5,0.8,11.2,2.9,7.6,6c-3,2.6-6.4,6-7.2,7.1
		c-0.8,1.1-1.3,1.5-1.3,0.8c0-1.2-5.9-13.3-6.5-13.3c-1.4,0-1,1.3,3.6,11.4c0.7,1.5,1.4,2.8,1.7,3c0.3,0.2,0.5,0.7,0.5,1
		c0,0.3,0.2,0.7,0.4,0.8c0.7,0.2,1.3-0.1,1.3-0.8c0-0.7,2.3-3,5.5-5.3c5.2-3.9,5.8-8.3,1.3-10.5c-1.6-0.8-3-1.1-11.3-2.2
		c-1.4-0.2-2.9-0.4-3.3-0.5C178.2,113.2,177.7,113.4,177.5,113.6 M68,118.5c-0.6,0.7-0.2,1.1,3.2,3.1c3.4,2,4.6,2.8,7.5,5.4
		c3.9,3.4,3.9,1.3-0.1-2.5C74.1,120,69.1,117.2,68,118.5 M276.9,118.6c-0.2,0.4-0.3,0.8-0.3,0.9c0.1,0.2-0.5,1.4-1.2,2.8
		c-2.9,5.8-1.7,8.5,4.8,10.8c4,1.4,6.5,1.5,7,0.3c0.2-0.5,1-2.3,1.7-3.9c2.4-5.3,1.4-7.6-4.3-9.7c-1.8-0.7-6.4-1.9-7.2-1.9
		C277.4,117.9,277.1,118.3,276.9,118.6 M147.1,120.9c-1.8,4.4-1,10.6,2.2,17.1c1.1,2.1,2.9,7.3,2.7,7.5c-0.1,0.1-1.3-0.8-2.6-1.9
		c-9.7-7.9-21.5-8.3-26.4-0.9c-0.4,0.7-1.1,1.2-1.5,1.3c-1.2,0.1-0.9,0.8,0.3,0.7c0.7,0,1.6-0.6,3.2-2.1c4.5-4.2,8.5-4.7,15.2-1.9
		c11.2,4.7,17.9,15.3,18.6,29.5c0.2,4.6,0.9,7.9,1.6,7.9c0.6,0,0.4-12.7-0.3-16.2c-1-4.8-4.1-11.6-6.7-14.5c-0.7-0.8-0.7-0.8,0-1.3
		c0.9-0.6,0-3.6-2.9-9.4c-2.9-5.9-4.1-14.1-2.4-16.1c0.3-0.4,0.3-0.6,0.1-0.7C147.8,119.7,147.4,120.2,147.1,120.9 M281.8,120.7
		c7.1,1.6,8.4,3,6.6,6.9c-0.5,1-1.1,2.7-1.4,3.9c-0.7,2.5-0.4,2.4-3,1.4c-1.2-0.5-3.3-1.2-4.7-1.6c-4.6-1.3-5.1-2.4-3.3-6.9
		c0.7-1.6,1.4-3.2,1.5-3.7C278,119.8,278,119.8,281.8,120.7 M158.1,127.6c-1.9,0.3-6.7,2.4-6.7,2.9c0,0.6,0.4,0.7,1.2,0.2
		c0.9-0.6,5.3-1.9,6.4-1.9c1.2,0,1.7-0.4,1.2-1.1C159.9,127.4,159.5,127.3,158.1,127.6 M128.8,131.2c-0.2,0.2,3.5,4.9,3.9,4.9
		c0.4,0,0.3-0.4-0.6-1.7c-0.5-0.7-1.2-1.7-1.6-2.3C129.9,131,129.3,130.7,128.8,131.2 M174.2,136.6c-2,2.3-4.3,5.6-4.3,6.2
		c0,0.8,0.6,0.5,1.4-0.8c0.5-0.7,2-2.4,3.3-3.8c2.1-2.1,2.4-2.6,2.1-3C176.1,134.4,175.9,134.5,174.2,136.6 M257.9,134.9
		c-0.4,0.1-1,0.3-1.4,0.5c-0.4,0.2-0.9,0.3-1.2,0.2c-0.4-0.1-0.5,0.3-0.4,2c0.2,6.3,7.7,10.6,11.8,6.7
		C270.3,141,263.5,133.7,257.9,134.9 M211.6,136.3c-4.2,2-7.5,5.6-21.4,23.7c-3,3.9-7.6,10.2-10.3,14c-2.7,3.9-5.4,7.6-6,8.4l-1,1.4
		l-6.6,0.2c-3.6,0.1-8.7,0.3-11.3,0.4l-4.8,0.2l-0.8-1.6c-3.8-7.8-13-12.9-20.9-11.5c-6.2,1.1-10.9,5.4-14,13.2
		c-0.6,1.4-2.7,1.1-4.4-0.6c-3.8-4.1-10.7-4-13.3,0.2c-0.8,1.3-0.9,1.3-2.8,1.3c-3.6,0-14.1,1.3-14.1,1.7c0,0.4,9.1,1.1,11.7,0.8
		c2.7-0.2,2.7-0.2,2.5,0.5c-0.4,1.4,10,12.8,13.1,14.3c1.1,0.5,1.5,2.1,0.5,1.9c-3.1-0.6-7.4-1.2-11.5-1.6c-6-0.6-6.3-0.8-5.8-3
		c2.4-9.1,2.5-10,1.8-10c-0.7,0-3.1,7.5-3.1,9.6c0,3.2,1.6,4.1,9.6,5.5c2.5,0.4,5.6,1,6.7,1.2l2.1,0.4l-0.8,1.8c-0.4,1-0.9,2-1,2.4
		c-0.3,1-0.8,0.7-3.1-1.4c-3.4-3.3-6-4-8.7-2.4c-2.8,1.7-6,3.9-6.3,4.5c-0.7,1.1-1.1,0.7-2.3-1.9c-1.5-3.3-5.2-14.6-6.3-19.1
		c-2.4-10-3.5-11.2-3.3-3.9c0.6,27.7,18,59.9,44.2,82c29.3,24.6,75.7,33.7,114.4,22.4c42.3-12.4,74.6-39.4,89.5-74.7
		c0.4-0.8,1-2.4,1.5-3.4c3.7-8.4,7.6-21,8.8-28.7c0.6-3.7,0.7-3.3-1.2-3.6l-1.5-0.2l-0.8,3.2c-1.2,4.8-2.4,8.7-3.6,11.9
		c-0.6,1.6-1.4,3.6-1.7,4.5c-0.6,1.8-1,2-1.4,0.9c-0.5-1.5-4.1-4.4-5.6-4.4c-1.2,0-0.9,0.6,0.5,1.2c3.9,1.6,5.3,5.1,3.7,8.7
		c-0.5,1-0.9,2-0.9,2.3c0,0.7-1.4,1.5-2.4,1.5c-3.7,0-7.4-4.9-6.5-8.5c0.4-1.6,3-4.5,4-4.5c0.5,0,0.5-0.1,0.2-0.4
		c-1.3-1.3-4.6,2.1-5.4,5.3l-0.4,1.7l-0.5-1.2c-1.3-3-9.2-6.7-12.4-5.8c-2,0.6-4.5,3.8-3,3.8c0.2,0,0.4-0.2,0.4-0.4
		c0-2.4,3.5-2.8,7.8-1.1c6.9,2.8,7.1,3.2,5.8,8.2c-0.5,1.8-1.1,4.7-1.4,6.2c-1,5-1.8,6.1-4.4,5.4c-4-1.2-4.7-1.6-5.5-3.3
		c-0.4-0.9-1.4-2.2-2.1-2.9l-1.3-1.3l1.8-3.6c1.9-3.8,2.6-6.5,1.7-6.5c-0.3,0-0.9,0.9-1.4,2c-0.7,1.5-2.5,5-3.6,6.9
		c0,0.1-1.2-0.7-2.6-1.8c-4.3-3.3-8.1-4-11.9-2l-2,1v-0.8c0-0.4-0.1-1-0.2-1.3c-0.1-0.4,0.3-0.5,2-0.5c7.8,0,8.4-11.2,0.8-14.3
		c-1.9-0.8-2.5,0.1-0.7,1c6.4,2.9,6.3,13.6,0,12.4c-6.5-1.2-7.9-10.8-1.9-12.9c0.3-0.1,0.4-0.3,0.2-0.4c-1.4-1.5-5.4,3.2-5.4,6.3
		c0,1.9,0,1.9-2.1,1.2c-2.6-0.9-6.3-0.1-7.8,1.7c-0.7,0.9-1.2,0.7-2.2-0.9c-5.1-8-17.1-11.6-26.4-7.8c-3.2,1.3-5.4,2.8-4.9,3.3
		c0.3,0.3,0.2,0.6-0.1,0.9c-0.4,0.4-0.5,0.3-0.5-0.8c0-1.5-1.7-5-2.9-6c-1.3-1-2-1,13.5-0.7c7.8,0.2,19.9,0.3,26.8,0.3
		c11.8,0,12.7,0.1,13.5,0.7c2.3,1.7,5.1,1.7,7.4,0.2l1.3-0.9l11.8-0.3c9.8-0.2,11.9-0.2,12.4,0.2c0.5,0.4,0.6,0.4,1.2,0
		c0.7-0.6,8-0.8,8-0.2c0,1.2-4.4,2-6.5,1.2c-1.5-0.6-2.8-0.2-1.7,0.6c2.6,1.7,6.6,1.2,9-1.1c1.5-1.3,1.5-1.3,4.4-1.3
		c3.4,0,3.4,0,2.9-1.7l-0.3-1.4h-2.7h-2.7l-0.2-1.1c-0.2-1.3-1.7-4.4-3.3-6.9c-3.3-5.2-7-13.8-8.7-20.2c-2.1-7.8-4.6-9.3-6.5-4
		c-1.4,4.2,0.3,16.7,3.6,26.4c0.9,2.7,1.7,5.2,1.8,5.5c0.1,0.5-20,1.3-21.2,0.9c-0.2-0.1-0.7-1.1-1-2.3c-1.2-4.2-5.7-7.4-9.4-6.6
		c-2,0.4-2.3,1.4-0.4,1c3.9-0.6,8.9,3.3,9,6.9l0,0.8l-5.2-0.1l-5.2-0.1l-0.1-1.8c-0.1-1.4,0.1-2.1,0.7-3.2c0.8-1.4,0.7-2.1-0.2-1.4
		c-1,0.8-1.6,2.7-1.6,4.8v2.1l-8.1-0.2c-4.5-0.1-15.8-0.3-25.2-0.4c-26.7-0.3-42.1-0.6-42.5-0.8c-0.4-0.2,0.2-1.6,6.7-16.4
		c3.2-7.4,5.4-11.9,8-17.1c6.2-11.9,6.4-12.7,5.1-14C217.6,134.6,214.8,134.8,211.6,136.3 M218.1,136c1,0.7,0.4,2.4-2.3,6.6
		c-5.5,8.6-9,15.3-15.1,29.3c-4.8,11-4.8,11-5.2,11.1c-0.8,0.2-19.7,0.4-19.7,0.2c0-0.1,0.9-1.3,2-2.6c1.1-1.3,3.7-4.7,5.9-7.5
		c9.1-12.1,10.6-14,15-19.6C209.8,139.1,215.2,134.2,218.1,136 M262.1,136.8c3.6,1.5,6.1,5.4,4.4,6.8c-3.3,2.7-10.7-1.5-10.8-6
		C255.7,135.9,259.2,135.5,262.1,136.8 M129.1,144.4c-1.3,3.1-1.7,7.4-0.6,7.4c0.7,0,0.7-0.2,0.7-2.6c0-2,0.2-3.1,0.8-4.6
		c0.7-1.8,0.8-2.3,0.2-2.3C130.2,142.2,129.7,143.2,129.1,144.4 M174.9,143.9c-4.9,1.3-9.8,3.7-12.3,5.9c-1.7,1.6-2,2.6-0.3,1.3
		c2.5-1.9,14.4-6.2,17.4-6.2c0.1,0,0.2-0.3,0.1-0.8C179.6,143.2,178,143.1,174.9,143.9 M236.1,147.5c-4.9,1.3-14.4,10.4-17.2,16.3
		c-2.4,5.1,0,9.2,5.1,8.8c2.3-0.2,3.1-0.5,7.4-3.2c5.1-3.2,7.7-2.8,15.7,2.6c4.3,2.9,2.8,0.7-2.1-2.9c-5.2-3.8-9.5-3.9-15.1-0.4
		c-6.8,4.2-10.9,3.9-10.9-0.9c0-4.1,10.5-15.3,17.3-18.5c5.3-2.5,9.1,0.6,6.1,5c-2.6,3.9-2,5.9,3.2,11.1c2.2,2.2,3.5,3.8,4.7,5.9
		c1.6,2.9,2.1,3.3,2.4,2.4c0.5-1.4-2-5.2-6-9.1c-5.5-5.4-5.5-5.5-3.6-9.1C246.3,149.5,242.9,145.7,236.1,147.5 M307.5,149.8
		c0.3,0.4,0.6,1.4,0.7,2.1c1.7,9.6,4.5,16.9,10.4,26.9c3.2,5.4,3.4,5.1-2.4,5.1h-4.7l-1.4-4.9C305.8,164.1,304,144.4,307.5,149.8
		 M289.8,155.4c-2,2-3.7,3.8-3.7,3.9c0,0.5,1.2,0.4,1.7-0.2c0.3-0.3,2-1.7,3.8-3.1c3.6-2.8,3.6-2.8,2.7-3.6
		C293.6,151.6,293.9,151.4,289.8,155.4 M103,154.2c-4.7,2.8-4.5,9.8,0.4,12.8c3.8,2.3,7.3,1.2,9.1-2.9
		C114.7,158.6,107.7,151.3,103,154.2 M106.7,154.8c4.9,2.1,6.5,7.8,3.2,11.2c-4.4,4.4-11.7-3.8-8.2-9.2
		C103.3,154.4,104.6,153.9,106.7,154.8 M199,158.1c0,0.4,1.6,0.9,3.3,0.9c1.5,0,0.8-0.9-0.8-1.1C199.3,157.5,199,157.5,199,158.1
		 M190.4,168.9c0,1,1.4,3.8,1.9,3.8c0.5,0,0.6-0.9,0.1-1.2c-0.2-0.1-0.5-0.9-0.7-1.7C191.4,168.2,190.4,167.6,190.4,168.9
		 M134.1,173.5c3,0.6,7.2,2.8,9.7,5.1c2.1,1.9,4.5,5.5,4,6c-0.8,0.7-25.1,1.5-28.1,0.9l-1-0.2l0.7-1.7c0.4-0.9,1.2-2.2,1.7-2.7
		c0.7-0.7,0.9-1.1,0.6-1.4c-0.7-0.7-3.3,2-4.4,4.5c-0.3,0.6-0.6,1.1-0.7,0.9c-0.4-0.4,2.3-5.3,4-7.2
		C124.4,173.6,128.6,172.3,134.1,173.5 M107.1,183.6c2.7,1.5,2.2,1.7-3.8,1.7c-5.7,0-6-0.1-4.7-1.3
		C100.3,182.4,104.5,182.2,107.1,183.6 M193.8,186.9c0,2.9-10,12.3-13.5,12.7c-3.6,0.4-9.1-6.2-9.1-10.9V187l5.4-0.1
		C188.8,186.7,193.8,186.7,193.8,186.9 M205.6,187.2c-0.1,0.3-0.3,0.5-0.5,0.5c-0.2,0-0.8,0.8-1.4,1.7c-1.1,1.8-1.6,2.1-2.4,1.2
		c-0.6-0.7-3.6-2.2-3.9-2c-0.4,0.4-0.2,0.8,0.7,1.2c2.2,0.9,3.5,2.7,3.5,4.6c0,1.2,0.3,2.3,0.7,3.2l0.7,1.4l-0.9,1.4
		c-2,2.9-4.5,2.8-7.7-0.3c-3.4-3.3-2.6-8.1,1.6-10.5c0.5-0.3,0.6-0.5,0.3-0.8c-0.3-0.3-0.3-0.6,0-1.2
		C196.8,186.5,206,186.2,205.6,187.2 M170.1,189.2c0.2,3.8,3.6,8.9,7.2,10.7c3.4,1.7,7.4,0.6,11.6-2.9l2.1-1.7l0.3,1.2
		c0.4,1.8,1.4,3.6,2.8,4.9l1.2,1.2l-2.4,1.4c-5.2,3.1-6.1,4-6.9,6.8c-0.4,1.4,0,3.3,0.9,4c0.8,0.6,1,0.1,0.4-0.8
		c-1.4-2-0.4-3.9,3.9-7.3c5.2-4.1,5.4-4.1,10.3,0.3c8.8,8,8.7,7.7,5.1,10.7c-7.5,6.5-8,6.7-10.2,2.4c-0.9-1.8-4.1-5.8-5.3-6.7
		c-1.4-1-2.2-0.5-1.1,0.7c0.4,0.4,1.7,2.3,2.9,4.2c4.2,6.5,5.9,6.9,11.7,2.8c4.6-3.2,5.9-5.3,4.8-8l-0.5-1.3l1,1
		c1.1,1.2,4.9,7.3,7.9,12.8c2.7,4.9,4.1,6.8,5.8,8c1.5,1,3.6,1.5,4,0.9c0.3-0.5,0.3-7.9-0.1-9.4c-0.4-1.6-0.3-1.6,2.2,0.1
		c1.1,0.8,3.1,1.7,4.4,2.1c2.6,0.8,2.7,1,1.3,1.6c-4.7,2.1-8.2,5.9-8.2,9c0,1,1.6,3.1,2.1,2.8c0.2-0.1,0-0.5-0.4-1
		c-1.3-1.3-0.6-4.2,1.2-5.4c0.2-0.1,1.7-1.3,3.3-2.6c4.2-3.4,5.7-3.4,8.1-0.4c0.6,0.7,2.6,2.6,4.6,4.2c5.5,4.5,5.5,5,0.8,9
		c-5.7,4.8-6.5,4.9-8.6,1.6c-2.1-3.4-4.5-6.4-5.6-7.2c-2.1-1.5-1.7-0.3,1.1,4c1.5,2.3,2.7,4.2,2.6,4.3c-0.1,0.1-1.6,0.2-3.4,0.2
		l-3.2,0.1l-0.2-1.7c-0.8-6.1-7.4-11.2-14.4-11.2c-1.6,0-3,0-3-0.1c0,0,0.6-0.7,1.2-1.4c7.3-7.9,1.6-14.1-9.1-9.9
		c-5.8,2.3-8.6,1.5-14.5-4.3c-1.7-1.7-3.1-3-3.2-3c-0.9,0,3.4,5.4,5.9,7.3c3.7,2.8,6.9,3.1,12.7,1.2c6.5-2.1,8.8-2,10.2,0.5
		c1.7,3.1-0.8,6.3-9.5,12.2c-8.6,5.8-16.4,7.3-16.9,3.3c-0.1-0.7-0.3-1.7-0.4-2.1c-0.2-0.6,0-1,1.1-1.9c3.5-3.1,3.4-6.1-0.4-11
		c-1.9-2.6-2.7-4.1-3.7-7.4c-1.5-5-2.2-6.5-3.9-8.2c-1.7-1.7-3.9-2.7-4.4-2c-0.2,0.3-0.4,0.4-0.7,0c-0.8-0.8-4.5,2-5.1,3.8
		c-0.4,1.1-1,1.6-1,0.9c0-0.7-1.8-2.4-3-2.7c-1.6-0.5-2.2-0.1-3.2,2.1c-0.4,1-1.1,2.5-1.5,3.4c-0.8,1.8-3.1,4.2-4.7,4.8
		c-1.4,0.6-1.5,0.3-0.7-1.1c1.2-2.1,1.1-6.1-0.2-6.1c-0.8,0-0.6-1.2,0.8-4.2c2.7-6,1.5-8.2-5.6-10.5c-3.4-1.1-3.4-1.2-2.5-3
		c0.4-0.8,0.9-2.5,1.1-3.9c0.2-1.4,0.4-2.7,0.5-2.9c0.1-0.2,2.7-0.5,7.2-0.8c3.9-0.2,7.6-0.5,8.2-0.5c0.6-0.1,1.5-0.1,2.2-0.1l1.2,0
		L170.1,189.2 M220.8,188.2c6.1,3.1,6.9,7.4,2.3,12.1c-2.6,2.6-7.6,4.3-8.9,3.1c-0.3-0.3-1.5-0.9-2.6-1.3c-4.3-1.6-6.9-5.7-5.9-9.3
		c0.4-1.3-0.5-1.3-1.1,0c-0.3,0.6-0.5,0.8-0.8,0.5c-0.6-0.6,1-3.1,3.1-4.8l1.8-1.5h5h5L220.8,188.2 M98.9,189c0.1,0.5,1,1.8,1.9,2.8
		c4.9,5,11.7,4.1,11.9-1.6c0.1-3.4,1.1-2.9,1.1,0.6c0,6.8,4.9,13.7,11.2,15.8c0.7,0.2,1.5,0.6,1.7,0.9c0.2,0.3,1.7,0.6,3.8,0.8
		c1.9,0.2,5.1,0.5,7.1,0.7c7.6,0.7,9.2,3.1,4.8,6.7c-2.2,1.9-6.4,6.2-6.7,6.9c-0.2,0.6-1,0.2-1-0.5c0-1.1-5.6-12.8-6.1-12.8
		c-1.1,0-1.1,0.7,0.1,3.3c1.8,4,3.7,8.7,3.6,8.8c-0.1,0.1-1.3-0.1-2.7-0.4c-6.5-1.3-12,0.2-12.9,3.5c-0.3,1.2,0.5,2.6,1.4,2.8
		c0.6,0.1,0.6,0.1-0.1-0.7c-2.8-3,1.6-5,10.1-4.5c6.3,0.4,7.1,1.3,4.8,5.7c-1.7,3.2-1.5,6.3,0.5,8l1.1,0.9l-1.1,0.9
		c-0.7,0.6-1,1.1-0.9,1.4c0.1,0.3-0.4,1.1-1.4,2.1l-1.6,1.6l-4.2,0.6c-4.8,0.7-4.9,0.6-5.9-1.7c-0.6-1.4-0.5-8.3,0.3-11.8
		c0.1-0.7,0.1-0.9-0.3-0.9c-0.5,0-1.3,3.8-1.9,9.1l-0.2,2.1l-1.5-2.7c-2.4-4.5-7.3-11.7-8-11.8c-1,0-0.7,0.6,2.2,5.8
		c5.2,9.3,7.3,14,10.3,22.9c0.5,1.6,1.1,3.6,1.2,4.4l0.2,1.5l-1-0.7c-1.9-1.3-2.8-2.7-4.9-6.7c-2.5-4.9-6.5-10.3-12-16.1
		c-5.1-5.4-6.2-8-3.6-8.6c0.5-0.1,1.9-0.8,3-1.5c1.1-0.7,2.5-1.3,3.1-1.4c0.6-0.1,1-0.4,1-0.7c0-0.3,0.6-1.2,1.3-1.9
		c0.7-0.7,1.4-1.9,1.6-2.6l0.3-1.2l1.6,0.6c3.2,1.2,6.9,1.3,6.9,0.1c0-0.3,0.6-1.7,1.2-3.1c3.1-6.6,0.6-10.2-8.2-11.8
		c-2.4-0.4-6.9-4.7-13.6-12.8c-3.1-3.8-3-3.5-1.2-3.5C98.6,188,98.7,188.1,98.9,189 M111.1,188.5c1.4,1.7,0,4.7-2.3,5.2
		c-2.1,0.4-9-3.5-9-5.1C99.8,187.8,110.5,187.8,111.1,188.5 M284.3,188.4c-0.1,0.2-1,0.3-1.9,0.3s-1.8-0.2-1.9-0.3
		c-0.1-0.2,0.6-0.3,1.9-0.3C283.7,188,284.4,188.2,284.3,188.4 M149.2,190.9c-0.1,5.6-6.5,11.6-14,13.1c-9.9,2-19.1-5.3-17.7-14.1
		l0.2-1.6l15.8,0.2l15.8,0.2L149.2,190.9 M246.6,192c14.3,3.7,17.1,18,5.7,29.6c-11.8,12-34.3,0.2-29.4-15.5
		c1.1-3.4,6-10.9,7.7-11.7c0.4-0.2,0.7-0.5,0.6-0.7C230.1,192,241.4,190.7,246.6,192 M235.1,197.9c-0.7,1.1,2.3,7.6,4.2,9.4
		c2.9,2.6,4.1,2.1,6.6-3.1c1-2,2-4.1,2.4-4.6c0.6-0.9,0.4-1.7-0.6-1.7c-0.5,0-2.1,3.2-3.2,6.5c-1.7,4.8-3,4.5-6.6-1.5
		c-1.2-2-1.3-2.4-1.8-4.4C235.9,197.6,235.4,197.3,235.1,197.9 M150.7,199.5c7.9,1.6,8.5,2.5,6.2,9c-0.6,1.8-1.1,3.3-1.1,3.3
		c0,0.2-4.7-0.7-6.7-1.4c-5-1.6-5.8-2.8-4-6.5c0.6-1.2,1-2.4,1-2.6c0-0.6,1.3-2.4,1.7-2.4C147.9,199,149.2,199.2,150.7,199.5
		 M270.4,200.2c4.9,2.4,6.4,9.3,2.3,10.1c-2.8,0.5-9.1-3.1-9.3-5.3c-0.1-1-1.2-1.3-1.2-0.3c0,1.2,1.6,3.5,3.2,4.8
		c1.9,1.4,1.9,1.5-1,0.8c-3.1-0.7-2.9-0.4-3-4.8C261.2,199.7,264.9,197.5,270.4,200.2 M205.5,200.6c1.5,1,1.6,1.3,0.7,1.9
		c-1,0.7-1.2,1.8-0.6,3.2c0.3,0.7,0.4,1.5,0.3,1.9c-0.1,0.3,0,0.7,0.1,0.8c0.2,0.1,0.7,0.7,1.1,1.3c0.6,0.9,0.4,0.8-1.1-0.6
		c-5.6-5.1-6.3-5.8-5.8-5.9c0.3-0.1,1.2-0.9,2-1.8c0.8-0.9,1.6-1.6,1.6-1.7C204.1,199.7,204.7,200.1,205.5,200.6 M249,202.3
		c-6,7-7.3,10.1-5.7,13.4c0.8,1.7,4,4.6,4.7,4.4c1-0.2,0.7-0.8-1.3-2.4c-2.4-2-3.2-3.5-2.8-5.4c0.3-1.3,6.1-10.3,6.8-10.8
		c0.5-0.3,0.5-0.9,0-0.9C250.6,200.7,249.8,201.4,249,202.3 M232,202.1c-0.1,0.2,0.3,1.1,0.9,2.1c1.3,2.1,1.5,3.9,0.5,4.6
		c-1.2,0.9-3.2,1.3-4.6,0.9c-1.2-0.3-2.3,0.2-1.4,0.7c2.8,1.7,7.6-0.5,7.6-3.4C234.9,204.5,232.7,200.9,232,202.1 M216.3,208.1
		c2.8,3.4,4.4,5.8,5.1,7.7c0.3,0.8,1.2,2.5,2,3.8c1.8,2.9,4.4,13.2,3.7,14.4c-0.7,1.1-2.7-1.1-5.2-5.8c-4.4-8-9.4-15.4-12.6-18.5
		c-1.4-1.4-2.5-2.6-2.5-2.8c0-0.2-0.2-0.8-0.5-1.4C203.8,200.6,212,202.8,216.3,208.1 M221.4,204.5c-0.1,0.4-0.4,1.8-0.6,3.1
		c-0.5,2.7-0.4,2.7-2.7-0.1l-1.8-2.2l1.8-0.5c1-0.3,2-0.6,2.1-0.8C221,203.4,221.6,203.7,221.4,204.5 M143.1,208.5
		c0,0-0.8-0.1-1.6-0.4c-0.8-0.3-2-0.6-2.7-0.8l-1.2-0.3l2.6-1.2l2.6-1.2l0.2,1.9C143.1,207.5,143.1,208.4,143.1,208.5 M313.4,208.2
		c1.4,1.8,3.3,2.8,5.3,2.8c2.3,0,2,1-3.7,11.4c-2.4,4.4-2.6,4.5-3.2,3c-0.5-1.2-2.3-3.2-4.1-4.3l-1.3-0.9l1-1.4
		c1-1.5,3.7-10.4,3.7-12.3c0-1.8,0.4-2.2,0.9-0.8C312.2,206.3,312.9,207.5,313.4,208.2 M114.8,206.8c5.6,1.3,7.2,2.9,5.7,5.6
		c-0.9,1.6-1.8,4.4-1.8,5.3c0,1.8-0.4,1.9-2.6,1c-1.1-0.5-2.8-1.1-3.7-1.3c-2.1-0.5-2-0.4-4.1-2.6l-1.6-1.8l1-2.3
		c0.6-1.3,1.1-2.7,1.2-3.1c0.2-0.6,1.6-1.3,2.8-1.5C111.8,206.2,113.2,206.5,114.8,206.8 M286.1,207.6c5.1,3.2,6.4,4.4,6.4,5.8
		c0,1.5,0.7,2.4,2.8,3.6c1.7,1,1.6,1.1-0.9,2c-2.8,0.9-5.1,3-6.5,5.7l-1.2,2.3l-2.1-1.1c-1.2-0.6-2.1-1.2-2.2-1.3
		c0-0.1-1.1-1.9-2.4-4.1c-1.2-2.2-2.6-4.6-3-5.4c-0.5-1-0.9-1.4-1.5-1.5c-2.4,0,1.3-5.1,4.7-6.6
		C282.3,206.2,284.1,206.4,286.1,207.6 M101.4,210.5c1.6,1.5,3.1,2.9,3.5,3.3c4.8,4.9,4.9,5,4.1,6c-1.3,1.5-4.7,4.1-5.5,4.1
		c-1,0-2.5,0.7-4,1.8c-1.1,0.8-1.5,0.6-2.3-1.1c-1.5-2.9-5.7-7.9-6.7-7.9c-0.6,0-0.6,0.9-0.1,1.2c0.2,0.1,1.5,2,2.9,4.1
		c1.4,2.1,3,4.2,3.6,4.7c1,0.9,1.1,1,0.9,2.8l-0.2,1.9l-2.4-3.7c-1.3-2-3.5-5.9-4.9-8.6c-3-5.8-3.1-5.3,1.8-9
		C96.8,206.5,97.1,206.5,101.4,210.5 M179.6,209.8c3.8,2.7,4.4,8.4,1.1,10.8c-4.3,3.1-10.6-3.7-8.1-8.8
		C174.3,208.4,176.7,207.7,179.6,209.8 M167.8,211.4c2.4,2.5,2.4,3.6,0.1,8c-4.5,8.6-6.5,9.8-10.2,6.3c-2.4-2.3-2.4-3.1,0-4
		c3.5-1.4,6-4.4,6.8-8.2C165.2,210.2,166.1,209.6,167.8,211.4 M147.2,211.3l1.6,0.7l-1.1,0.7c-1.4,0.9-1.8,0.8-1.8,0
		c0-0.4-0.2-1-0.4-1.4C145.2,210.4,145.2,210.4,147.2,211.3 M273.4,212.5c-0.2,1.1-0.1,1.2,0.6,1.4c0.6,0.2,1.1,0.8,1.8,2.5
		c0.5,1.3,1.5,3.4,2.3,4.7c0.7,1.3,1.3,2.5,1.3,2.6c0,0.1-1.2,0.3-2.6,0.4c-1.4,0.1-3.1,0.4-3.8,0.7s-1.3,0.5-1.4,0.5
		c-0.4,0,0-1.5,1.1-3.6c2.3-4.4,2-6.4-1.3-8.8l-1.4-1l1.2,0c0.6,0,1.4-0.2,1.7-0.3C273.6,211.1,273.6,211.2,273.4,212.5
		 M265.9,212.5c7,1.4,8.2,2.8,6.2,7.5c-0.5,1.3-1.1,3-1.2,3.8c-0.3,1.8-0.6,2-1.9,1.3c-0.6-0.3-2.4-0.9-4-1.4
		c-5.8-1.7-6.9-2.9-5.6-6.1c0.4-1,1-2.5,1.3-3.3c0.7-1.9,1.3-2.7,1.9-2.5C262.9,211.9,264.4,212.2,265.9,212.5 M234.5,212.3
		c-2.3,0.7-7,4.9-6,5.3c0.3,0.1,1-0.2,1.7-0.9c4-3.7,9.1-4.7,9.7-2c0.1,0.4,0.3,1.7,0.5,2.8c0.7,4.1,1.5,5.5,2.2,4.4
		c0.4-0.6-2.1-8-2.9-8.9C238.6,212.1,236.2,211.7,234.5,212.3 M156.8,214.1c1,1.2,1,2.2,0,3.8c-2.6,3.8-3,4-5,2.3
		c-1.1-0.9-2.1-1.3-2.1-0.8c0,0.5,4,5.1,6,6.9c6.3,5.5,8,7.6,7.3,9c-0.5,1-0.6,0.9-3.5-1.2c-5.7-4.2-10-4.5-15.4-1.2
		c-1.8,1.1-7.7,3.2-8.1,2.9c-0.1-0.1-0.3-2.4-0.3-5.1l-0.1-4.8l3.1-3.3C146.8,214,153.9,210.7,156.8,214.1 M296.2,215.3
		c0.8,1.2,0.6,1.2-1,0.4c-1.3-0.6-1.5-0.9-1.5-1.7v-1l1,0.8C295.3,214.2,296,214.8,296.2,215.3 M171.6,217.6c0,0.2,0.3,0.9,0.7,1.3
		c0.8,1,0.7,1.1-1.3,1.3c-1.2,0.1-1.3-0.1-0.8-1.5c0.2-0.4,0.4-1.1,0.5-1.4C171,216.7,171.6,216.9,171.6,217.6 M257.9,219.7
		c0.5,2.5,4.3,5.1,9,6.1c2.2,0.5,3.1,0.9,1.7,0.9c-3.5,0-7.2,5.1-7.2,10c0,2.2-0.1,2.7-0.5,2.6c-1.1-0.4-10.6,9.9-11.9,12.8
		c-0.5,1.2-0.5,1.3-3.3-0.7c-1.4-0.9-2.6-1.8-2.8-1.9c-0.3-0.1-0.2-0.3,0.1-0.5c0.3-0.2,0.8-0.6,1.2-0.9c0.4-0.3,1.8-1.3,3.1-2.3
		c2.5-1.8,3.9-3.7,3.9-5.1c0-0.8,0-0.9,2.7-0.9c4.1,0,5.8-2,5.4-6.2c-0.4-3.7-4.1-7.6-7.2-7.6c-1.4,0-1.2-0.5,0.8-2.3
		c1.1-0.9,2.5-2.5,3.1-3.5C257.5,218.1,257.6,218.1,257.9,219.7 M184.7,220.9c0.8,1.8,1.5,2.9,4.4,6.7c2.6,3.4,2.5,4.9-0.1,7.9
		l-1.3,1.5l-1.6-1.4c-1.6-1.5-3.4-2.4-4.6-2.4c-0.7,0-1-1.1-0.4-1.5c1.2-0.7,0.5-4.6-1.2-7.2l-1.2-1.9l1.5-0.6
		c0.8-0.4,1.9-1.1,2.3-1.7C183.7,218.8,183.8,218.9,184.7,220.9 M302.7,220.8c7.9,2.5,9.9,6,6.4,11.3c-4.7,7.1-12.2,7.3-17.2,0.4
		c-2.6-3.7-2.3-5.1,2.1-8c2.2-1.4,3.7-2.6,4.1-3.4C298.9,219.7,299.3,219.7,302.7,220.8 M296.1,220.9c-5.3,3.4-6.5,4-5,2.4
		c1.4-1.5,3.7-2.8,4.8-2.7C296.5,220.6,296.5,220.6,296.1,220.9 M175.3,222.4c7.1,3.3,6.9,12.9-0.3,10.1c-2.7-1.1-5.7-3.3-6.2-4.6
		c-0.2-0.6-0.5-1.2-0.7-1.2c-0.6,0-0.2,2,0.5,3.1c1.3,1.9,1.3,2,0.6,1.8c-0.4-0.1-0.7,0-0.7,0.2c0,0.3-0.2,0.3-0.6,0.1
		c-0.5-0.2-0.9-0.2-1.7,0.3c-1.5,0.9-1.5,0.9-3.6-1.3c-1.9-2-2.1-2.5-0.9-2.5c0.3,0,1.3-0.5,2-1c0.8-0.6,1.6-1,1.7-1
		c0.2,0,0.4-0.3,0.5-0.8C166.8,222.3,171.6,220.6,175.3,222.4 M279.3,226.1c1.6,0.4,1.9,0.6,2.7,2.1l0.9,1.7l1.8-0.2l1.8-0.2
		l0.8,1.7c0.5,0.9,1.5,2.2,2.4,2.9c3.2,2.6,4.5,8.4,2.6,11.9c-5.7,11-26.4,5.1-29.5-8.3c-0.9-4,3.6-10.3,7.4-10.3
		c0.3,0,0.6-0.2,0.6-0.4s0.2-0.3,0.4-0.2c0.2,0.1,1-0.1,1.6-0.5C274.2,225.6,276.8,225.5,279.3,226.1 M252.7,227.1
		c6.7,2.3,8,11.9,1.6,11.9c-4.6,0-8.3-6.3-5.7-9.7c0.7-0.9,0.6-1.8-0.1-1.4c-0.6,0.4-1.6,3-1.6,4.1c0,1.8-0.6,1.7-2.7-0.3
		c-1.1-1-2.3-2.1-2.7-2.3c-1.1-0.5-0.6-1,0.9-1c0.7,0,2.2-0.3,3.3-0.7C249.1,226.6,250.9,226.4,252.7,227.1 M284.3,228.1
		c0.3,0.5-0.1,0.8-0.7,0.5c-0.3-0.1-0.5-0.4-0.3-0.6C283.5,227.6,284,227.6,284.3,228.1 M289.2,228.2c0,0.3-0.2,0.5-0.5,0.5
		c-0.3,0-0.5-0.2-0.5-0.5s0.2-0.5,0.5-0.5C289,227.7,289.2,227.9,289.2,228.2 M134.5,232.9c0.3,2.9,0,3.4-1.2,1.5
		c-0.8-1.4-0.9-2.5-0.1-4.4C133.9,228.3,134.1,228.7,134.5,232.9 M156.1,233.4c4.8,2.5,6.1,3.6,6.4,5.5c0.1,0.9,0.3,2,0.4,2.5
		c0.2,0.7-0.1,0.5-1.8-1.1c-3.5-3.4-8-5.4-14.1-6.3l-1.9-0.3l1.7-0.9C149.4,231.3,152.5,231.5,156.1,233.4 M170.8,233.7
		c4.6,2.7,4.8,9.7,0.5,11.5c-3.2,1.3-8.2-3.5-7.6-7.4c0.3-1.9,0.6-2.1,1.3-0.6c1.2,2.6,2.4,1.4,1.2-1.3l-0.7-1.7l1-0.8
		C167.5,232.3,168.6,232.4,170.8,233.7 M175,234.1c0.7,0.2,0.8,0.4,0.8,1.9c0,2,0.4,3.1,1.7,4.8c1.3,1.6,1.3,1.6-0.3,2.1
		c-0.7,0.2-1.5,0.6-1.7,0.8c-0.7,0.6-0.8,0.1-0.3-1.4c0.9-2.5,0.5-4.6-1.3-7.3C173.2,233.8,173.4,233.7,175,234.1 M183.5,235.1
		c3.2,1.6,5.2,5.8,3.2,6.9c-3.2,1.7-8.7-1.3-10-5.6C175.9,233.9,179.4,233.2,183.5,235.1 M149.4,236c15.8,2.8,19.5,17.7,7.5,30
		c-8.7,8.9-23.4,6.2-29.1-5.3c-2.5-5.1-0.1-15.9,3.7-16.7c2.4-0.5,4.1-2.3,4.4-4.7c0.2-1.6,0.6-1.8,3.3-2.6
		C143.5,235.5,145.6,235.3,149.4,236 M220.7,237.9c4,2,6.7,5.3,7.2,8.8l0.2,1.7l-1.7,1.1c-0.9,0.6-2.3,1.7-3.1,2.4
		c-1.7,1.5-1.8,1.5-5.4,0.6c-5-1.2-9.8-4.8-10.3-7.6c-0.1-0.5-0.4-1-0.7-1.1c-1-0.4-0.3-3.1,1.4-4.9
		C210.8,236.3,216.4,235.8,220.7,237.9 M297,238.2c2.2,0.7,3,0.9,4.8,0.7c2.7-0.2,2.7-0.5-1.1,4.1c-5.3,6.3-12.7,13.1-18.4,17
		c-1.8,1.2-1.9,1.2-1.9-1c0-1.3-0.2-2.4-0.7-3.3c-0.9-1.8-0.9-1.8,0.7-1.6c8.4,1.1,16.3-7.4,14.1-15.4c-0.2-0.7-0.3-1.3-0.2-1.3
		C294.3,237.3,295.5,237.7,297,238.2 M105.6,241.8c3.1,3.5,7.3,9.1,7,9.4c-0.4,0.4-8-8.8-9.7-11.6
		C101.8,237.6,102.2,238,105.6,241.8 M135,239.9c0,0.6-1.8,2.5-2.4,2.5c-0.6,0-0.4-0.5,0.7-1.8C134.5,239.2,135,239,135,239.9
		 M206,239.7c-0.1,0.2-0.4,1.1-0.6,1.8l-0.4,1.4l-2.1-0.1c-1.2-0.1-2.2-0.2-2.4-0.2c-0.3-0.1,4.8-3.2,5.4-3.3
		C206.1,239.3,206.1,239.5,206,239.7 M261.6,243.7c0.7,1.1,2.5,3.4,4.2,5.2c2.9,3.1,3.3,3.9,2.6,4.3c-0.2,0.1-0.6,0.7-0.8,1.4
		c-0.6,1.5-3.2,1.6-7.9,0.4l-2.9-0.7l-0.7,0.9c-0.4,0.5-1.2,1-1.8,1.1c-0.6,0.1-1.5,0.3-1.9,0.4c-0.7,0.2-1,0-1.8-1l-0.9-1.2l1-1.2
		c0.5-0.6,2.5-3,4.4-5.2c1.9-2.2,3.8-4.5,4.3-5.2C260.2,241.4,260.2,241.4,261.6,243.7 M189.3,242.9c1.5,1,3.1,1.3,5.6,1.1l2-0.2
		l-1,1.2c-0.5,0.7-1.1,1.8-1.3,2.4l-0.3,1.1l-1.7-1.6c-0.9-0.9-2.4-2-3.2-2.5c-2.3-1.3-2.5-1.5-2-2
		C187.9,241.9,187.8,241.9,189.3,242.9 M119.7,244.2c0,0.8,1.1,1.2,2.1,0.7c1.3-0.6,6.5-1,6.5-0.5c0,0.2-0.4,1-0.8,1.7
		c-3.3,5.1-3.2,12.3,0.4,17.7c1.5,2.3,1.2,2.3-1.8,0c-3.2-2.5-3-2-3.1-6.3c-0.1-3.8-0.1-3.8-3.1-11.3c-1-2.4-1.1-2.9-0.5-2.6
		C119.5,243.7,119.7,244,119.7,244.2 M204.3,243.6c0.5,0.1,0.8,0.6,1,1.2c0.1,0.5,0.5,1,0.8,1.1c0.3,0.1,0.8,0.8,1,1.6
		c0.2,0.8,2.5,5.5,5.1,10.6c4,7.9,4.7,9.6,5.3,12.2c0.7,3.4,1.9,5.8,4.1,8.1c2.8,3,3.9,7.6,2,8c-2,0.4-2.2,0.3-4.7-3.5
		c-3.4-5.1-6.7-9.5-11.5-14.9c-5.8-6.6-8.6-10.3-8.9-11.6c-0.1-0.6-0.8-2.3-1.6-3.7c-2.9-5.8-1.1-8.9,5.3-9.1
		C203,243.4,203.9,243.5,204.3,243.6 M165.3,244.4c0.3,0.4,1.3,0.9,2.1,1.2c1.8,0.7,1.8,0.6,0.3,2.2c-0.7,0.7-1.2,1.5-1.2,1.7
		c0,1.1-0.6,0.1-0.8-1.3c-0.1-0.9-0.5-2.2-0.9-3C163.9,243.5,164.1,243.1,165.3,244.4 M184,244.3c9.1,2.7,15.4,12.9,12.2,19.8
		c-2.2,4.7-8.4,6.7-13.5,4.5c-1.2-0.5-3.3-1.1-4.6-1.3c-3.7-0.5-5.7-1.9-8.7-6.2c-4.6-6.6-2.5-12.9,5.3-15.6
		c1.1-0.4,2.6-0.9,3.2-1.2C179.4,243.6,181.7,243.6,184,244.3 M238.3,250c5.4,1.3,11.5,6.5,13.4,11.4c6.5,16.3-22.7,27.3-30,11.3
		c-2-4.3-0.2-13.8,2.9-15.7c0.8-0.5,0.9-1.3,0.2-1.3c-1,0-2.8,2.1-4.1,4.5c-0.7,1.4-1.2,2.2-1.1,1.9c0.1-0.3,0.3-1,0.4-1.5
		c0.2-0.9,0.9-2.2,2.2-4.4c0.4-0.6,1.1-1.2,1.8-1.5c1.6-0.5,3.2-1.8,4.4-3.4C229.9,249.3,233.4,248.8,238.3,250 M269.9,250.4
		c0.5,0.4,0.6,0.6,0.3,0.9c-0.4,0.4-1.4-0.4-1.4-1.2C268.7,249.8,269.2,249.9,269.9,250.4 M274.4,252.7c2.6,1,3,1.2,3.8,2.6
		c2.3,4-0.3,9.5-4.1,8.8c-3.4-0.6-7.3-6.2-5.5-7.7c0.9-0.7,1.5-1.8,1.5-2.8C270.1,251.6,270.9,251.4,274.4,252.7 M215.7,254.5
		c1,0.3,2.4,0.6,3.1,0.7c1.5,0.3,1.5,0.2,0.4,2c-0.9,1.6-1.9,4.4-1.9,5.6c0,1.3-0.5,0.9-1.6-1.2c-0.6-1.1-1.9-3.6-3-5.6
		c-2.4-4.4-2.3-4.3-0.5-3.1C213.2,253.5,214.7,254.2,215.7,254.5 M166.1,258.6c0.9,2.7,3,6,5.1,7.8c0.9,0.8,1.5,1.4,1.4,1.5
		c-0.1,0.1-0.7,0.4-1.4,0.7c-1.4,0.6-1.4,0.6-1.8-1.6c-0.3-2.1-2.4-4-4.2-3.9c-1.4,0.1-1.2-0.2-3.5,4.8c-2.5,5.3-8.4,8.3-10.9,5.6
		l-0.7-0.8l2.9-1.5c3.9-2,10.7-9.1,10.7-11.3c0-0.3,1.4-3.4,1.5-3.4C165.4,256.4,165.7,257.4,166.1,258.6 M254.8,257.8
		c0.1,0.1-0.2,0.8-0.6,1.5l-0.8,1.3l-0.7-1.4c-0.4-0.8-0.6-1.4-0.6-1.5C252.3,257.5,254.6,257.6,254.8,257.8 M263.8,257.8
		c3.9,1.1,5.3,3,4,5.6c-1.1,2.2-1.8,4.3-1.8,5.4c0,1.3-0.7,1.5-2,0.8c-0.6-0.3-2.3-0.9-3.9-1.3c-5.5-1.4-6.7-3-5-6.8
		c0.6-1.2,1.2-2.6,1.4-3.2C256.8,257.3,260.8,257,263.8,257.8 M200.3,262c0.5,0.6,2.1,2.5,3.6,4.2c3.1,3.6,3.1,3.5,0.2,2.4
		c-1.2-0.4-3.2-0.9-4.4-1c-3.2-0.3-3.1-0.2-2-2.3c0.6-1,1-2.1,1-2.6C198.6,260.7,199.1,260.5,200.3,262 M273,265
		c1.1,0,0.3,0.8-2.9,2.6c-4.2,2.4-4.1,2.5-2.1-1.7l1.4-2.9l1.5,1C271.7,264.5,272.7,265,273,265 M166.1,263.8
		c2.8,1.5,3.1,4.6,0.9,8.1c-0.9,1.3-1.8,3-2.1,3.9c-0.9,2.5-3.4,5-5.2,5c-1.6,0-7.4-4.9-6.2-5.2c0.3-0.1,1.4-0.4,2.5-0.7
		c3.7-1,6.6-4.4,7.5-8.7C164,263.4,164.6,262.9,166.1,263.8 M260.5,269.9c1.7,0.6,3.1,1.1,3.1,1.2c0,0.2-10.1,5.1-12.6,6.1
		c-2.2,0.9-2.3,0.6-0.6-1.4c1.7-2,3.1-4.6,3.4-6.6c0.4-2.3,0.4-2.3,2-1.3C256.7,268.5,258.8,269.4,260.5,269.9 M176.5,270
		c1,0.5,3.6,1.3,5.7,1.7c4,0.8,5,1.4,4.6,2.5c-0.9,2.4-0.8,5.5,0.2,6.8c0.7,0.9-1.8,3.4-4.8,4.8c-5.8,2.6-14.7-3.2-14-9.1
		c0.1-0.9,0-1.8-0.1-2c-1.3-1.3,2.7-4.7,6.5-5.6C174.7,269.1,175.5,269.5,176.5,270 M202.5,270.1c6.2,1.9,9.2,6.2,7.1,10.2
		c-3.6,7-10.7,8.2-16.6,2.8c-2.4-2.2-2.6-2.6-2.7-5.8c-0.1-1.5-0.3-2.6-0.5-2.8c-2-1.7,4.6-5.7,8.7-5.3
		C199.5,269.3,201.3,269.7,202.5,270.1 M150.1,274.4c0.6,0.8,1.9,2.2,2.9,3.2c0.9,1,1.6,1.9,1.5,2c-0.3,0.3-12.6-5.3-13.7-6.3
		c-0.1-0.1,1.6-0.2,4-0.2l4.2,0L150.1,274.4 M167,277.5c0,1.1,0.1,2.3,0.3,2.7c0.4,1.1-0.2,1-0.9-0.2c-0.7-1.2-0.7-2.5,0-3.6
		C167.1,275.3,167.1,275.3,167,277.5 M188.4,277.8c-0.1,1.9-0.7,2.6-0.8,0.9c-0.1-1.7,0.2-2.8,0.6-2.8
		C188.4,275.9,188.5,276.7,188.4,277.8 M213.5,277.5c2.5,2.8,7.2,9,7,9.2c-0.5,0.5-18.2,2.1-18.6,1.7c-0.2-0.2,0.5-0.4,3.2-1.4
		c3.4-1.2,7-5.9,7-9.2C212,275.9,212,275.9,213.5,277.5 M165.1,280c0.4,1,2.9,3.5,3.8,3.8c0.3,0.1,0.4,0.3,0.3,0.4
		c-0.2,0.2-7-1.6-8.3-2.3c-0.6-0.3-0.5-0.4,0.7-1c0.7-0.4,1.6-1,2-1.3C164.4,278.7,164.6,278.8,165.1,280 M229.1,282.9
		c1.5,0.5,2.6,1,2.6,1.1c0,0.2-5.9,1.8-6,1.6c-0.4-0.6-0.3-4,0.2-3.9C226.3,281.9,227.7,282.4,229.1,282.9 M193.4,285.7
		c1.2,0.8,3,1.6,4,1.9s1.9,0.6,1.9,0.8c0,0.4-13.3-0.6-15.1-1.1c-0.5-0.2-0.3-0.4,0.9-1.2c0.8-0.5,2-1.5,2.6-2.2l1.2-1.2l1.2,0.8
		C190.7,284,192.3,285,193.4,285.7"/>
	<path id="path1" class="st1" d="M237.8,77.4c0.4,0.3,0.8,0.4,1,0.3c0.2-0.1,0-0.3-0.3-0.5C237.4,76.8,237.1,76.9,237.8,77.4
		 M235.6,88c0,0.8,0.1,1,0.2,0.6c0.1-0.4,0.1-1,0-1.4C235.7,86.9,235.6,87.3,235.6,88 M244.6,90.6c-0.9,0.4,0,0.4,1.2,0
		c0.7-0.2,0.7-0.3,0.2-0.3C245.6,90.3,245,90.4,244.6,90.6 M237.8,92.3c-0.9,0.4,0,0.4,1.2,0c0.7-0.2,0.7-0.3,0.2-0.3
		C238.8,92,238.2,92.1,237.8,92.3 M217.4,109.2c-1.7,0.5-3.4,1.9-3,2.4c0.2,0.2,0.8,1,1.4,1.8c4.6,6,9.4,8.2,11.6,5.4
		c2.7-3.5-1.9-9.3-7.3-9.3c-0.4,0-0.9-0.1-1.1-0.3C218.8,108.9,218.1,109,217.4,109.2 M208,142l-1,1.1l1.1-1
		c0.6-0.6,1.1-1.1,1.1-1.1C209.2,140.7,208.9,140.9,208,142 M206,144.4l-1,1.1l1.1-1c0.6-0.6,1.1-1.1,1.1-1.1
		C207.2,143.1,206.9,143.3,206,144.4 M241.4,148.8c0.5,0.2,1.1,0.5,1.4,0.7c0.3,0.2,0.2,0.1-0.3-0.4c-0.4-0.4-1.1-0.8-1.4-0.7
		C240.7,148.4,240.8,148.5,241.4,148.8 M202.8,149.9c-0.3,0.3-0.3,0.6-0.1,0.7c0.2,0.1,0.5-0.1,0.7-0.5
		C203.8,149.3,203.4,149.2,202.8,149.9 M231.2,152.6c-0.4,0.5,0.1,1.6,0.5,1.1c0.2-0.2,0.1-0.4-0.2-0.5c-0.3-0.1-0.3-0.3,0-0.6
		c0.2-0.3,0.3-0.5,0.2-0.5C231.6,152.1,231.4,152.3,231.2,152.6 M104.4,154.5c-0.3,0.2,0.1,0.3,0.8,0.3s1-0.1,0.8-0.3
		c-0.2-0.1-0.6-0.3-0.8-0.3C104.9,154.2,104.6,154.3,104.4,154.5 M102.8,156.8c-0.6,0.4-0.6,0.5-0.1,0.5c0.3,0,0.7-0.2,0.8-0.4
		C103.8,156.3,103.5,156.3,102.8,156.8 M240.8,157.9c0,0.7,0.1,0.9,0.2,0.6c0.1-0.3,0.1-0.9,0-1.2
		C240.8,157,240.8,157.3,240.8,157.9 M198.7,157.8c-0.3,0.7,0.3,1.3,1.3,1.1c0.7-0.1,0.7-0.2-0.1-0.2c-1,0-1.3-0.9-0.5-1.2
		c0.3-0.1,0.3-0.2,0-0.2C199.1,157.3,198.9,157.5,198.7,157.8 M201.5,157.8c0.3,0.1,0.9,0.1,1.2,0c0.3-0.1,0.1-0.2-0.6-0.2
		C201.4,157.7,201.1,157.8,201.5,157.8 M223.9,159.5c-0.8,0.8-1.4,1.5-1.3,1.5c0.1,0,0.8-0.7,1.7-1.5c0.8-0.8,1.4-1.5,1.3-1.5
		S224.8,158.6,223.9,159.5 M100.6,160c0,0.7,0.1,0.9,0.2,0.6c0.1-0.3,0.1-0.9,0-1.2C100.7,159.1,100.6,159.3,100.6,160 M112.9,161.4
		c0,0.7,0.1,0.9,0.2,0.6c0.1-0.3,0.1-0.9,0-1.2C113,160.4,112.9,160.7,112.9,161.4 M111.5,161.7c0,0.7,0.1,0.9,0.2,0.6
		c0.1-0.3,0.1-0.9,0-1.2C111.6,160.8,111.5,161.1,111.5,161.7 M241.7,164.9c0,0.6,1.3,1.4,1.6,1.1c0.1-0.1-0.1-0.3-0.6-0.4
		c-0.5-0.1-0.7-0.4-0.6-0.7c0.1-0.3,0-0.5-0.2-0.5C241.9,164.4,241.7,164.7,241.7,164.9 M236.2,165.8c-1,0.2-0.8,0.3,1,0.3
		c1.2,0,2.1,0,2.1-0.1C238.9,165.7,237.3,165.6,236.2,165.8 M228.9,166.5c0.4,0.2,0.9,0.3,1.2,0.3c0.3,0,0.3-0.1-0.2-0.3
		c-0.4-0.2-0.9-0.3-1.2-0.3C228.4,166.2,228.5,166.3,228.9,166.5 M242.1,166.9c0.1,0.1,0.6,0.4,1.2,0.7l1,0.6l-0.8-0.7
		c-0.4-0.4-1-0.7-1.2-0.7C242.1,166.8,242,166.9,242.1,166.9 M244.4,168.3c0,0.1,0.5,0.5,1.1,0.9c0.7,0.5,0.9,0.6,0.6,0.2
		C245.7,168.9,244.4,168,244.4,168.3 M127.3,173.5c-2.4,0.6-4.5,1.9-6.6,4.1c-1.7,1.9-4.5,6.8-4,7.2c0.1,0.1,0.4-0.3,0.7-0.9
		c1.1-2.5,3.7-5.2,4.4-4.5c0.3,0.3,0.1,0.7-0.6,1.4c-0.6,0.6-1.3,1.8-1.7,2.7l-0.7,1.7l1,0.2c3,0.6,27.3-0.1,28.1-0.9
		c0.5-0.5-1.9-4-4-6C139,174.3,132.5,172.2,127.3,173.5 M196.6,174.4c0,0.2,0.2,0.3,0.5,0.3c0.3,0,0.5-0.2,0.5-0.3
		c0-0.2-0.2-0.3-0.5-0.3C196.8,174,196.6,174.2,196.6,174.4 M191.6,175l-1,0.3l0.9,0c0.5,0,1-0.1,1.1-0.3c0.1-0.2,0.2-0.3,0.1-0.3
		C192.7,174.8,192.2,174.9,191.6,175 M276,182.1c0,1.1,0.1,1.5,0.1,0.9c0.1-0.6,0.1-1.5,0-2.1C276.1,180.4,276,180.9,276,182.1
		 M284,182.8c-0.1,0.1-1.1,0.3-2.2,0.5l-1.9,0.2l2.1,0.1c1.6,0,2.1-0.1,2.3-0.5C284.4,182.5,284.4,182.4,284,182.8 M186.1,183.2
		c1.8,0.1,4.8,0.1,6.5,0c1.7-0.1,0.2-0.1-3.4-0.1C185.7,183,184.2,183.1,186.1,183.2 M177,183.5c0.6,0.1,1.6,0.1,2.2,0
		c0.6-0.1,0.1-0.1-1.1-0.1C176.9,183.4,176.4,183.4,177,183.5 M178.1,187c-2.2,0.1,0.3,0.2,5.5,0.1c5.2-0.1,9.5-0.2,9.5-0.3
		C193.3,186.6,182.9,186.8,178.1,187 M281.1,188.3c-0.3,0.2,0.3,0.3,1.3,0.2c1,0,1.8-0.2,2-0.3C284.7,187.9,281.6,188,281.1,188.3
		 M285.5,188.9c-0.6,0.5-1,0.8-0.8,0.8c0.2,0,0.8-0.4,1.3-0.8C287.3,187.8,287,187.8,285.5,188.9 M117.4,189.9
		c-1.6,10.9,11.5,18,22.9,12.3c4.6-2.3,8.6-7.1,8.5-10c-0.1-1.1,0-1.4,0.3-1.3c0.3,0.2,0.3-0.2,0.3-1l-0.1-1.2l-15.8-0.2l-15.8-0.2
		L117.4,189.9 M194.3,191.1c-3.3,3.5-2.6,5.6,2.7,8.8c2.8,1.6,4.5,1.7,5.4,0.3l0.7-1.1l-0.7-1.4c-0.5-0.9-0.7-2-0.7-3.2
		c0-2.4-0.9-3.2-4-4l-2.3-0.6L194.3,191.1 M177.6,197.6c-0.3,0.4,0.7,0.8,1.3,0.6c0.2-0.1,0.1-0.2-0.4-0.2c-0.4,0-0.7-0.2-0.6-0.4
		c0.1-0.2,0.1-0.3,0-0.3S177.7,197.4,177.6,197.6 M180.4,197.5c0.4,0.1,1,0.1,1.4,0c0.3-0.1,0-0.2-0.8-0.1S180,197.4,180.4,197.5
		 M264.1,199.6c-0.5,0.2-1.3,0.7-1.8,1.1l-0.8,0.8l0.9,1.1c0.5,0.6,0.9,1.3,0.9,1.4c0,0.3,1.9,2.2,5,4.9c3.4,3.1,7.8,0.9,6.6-3.3
		C273.5,201.2,268.4,198.3,264.1,199.6 M280.4,207c-3.5,1.5-7.1,6.6-4.7,6.6c0.6,0,1,0.4,1.5,1.5c0.4,0.8,1.7,3.2,3,5.4
		c1.2,2.2,2.3,4,2.4,4.1c0,0.1,1,0.7,2.2,1.3l2.1,1.1l1.2-2.3c1.4-2.7,3.7-4.8,6.5-5.7c2.5-0.8,2.6-1,0.9-2c-2-1.2-2.7-2.1-2.8-3.4
		c-0.1-1.3-0.3-1.5-3.7-4.1C284.7,206.4,283,205.9,280.4,207 M169.6,210.4c-0.3,0.4-0.3,0.7,0.3,1.6l0.8,1.1l0.5-1.1
		c0.3-0.6,0.6-1.3,0.8-1.6c0.3-0.4,0.1-0.5-0.8-0.5C170.5,209.9,169.8,210.1,169.6,210.4 M173,211.1c-1,1.7-1.4,6.8-0.4,5.9
		c0.1-0.1,0.7,0.3,1.4,1c4.8,4.5,8.4,4,8.8-1.4c0.3-3.2-0.5-4.2-3.6-5.2C174.6,209.9,173.8,209.8,173,211.1 M107.4,211.1
		c-0.6,1.3-0.5,1.5,0.2,0.4c0.3-0.5,0.5-1,0.4-1.1C107.9,210.3,107.6,210.6,107.4,211.1 M106.7,212.9c0,0.2,0.6,0.9,1.3,1.5l1.3,1.2
		l-1.2-1.4c-0.7-0.8-1.2-1.4-1.3-1.5C106.7,212.6,106.7,212.7,106.7,212.9 M274,215.5c0.1,0.8,0.4,1.5,0.6,1.6
		c0.2,0.1,0.3,0.3,0.3,0.4c0,0.4,2.5,4.2,3,4.5c0.2,0.1,0.4,0.4,0.4,0.6c0,0.2,0.2,0.6,0.5,0.9c0.8,0.8,0.6,0.2-0.8-2.4
		c-0.7-1.3-1.7-3.5-2.3-4.7C274.6,213.6,273.6,213.1,274,215.5 M293.7,214.5c0,0.3,0.4,0.6,0.9,0.9l0.9,0.4l-0.8-0.9
		C293.8,213.9,293.7,213.8,293.7,214.5 M115.2,218.3c0.6,0.3,1.2,0.5,1.4,0.5c0.4,0-1.5-1-2-1C114.2,217.8,114.5,218,115.2,218.3
		 M182.4,220.4c-0.5,0.6-0.8,1.2-0.6,1.2c0.4,0,1.8-1.4,1.8-1.8c0-0.2,0.2-0.2,0.4-0.1c0.2,0.2,0.3,0.1,0.2-0.2
		C183.8,219,183.5,219.1,182.4,220.4 M293.8,221.2c-0.8,0.4-2,1.3-2.7,2.1c-1.5,1.6-0.3,1,5-2.4
		C297.1,220.2,295.3,220.5,293.8,221.2 M277.6,225.8c-0.1,0.1-1.1,0.3-2.2,0.6c-6.2,1.1-13,7.6-12.4,11.8
		c0.8,4.8,6.4,10.4,12.4,12.5c8.3,2.9,16.1-2.9,16.3-12.2l0.1-2.6l-1.9-1.8c-1.1-1-2.3-2.4-2.7-3.2l-0.7-1.5l-1.8,0.2l-1.8,0.2
		l-0.9-1.7c-0.8-1.4-1.1-1.7-2.2-1.9c-0.7-0.1-1.4-0.3-1.7-0.4C277.9,225.7,277.7,225.7,277.6,225.8 M103.1,227.2
		c-0.4,0.3-0.6,0.5-0.5,0.6c0.1,0.1,0.4-0.1,0.8-0.3s0.6-0.5,0.5-0.6C103.8,226.8,103.5,226.9,103.1,227.2 M283.2,228
		c-0.1,0.2,0,0.4,0.3,0.6c0.7,0.3,1,0,0.7-0.5C284,227.6,283.5,227.6,283.2,228 M166.4,233.2l-0.8,0.7l0.9-0.6
		c0.6-0.4,1.3-0.5,2.1-0.4c0.8,0.2,1,0.1,0.4-0.1C168,232.3,167.3,232.4,166.4,233.2 M102.2,235c1.2,1.2,2.3,2.2,2.4,2.2
		s-0.8-1-2-2.2c-1.2-1.2-2.3-2.2-2.4-2.2S101,233.8,102.2,235 M143.6,237.3c-0.4,0.2,0,0.3,1.2,0.1c0.9-0.1,1.8-0.3,1.9-0.4
		C147,236.7,144.1,237,143.6,237.3 M165.1,238.3c0,0.2,0.4,0.3,0.9,0.3s0.9-0.1,0.9-0.1c0-0.1-0.4-0.2-0.9-0.3
		S165.1,238.2,165.1,238.3 M106,239.1c0,0.1,0.5,0.6,1.1,1.1l1.1,1l-1-1.1C106.3,239.1,106,238.8,106,239.1 M132.6,243.6
		c-0.6,0.3-0.7,0.5-0.3,0.5c0.3,0,0.7-0.2,1-0.5C133.9,243,133.7,243,132.6,243.6 M177.8,244.2c-0.7,0.3-2.1,0.8-3.2,1.2
		c-9.2,3.3-10.2,11.8-2.3,19.1c2.1,2,2.9,2.3,5.7,2.7c1.3,0.2,3.4,0.8,4.6,1.3c6.9,3,14.3-1.4,14.3-8.5
		C196.9,250.9,185.3,241.4,177.8,244.2 M233.5,246.8c-2,0.4-3.9,1.1-2.1,0.9c0.6-0.1,2-0.2,3-0.2c1.3,0,1.8-0.1,1.7-0.4
		C236,246.6,235.4,246.5,233.5,246.8 M238.7,247.3c0.3,0.8,1.8,1.4,2.8,1.2c1.3-0.3,1.1-0.8-0.4-1.2
		C239.4,246.7,238.5,246.7,238.7,247.3 M243.5,248.6c-1.1,0.5-1,0.6,1.9,2.5c3,2,3.5,2.1,3.5,1.3C248.9,251,244.8,248.1,243.5,248.6
		 M231.2,249.6c-1.5,0.3-1.9,0.6-2.8,1.7c-1.2,1.6-2.8,2.9-4.4,3.4c-0.7,0.2-1.4,0.8-1.8,1.5c-1.3,2.1-2,3.5-2.2,4.4
		c-0.1,0.5-0.3,1.2-0.4,1.5c-0.1,0.3,0.4-0.5,1.1-1.9c1.3-2.5,3.1-4.5,4.1-4.5c0.7,0,0.6,0.8-0.2,1.3c-1.7,1-3.9,7.4-3.9,11
		c0,16.4,27.2,16.7,31,0.3c0.2-0.8,0.5-1.9,0.7-2.3c0.2-0.5,0.2-1.3,0-2.4C250.5,255.1,239.9,248,231.2,249.6 M275.6,255.7
		c-0.4,0.3-0.2,0.3,0.8,0.3c0.7,0,1.3-0.2,1.3-0.3C277.6,255.3,276.2,255.3,275.6,255.7 M123.2,257.4c0,1,0.1,1.5,0.1,0.9
		c0.1-0.5,0.1-1.4,0-1.9C123.2,256,123.2,256.4,123.2,257.4 M253.1,257.8c-0.4,0.2-0.7,0.5-0.6,0.6c0.1,0.2,0.4,0.7,0.6,1.3l0.4,1
		l0.8-1.3C255.3,257.5,254.9,257,253.1,257.8 M256.5,258c-0.1,0.3-0.6,1.4-1,2.5l-0.8,1.9l2.3,2.2c2.5,2.3,5.3,4.1,6.6,4.2
		c2,0.2,2.2,0,2.7-1.6c0.2-0.9,0.7-2.1,1-2.9c1.1-2.3-0.4-4.2-4.9-5.9C259.5,257.3,256.8,257.1,256.5,258 M269.4,261
		c0,0.1,0.5,0.6,1.1,1.1l1.1,1l-1-1.1C269.7,260.9,269.4,260.7,269.4,261 M197.4,265.6c-0.4,0.7-0.7,1.4-0.6,1.5
		c0.2,0.2,1.5-2.2,1.4-2.6C198.2,264.4,197.8,264.9,197.4,265.6 M194.4,269.9c-3.4,1.2-5.8,3.6-4.6,4.6c0.3,0.2,0.5,1.3,0.5,2.8
		c0.1,3.1,0.3,3.6,2.3,5.5l1.7,1.5l3.4,0.1c7.8,0.2,10.1-0.6,12-4.3C212.8,274.1,202.3,267.1,194.4,269.9 M144.5,270.2
		c0.3,0.3,0.5,0.3,0.8,0c0.3-0.3,0.2-0.4-0.4-0.4S144.2,269.8,144.5,270.2 M185.5,274.6c-1.1,1.3-1.2,3-0.2,4.6
		c0.8,1.3,1.5,1.5,1.2,0.5c-0.1-0.4-0.3-1-0.4-1.3c-0.2-0.6,0.2-3,0.7-4.3C187.2,273.2,186.5,273.4,185.5,274.6 M187.9,276.3
		c-0.4,1.1-0.3,3.3,0.1,3.3c0.2,0,0.4-0.8,0.4-1.9C188.5,276.1,188.2,275.3,187.9,276.3 M212,277.8c0,0.8-0.1,1.8-0.2,2.1
		c-0.4,1.1,0.5,0.2,1.1-1c0.5-1,0.5-1.3,0.1-1.9C212.2,275.9,212,276.1,212,277.8"/>
	<path id="path2" class="st2" d="M198.9,53.5c-1.7,0.5-4.1,2.6-4.7,4c-0.8,2-0.8,2.5-0.1,1.4c1.4-2.3,5.9-5.3,7.8-5.3
		c0.3,0,0.5-0.2,0.5-0.3C202.4,52.9,200.8,52.9,198.9,53.5 M200.5,56.1c-4.2,1.6-8,8.1-5.8,9.9c0.4,0.3,0.4,0.1,0.3-1.3
		c-0.2-2,0.7-4.2,1.5-3.9c0.3,0.1,0.4,0.4,0.3,0.9c-1.4,4.5,4.5,10.8,10.1,10.8c5,0,10.8-5.5,10.1-9.5
		C216.1,57.8,206.4,53.8,200.5,56.1 M240.3,74.9c-1.6,0.2-3.8,1.2-5,2.3c-0.8,0.7-0.8,2.6,0.2,8.6c0.2,1.2,0.4,3.1,0.6,4.2
		c0.3,2.6,0.3,2.6,6.4,1.2c2.9-0.7,5.8-1.3,6.5-1.4c3.3-0.5,3.6-2.4,1.4-8c-0.7-1.7-1.2-3.3-1.2-3.5c0-0.6-3.1-2.9-4.5-3.3
		C243.5,74.5,242.7,74.5,240.3,74.9 M238.4,77.2c0.4,0.1,0.5,0.3,0.3,0.5c-0.2,0.1-0.6,0-1-0.3C237.1,76.9,237.4,76.8,238.4,77.2
		 M216.4,114.8c0,0.1,0.6,0.7,1.3,1.3l1.3,1l-1.2-1.3C216.6,114.5,216.4,114.3,216.4,114.8 M282.6,119c2.6,0.8,3.2,0.8,1.2,0
		c-0.8-0.4-1.9-0.6-2.4-0.6C280.9,118.3,281.3,118.6,282.6,119 M278,120.4c-1.1,1.3-3.2,7.3-2.9,8.1c0.4,1.1,2.8,2.3,7.7,3.9
		l3.7,1.2l0.4-1.7c0.2-0.9,0.8-2.8,1.4-4.1c1.3-3,1.3-3.3,0.1-4.4c-1.5-1.4-2.3-1.7-9.2-3.2C278.7,120.1,278.2,120.2,278,120.4
		 M273.3,128.7c-0.7,1.9,2.1,4.6,4.5,4.3l1-0.1l-1.4-0.7c-1.4-0.8-2.9-2.2-3.5-3.4C273.6,128.1,273.5,128.1,273.3,128.7
		 M288.1,131.5c-0.6,1.3-0.7,1.9-0.3,1.9c0.3,0,1.2-2.7,1-2.9C288.7,130.3,288.4,130.8,288.1,131.5 M218.6,135.2
		c1.8,1.3,1.5,2.4-4.5,14.1c-4,7.9-5.3,10.6-9.6,20.7c-0.8,2-1.9,4.4-2.4,5.4c-0.5,1-0.8,1.9-0.8,2c0,0.1-0.6,1.4-1.4,3
		c-0.8,1.6-1.2,2.6-0.9,2.3c0.4-0.4,6.4-12,6.4-12.4c0-0.1,0.8-1.8,1.7-3.9c6-12.9,10.8-22.3,12.5-25.1c3.3-5,3.3-6.3,0.3-6.4
		C218.5,134.8,218.2,134.8,218.6,135.2 M215.7,136.3c-3.4,1.2-9,6.8-16.1,16.1c-8.1,10.7-10.4,13.6-10.6,13.8
		c-0.1,0.1-1.3,1.6-2.6,3.4c-1.3,1.8-2.5,3.4-2.7,3.6c-0.2,0.2-1.2,1.5-2.2,2.9c-1,1.4-2.8,3.5-3.8,4.8c-1.1,1.3-2,2.4-2,2.4
		c0,0.1,1.9,0,4.2-0.1c2.3-0.1,6.8-0.2,10.1-0.3c5.8,0,5.9,0,6.1-0.8c0.1-0.4,0.7-1.7,1.2-2.8c0.5-1.1,1.9-4.2,3-6.8
		c3.6-8.3,7-15.6,9.5-20c3.6-6.5,3.7-6.7,6.3-10.7C219.2,136.9,219.1,135.1,215.7,136.3 M204.4,141.3c-2.6,2.4-8.2,8.8-9.8,11.2
		c-0.5,0.7-0.9,1.3-1,1.4c-0.6,0.6-6.9,9.4-6.9,9.7c0,0.1-0.6,1-1.2,1.9c-2.5,3.5-0.9,1.8,2.2-2.2c11.5-15.2,16.5-21.4,19.3-23.9
		c0.4-0.3,0.5-0.6,0.4-0.6C207.1,138.8,205.8,139.9,204.4,141.3 M238.5,148.7c-1.3,0.3-3.5,1.3-4,1.7c-0.2,0.2-1.7,1.3-3.2,2.4
		c-9.5,7.1-14.4,15.9-10.1,18.1c1.3,0.6,4.5,0.4,4.5-0.4c0-0.1,0.4-0.5,0.9-0.8c0.5-0.3,1.6-0.8,2.3-1.2c0.7-0.4,1.6-0.7,2-0.7
		c0.3,0,0.6-0.1,0.6-0.3c0-0.3,3.5-1.6,5.3-1.8c2.5-0.4,6.6,1.4,10.3,4.5c1.1,0.9,2.1,1.5,2.6,1.5h0.9l-1.1-1.8
		c-0.6-1-2.5-3.2-4.3-5c-5-5-5.4-6.6-2.8-10.9C244.7,150.4,242.6,147.6,238.5,148.7 M203.4,150.1c-0.2,0.4-0.5,0.6-0.7,0.5
		c-0.2-0.1-0.2-0.4,0.1-0.7C203.4,149.2,203.8,149.3,203.4,150.1 M306.1,149.8c-1.4,2.2,0.9,18.5,4,29l1.5,5l4.7,0.1
		c5.7,0.1,5.6,0.5,2.1-5.3c-4.8-7.9-7.4-14-9-21c-1.8-7.8-1.9-8-2.5-8.1C306.6,149.4,306.3,149.6,306.1,149.8 M101.7,154.6
		c-1,1.1-0.8,1,1-0.4c0.6-0.4,0.8-0.7,0.5-0.7C102.9,153.5,102.2,154,101.7,154.6 M310.4,154.4c0,2,5.1,15.7,5.7,15.1
		c0.2-0.2-0.5-2.5-1-3.9c-0.2-0.6-0.8-1.9-1.1-3.1C312.4,158,310.4,153.4,310.4,154.4 M103.7,155.1c-2.6,1.3-3.7,5.5-2.1,8.1
		c3.7,5.9,10.3,4.6,9.8-1.9C111,157.1,106.7,153.6,103.7,155.1 M242.9,156.1c-1.2,1.8-0.8,3.4,1.2,5.3c1.2,1.1,1.4,1.3,0.8,0.5
		c-1.7-2.1-2.3-4.1-1.6-5.4C244,155.2,243.7,154.9,242.9,156.1 M103.4,156.9c-0.1,0.2-0.5,0.4-0.8,0.4c-0.5,0-0.5-0.1,0.1-0.5
		C103.5,156.3,103.8,156.3,103.4,156.9 M202.9,157.7c1,1,0.4,1.6-1.6,1.4c-2.3-0.2-2.9-0.5-2.6-1.2
		C198.9,157.5,202.6,157.4,202.9,157.7 M112.9,160.8c0,2.2,0.1,2.3,0.6,1.1c0.2-0.6,0.2-1.2-0.1-2
		C112.9,158.8,112.9,158.8,112.9,160.8 M242.2,164.9c-0.1,0.3,0.1,0.5,0.6,0.7c0.4,0.1,0.7,0.3,0.6,0.4c-0.3,0.3-1.6-0.5-1.6-1.1
		c0-0.3,0.1-0.5,0.3-0.5C242.2,164.4,242.3,164.7,242.2,164.9 M229.9,166.5c0.4,0.2,0.5,0.3,0.2,0.3c-0.3,0-0.8-0.1-1.2-0.3
		c-0.4-0.2-0.5-0.3-0.2-0.3C229,166.2,229.5,166.3,229.9,166.5 M192,169.5c0.1,0.7,0.5,1.6,0.8,2.1c0.4,0.7,0.4,0.9,0.1,1.1
		c-0.7,0.4-1.3,0.4-1.3-0.2c0-0.3-0.3-1.3-0.7-2.3c-0.6-1.4-0.7-1.8-0.3-2.1C191.2,167.7,191.7,168.2,192,169.5 M217.8,169.7
		c0,2.2,2.2,4.2,3.6,3.4c0.6-0.3,0.6-0.4-0.1-0.4c-0.8,0-2.7-1.8-3.2-3.1l-0.3-0.9L217.8,169.7 M197.6,174.4c0,0.2-0.2,0.3-0.5,0.3
		c-0.3,0-0.5-0.2-0.5-0.3c0-0.2,0.2-0.3,0.5-0.3C197.4,174,197.6,174.2,197.6,174.4 M192.6,175c-0.1,0.2-0.6,0.3-1.1,0.3l-0.9,0
		l1-0.3c0.6-0.1,1.1-0.3,1.1-0.3C192.8,174.7,192.8,174.9,192.6,175 M275.5,177.4c-1,1.1-1.7,3.2-1.4,4.3c0.2,1,0.2,1,0.7-0.6
		c0.2-0.9,0.7-2.2,1.1-2.8C276.8,176.6,276.6,176.1,275.5,177.4 M277.2,176.9c-0.1,0.1-0.1,0.5,0.1,0.7c0.3,0.3,0.2,0.7-0.3,1.4
		c-0.6,0.7-0.7,1.4-0.7,3.1v2.2h5.2h5.2l-0.2-1.1c-0.7-3.2-3.6-5.9-7-6.3C278.3,176.8,277.3,176.8,277.2,176.9 M284.2,183.1
		c-0.1,0.4-0.7,0.5-2.3,0.5l-2.1-0.1l1.9-0.2c1.1-0.1,2.1-0.3,2.2-0.5C284.4,182.4,284.4,182.5,284.2,183.1 M193.1,186.8
		c-0.1,0.1-4.4,0.3-9.5,0.4c-10.8,0.3-9.9-0.1-9.9,4.4c0.2,11.3,11.7,9.4,19-3.1C193.4,187.2,193.7,186.3,193.1,186.8 M312.8,187.8
		c-0.5,0.6,2.6,1.6,4.2,1.3c1.4-0.3,3-1.1,3-1.5C320,187.1,313.3,187.3,312.8,187.8 M321.1,188.5c-0.6,0.7-1,1.2-0.9,1.2
		c0.4,0,2.5-1.8,2.5-2.1C322.7,187.1,322.2,187.4,321.1,188.5 M286.3,188.8c-1.7,1.7-6,1.8-7.8,0.3c-0.6-0.5-0.6,0-0.1,0.7
		c2,2.4,6.9,2,9.1-0.7C288.5,187.8,287.5,187.6,286.3,188.8 M148.8,192c0,0.8,0.1,1,0.2,0.6s0.1-1,0-1.4
		C148.9,190.9,148.8,191.2,148.8,192 M177.9,197.6c-0.1,0.2,0.1,0.4,0.6,0.4c0.4,0,0.6,0.1,0.4,0.2c-0.6,0.2-1.5-0.2-1.3-0.6
		c0.1-0.2,0.3-0.3,0.4-0.3S178.1,197.4,177.9,197.6 M181.8,197.5c-0.3,0.1-0.9,0.1-1.4,0c-0.4-0.1-0.2-0.2,0.6-0.2
		S182.1,197.4,181.8,197.5 M261.5,202.1c0,0.3,0.2,0.6,0.4,0.6c0.2,0,0.3,0.2,0.1,0.4c-0.1,0.2-0.1,0.3,0.1,0.2
		c0.2-0.1,0.5,0,0.7,0.4c0.2,0.3,0.4,0.5,0.4,0.3c0-0.2-0.4-0.8-0.8-1.4C261.7,201.8,261.5,201.7,261.5,202.1 M195.3,203.8
		c-0.9,0.4-4.7,3.3-6.6,5l-1.2,1.2l0.8,1.5c0.7,1.3,1,1.5,1.6,1.3c1-0.2,3.1,2.1,6.2,6.7c3.1,4.6,2.7,4.7,9-0.6c5-4.2,5-4.3-1.4-9.7
		c-2.1-1.8-3.8-3.3-3.8-3.5C200,204.7,196.6,203.2,195.3,203.8 M110.5,206.6c-1,0.4-1.3,0.7-2.3,3.4l-1.2,3l1.2,1.3
		c0.6,0.7,1.3,1.5,1.5,1.8c0.3,0.5,3.6,1.7,4.8,1.7c0.4,0,1.1,0.3,1.7,0.6c1.2,0.7,2.2,0.6,2.2-0.3c0-0.4,0.4-1.7,0.8-2.9
		c0.8-2.2,0.8-2.3,0.3-3.8c-0.5-1.4-2.2-4.3-2.2-3.8c0,0.1-0.4,0.1-0.9-0.1C114,206.6,111.6,206.3,110.5,206.6 M106,207.7
		c-0.8,2-0.4,2.8,0.5,1.2c1-1.8,1-2.1,0.3-2.1C106.5,206.8,106.2,207.2,106,207.7 M121.3,222.3c-2,0.5-4.1,6.4-2.3,6.4
		c0.6,0,0.6,0.2,0.5,1.1c-1.1,7.4-0.2,13.6,2.1,13.6c6.3,0,11.5-2.2,10.9-4.6c-0.1-0.5,0.1-0.9,0.9-1.3l1.1-0.6l-1.2-1.1
		c-2-1.9-2.1-4.9-0.2-8.4c1.3-2.4,1.2-3.4-0.5-4.1C130.2,222,124.1,221.6,121.3,222.3 M103.2,226.5c-0.8,0.6-2.1,1.3-2.8,1.4
		c-2.9,0.5-1.9,2.9,3.4,8.6c5.7,6,9.4,10.9,11.8,15.5c1.1,2.1,4.9,6.4,5.3,6c0.2-0.2-3-9.6-4.7-13.9c-1.3-3.2-2.1-4.7-6.9-13.5
		c-1.4-2.6-2.6-4.9-2.6-5C106.7,224.9,104.7,225.4,103.2,226.5 M103.4,227.5c-0.4,0.3-0.7,0.4-0.8,0.3c-0.1-0.1,0.1-0.4,0.5-0.6
		s0.7-0.4,0.8-0.3C104,226.9,103.8,227.2,103.4,227.5 M96.2,227.7l-0.7,0.7l0.9,1.4l0.9,1.4l0.2-1.7
		C97.7,227.4,97.2,226.7,96.2,227.7 M133.2,230.4c-0.7,1.8-0.5,3.4,0.5,4.3c0.4,0.3,0.7,0.5,0.7,0.3c0.1-0.9-0.1-3.9-0.3-4.9
		l-0.2-1.2L133.2,230.4 M166.2,230.1c0.7,0.3,0.7,0.3-0.4,0.2c-0.7-0.1-1.5,0-2,0.3l-0.8,0.4l0.8,1c0.9,1,1.3,0.9,3-0.4
		c0.5-0.4,0.7-0.4,0.9,0c0.3,0.4,0.4,0.4,0.6,0c0.2-0.3,0.5-0.4,0.7-0.2c0.2,0.1,0.1-0.1-0.2-0.6c-0.5-0.8-0.9-0.9-2.2-0.9
		C165.5,229.8,165.4,229.9,166.2,230.1 M161.5,233.7c-0.3,1.2,0.5,2.8,1.1,2.1c0.8-0.9,0.8-1.6,0-2.5l-0.8-1L161.5,233.7
		 M166.5,233.4c-0.5,0.3-0.9,0.6-0.9,0.6c0,0,0.2,0.7,0.6,1.5c0.9,2,0.9,3.2-0.1,3.2c-0.6,0-0.9-0.3-1.2-1.2c-0.5-1.2-1.3-1.7-1-0.5
		c0.1,0.4,0,0.7-0.2,0.8c-0.4,0.1,0.5,3.5,1.2,4.4c3.8,4.9,9.5,3.5,9.5-2.4C174.4,235.7,169.2,231.5,166.5,233.4 M144.6,236.5
		c-5.6,1.1-8.4,2.3-8.7,3.9c-0.3,1.5-2.7,3.8-4,3.8c-2.1,0-5.3,6.7-4.9,10.2c1.3,11.2,11.5,18.2,22.9,15.8c4.4-0.9,11-7.3,11.6-11.1
		c0.1-0.4,0.3-1.8,0.5-3.1c0.8-5.2-0.4-10.5-3.3-14.1c-2.2-2.7-6.5-5-7.9-4.2c-0.5,0.2-0.8,0.3-0.9,0c-0.1-0.2,0.1-0.4,0.4-0.4
		c1,0-1.2-0.6-3.1-0.8C146.3,236.4,145.1,236.4,144.6,236.5 M146.6,237.1c-0.1,0.1-0.9,0.2-1.9,0.4c-1.2,0.2-1.6,0.1-1.2-0.1
		C144.1,237,147,236.7,146.6,237.1 M103.1,239.7c0.9,1.2,2.2,2.1,1.4,0.9c-0.3-0.4-0.9-1-1.3-1.3l-0.8-0.5L103.1,239.7 M134.2,239.9
		c-0.2,0.1-0.7,0.7-1.2,1.2c-1.1,1.3,0,1.3,1.2,0C135.3,240,135.3,239.1,134.2,239.9 M256.1,246.8c-2.3,2.8-4.7,5.6-5.4,6.3
		l-1.2,1.3l1,1.1c0.5,0.6,1,1.1,1.2,1.1c2.2-0.2,3.7-0.7,4.4-1.5l0.7-0.9l2.5,0.6c1.4,0.3,3.7,0.7,5.1,0.8l2.6,0.2l0.9-1.8l0.9-1.8
		l-1.1-1.3c-0.6-0.7-1.9-2.2-3-3.3c-1-1.1-2.4-2.9-3.1-4l-1.3-2L256.1,246.8 M288,247.9l-1,1.1l1.1-1c1-0.9,1.3-1.2,1-1.2
		C289.1,246.8,288.6,247.3,288,247.9 M269.3,250.7c0.1,0.3,0.4,0.5,0.5,0.5c0.4,0,0.2-0.8-0.3-0.9
		C269.2,250.3,269.1,250.4,269.3,250.7 M121.9,251.1c0.8,2.1,1.6,5.5,1.5,6.9c-0.1,1.6,0.4,2.1,1.5,1.6c0.4-0.2,0.5-0.4,0.2-1.1
		c-0.2-0.5-0.3-1.3-0.3-1.9c0-1.1-2.1-5.6-2.8-6C121.7,250.6,121.7,250.7,121.9,251.1 M271,252.1c-0.3,0.3-0.7,1-0.7,1.7
		c-0.1,0.8-0.5,1.6-1.1,2.3c-2.2,2.3,1.7,7.8,5.6,7.8c5.1,0,5.7-9.1,0.7-10.6c-0.8-0.2-2-0.7-2.7-1
		C271.8,251.8,271.5,251.8,271,252.1 M277.6,255.7c0,0.1-0.6,0.3-1.3,0.3c-1,0.1-1.2,0-0.8-0.3C276.2,255.3,277.6,255.3,277.6,255.7
		 M255.7,263.8c0.6,0.7,1.2,1.2,1.3,1.2s-0.4-0.5-1-1.2c-0.6-0.7-1.2-1.2-1.3-1.2C254.6,262.6,255.1,263.1,255.7,263.8 M145.4,270.2
		c-0.3,0.3-0.5,0.3-0.8,0s-0.2-0.4,0.4-0.4S145.7,269.8,145.4,270.2 M184.4,276.9c0,0.7,0.1,0.9,0.2,0.6s0.1-0.9,0-1.2
		C184.4,276,184.4,276.3,184.4,276.9 M185.3,279.6c0.2,0.4,0.6,0.9,0.8,1c0.7,0.4,0.5,0-0.3-0.9
		C184.9,278.9,184.9,278.9,185.3,279.6 M197.7,284.7c0.9,0.1,2.3,0.1,3.1,0c0.8-0.1,0.1-0.1-1.6-0.1
		C197.5,284.6,196.8,284.6,197.7,284.7"/>
	<path id="path4" class="st3" d="M194.9,42.1c0.1,2.3,0.2,2.5,0.9,2.5c0.7,0,0.7,0,0.1-0.1c-0.7-0.1-0.7-0.4-0.6-2.5
		c0.1-1.3,0-2.4-0.2-2.4C195,39.7,194.9,40.8,194.9,42.1 M150,53.7c-0.8,0.7-0.8,0.7-0.1,1.3c0.4,0.3,0.5,0.4,0.3,0.1
		c-0.9-1,0.5-2.2,1.6-1.3c0.5,0.4,0.5,0.4,0.1-0.1C151.2,52.8,151,52.8,150,53.7 M206.9,53.7c0.9,0.2,2,0.4,2.4,0.5
		c0.7,0.2,0.7,0.2,0.2-0.2c-0.3-0.2-1.4-0.4-2.4-0.5l-1.8-0.1L206.9,53.7 M105.5,55.6c-0.1,0.1-0.2,0.4-0.2,0.6
		c0,0.2,0.1,0.2,0.3-0.1c0.5-0.8,1.5-0.2,1.2,0.7c-0.2,0.7-0.2,0.7,0.2,0.2C107.6,56,106.3,54.8,105.5,55.6 M152.5,58.2
		c0,0.1,0.5,0.6,1.1,1.1l1.1,1l-1-1.1C152.8,58.2,152.5,58,152.5,58.2 M156.6,59.7c0.4,0.6,0.9,1.1,0.9,1.1c0.3,0-0.6-1.3-1.1-1.7
		C156,58.8,156.1,59.1,156.6,59.7 M155.9,62c1.4,1.5,1.7,1.8,1.7,1.5c0-0.1-0.7-0.8-1.6-1.6l-1.6-1.5L155.9,62 M309.9,65.1
		c0.6,0.3,1.1,0.4,1.3,0.3c0.2-0.2,0-0.3-0.3-0.3c-0.3,0-0.9-0.1-1.3-0.3C309.2,64.7,309.3,64.8,309.9,65.1 M192.8,65.5
		c0,0.4,1.3,2.5,1.5,2.5c0.1,0-0.2-0.6-0.6-1.3C192.9,65.2,192.8,65.1,192.8,65.5 M242,73.1c0.6,0.1,1.5,0.1,2.1,0
		c0.5-0.1,0-0.1-1.1-0.1C241.8,72.9,241.4,73,242,73.1 M247.7,73.9c0.4,0.2,1.1,0.7,1.6,1.1c0.5,0.4,0.4,0.2-0.3-0.4
		c-0.6-0.6-1.3-1.1-1.6-1.1C247.2,73.5,247.3,73.7,247.7,73.9 M205.9,74.4c0.5,0.1,1.3,0.1,1.7,0c0.4-0.1,0-0.1-0.9-0.1
		C205.7,74.3,205.4,74.4,205.9,74.4 M243.9,74.4c0.5,0.1,1.3,0.1,1.7,0c0.4-0.1,0-0.1-0.9-0.1C243.7,74.3,243.3,74.4,243.9,74.4
		 M232.9,80.9c0,1.3,0.1,1.8,0.1,1.1c0.1-0.7,0.1-1.8,0-2.4C233,79,232.9,79.5,232.9,80.9 M233.7,88.8c0.1,0.8,0.3,1.7,0.6,1.9
		c0.3,0.3,0.4,0.3,0.2,0c-0.1-0.2-0.4-1.1-0.6-1.9l-0.3-1.5L233.7,88.8 M96.6,88.7c-0.3,0.5-0.5,1.3-0.4,2l0.1,1.1l0.1-1.2
		c0-0.7,0.4-1.5,0.8-2c0.4-0.4,0.6-0.8,0.4-0.8C97.3,87.9,96.9,88.3,96.6,88.7 M98.1,89.2c-1.1,0.3-1.3,1.7-0.5,2.9
		c0.3,0.5,0.5,1,0.5,1.1c-0.1,0.2,1.1,1.4,2.5,2.9c2.9,2.8,7.6,9.8,11.9,17.4c2.6,4.6,4.8,7.6,5.3,7.1c0.4-0.4-0.8-8.1-1.6-10.6
		c-2.5-7.4-10.3-18.3-14.5-20.3C99.9,88.9,99.5,88.8,98.1,89.2 M105.9,90.1c6.3,5.1,12.6,17.8,13.1,26.1l0.2,4l0.6-1.1
		c1-1.8-1-11.4-3.3-16.3c-0.3-0.6-1.1-2.4-1.9-4c-1.6-3.5-4.8-7-7.9-8.6l-1.9-1L105.9,90.1 M193.6,90.4c-0.1,0.3-0.1,0.6,0,0.7
		c0.1,0.1,0.2,0,0.2-0.3c0-0.3,0.3-0.6,0.6-0.7c0.6-0.1,0.6-0.2,0-0.2C194.1,89.9,193.7,90.2,193.6,90.4 M333.9,103.1
		c-1.3,0.7-1.2,1,0.1,0.3c0.6-0.3,1-0.6,1-0.7C335,102.5,335,102.5,333.9,103.1 M338.1,103.4c-0.5,0.3-0.7,0.5-0.5,0.5
		c0.2,0,0.7-0.2,1.2-0.5c0.5-0.3,0.7-0.5,0.5-0.5C339.1,102.9,338.6,103.2,338.1,103.4 M131.1,108c0.7,0.8,1.4,1.4,1.5,1.4
		c0.1,0-0.4-0.6-1.2-1.4c-0.7-0.8-1.4-1.4-1.5-1.4C129.9,106.7,130.4,107.3,131.1,108 M218.9,107.3c0.5,0.1,1.4,0.1,1.9,0
		c0.5-0.1,0.1-0.1-0.9-0.1C218.8,107.1,218.4,107.2,218.9,107.3 M219,108.9c0.9,0.3,3.6,0.4,3.2,0.1c-0.3-0.2-1.2-0.3-2-0.3
		C219.3,108.8,218.8,108.8,219,108.9 M258.5,110.5c0,0.1,0.5,0.6,1.1,1.1l1.1,1l-1-1.1C258.7,110.5,258.5,110.3,258.5,110.5
		 M108,111.2c0,0.6,2.1,4.3,2.9,4.9c0.7,0.6,0.7,0.6,0.2-0.1c-0.3-0.4-1.1-1.7-1.8-2.9C108.6,111.9,108,111.1,108,111.2 M213.5,112
		c-0.1,0.3-0.2,0.8-0.2,1.1c0,0.3,0.2,0.1,0.3-0.4C214,111.6,213.9,111.1,213.5,112 M183.5,114.1c0.4,0.1,1.1,0.1,1.5,0
		c0.4-0.1,0.1-0.1-0.8-0.1C183.4,113.9,183.1,114,183.5,114.1 M179,115.5c0.6,0.1,0.6,0.2-0.2,0.8c-0.5,0.4-0.6,0.6-0.3,0.5
		c0.8-0.3,6.8,11.3,6.8,13.2c0,0.7,0.5,0.3,1.3-0.8c0.8-1.1,4.2-4.5,7.2-7.1c3.6-3.1,0.9-5.2-7.8-6c-2.9-0.3-5.8-0.5-6.5-0.6
		C178.8,115.4,178.6,115.4,179,115.5 M217.1,118.1c0.6,0.7,1.2,1.2,1.3,1.2c0.1,0-0.4-0.5-1-1.2c-0.6-0.7-1.2-1.2-1.3-1.2
		C216,116.9,216.5,117.5,217.1,118.1 M178.3,119.3c0.1,0.5,0.4,1,0.5,1.2c0.5,0.5,0.3-0.2-0.2-1.2l-0.5-0.9L178.3,119.3
		 M228.1,119.8l-0.8,1.1l1-0.9c0.5-0.5,0.9-1,0.8-1.1C229,118.8,228.5,119.2,228.1,119.8 M147.8,120.8c-0.1,0.2-0.3,2.1-0.3,4.2
		l-0.1,3.8l0.2-3.8c0.1-2.1,0.4-4,0.5-4.2s0.2-0.4,0.1-0.4C148.2,120.3,148,120.5,147.8,120.8 M75,121.3c1.1,1.1,3.3,2.9,2.6,2
		c-0.5-0.5-1.3-1.3-1.9-1.7C75.2,121.2,74.9,121.1,75,121.3 M179.2,121.2c0,0.2,0.4,1,0.8,1.9c0.5,0.8,0.8,1.4,0.8,1.2
		c0-0.2-0.4-1-0.8-1.9S179.2,121,179.2,121.2 M273.9,125.4c-0.2,0.7-0.4,1.7-0.3,2.2c0,0.5,0.2-0.1,0.5-1.2
		C274.5,124,274.4,123.4,273.9,125.4 M77.3,126c0.6,0.7,1.2,1.2,1.3,1.2s-0.4-0.5-1-1.2c-0.6-0.7-1.2-1.2-1.3-1.2
		S76.6,125.3,77.3,126 M191.6,126.7c-3,2.3-5.3,4.5-5.3,5.2c0,0.4-0.2,0.7-0.4,0.8c-0.3,0.1-0.3,0.2,0,0.2c0.3,0,0.5-0.2,0.6-0.6
		c0.1-0.3,1-1.3,2-2.1c1.8-1.5,5.6-5.2,5.3-5.1C193.7,125.2,192.8,125.9,191.6,126.7 M81,127.2c0.4,0.6,0.6,1.2,0.5,1.5
		c-0.2,0.3-0.1,0.3,0.2,0c0.4-0.4-0.7-2.5-1.2-2.5C80.4,126.2,80.6,126.6,81,127.2 M79,127.3c0,0.1,0.5,0.6,1.1,1.1l1.1,1l-1-1.1
		C79.3,127.3,79,127,79,127.3 M183.8,130.9c0.2,0.3,0.4,0.8,0.4,1.3c0,0.5,0.2,0.8,0.6,0.8c0.4,0,0.4-0.1,0.2-0.2
		c-0.2-0.1-0.4-0.4-0.4-0.8c0-0.3-0.3-0.8-0.6-1.1C183.5,130.5,183.5,130.5,183.8,130.9 M147.2,133.7c0.1,0.5,0.4,1.1,0.5,1.4
		c0.2,0.4,0.2,0.3,0.1-0.3c-0.1-0.5-0.4-1.1-0.5-1.4C147.1,133,147,133.1,147.2,133.7 M132.4,134.8c0.7,1.2,0.7,1.4,0,1.1
		c-0.5-0.2-0.5-0.1-0.2,0.2c1,1,1.4-0.2,0.4-1.4l-0.7-0.9L132.4,134.8 M176.7,135.1c0.4,0.5,0.3,0.7-0.4,1.5l-0.8,0.9l1-0.9
		c1-0.9,1-1,0.4-1.5C176.3,134.6,176.3,134.6,176.7,135.1 M211.5,135.9c-1.3,0.7-1.2,1,0.2,0.3c1.3-0.7,1.5-0.8,1.1-0.8
		C212.6,135.4,212.1,135.6,211.5,135.9 M262.6,135.5c0.1,0.1,0.6,0.4,1.2,0.7l1,0.6l-0.8-0.7c-0.4-0.4-1-0.7-1.2-0.7
		C262.6,135.4,262.5,135.4,262.6,135.5 M256.3,136.4c-2.2,1.3,1.9,7,5.5,7.8c5.1,1.1,6.8-2.1,3.1-5.7
		C262.7,136.5,258.2,135.4,256.3,136.4 M137.3,137.6c0.9,0.4,3,0.8,2.7,0.5c-0.2-0.2-0.9-0.4-1.7-0.5
		C137.5,137.5,137.1,137.5,137.3,137.6 M172.5,140.5l-1,1.2l1.2-1.1c0.6-0.6,1.1-1.2,1-1.2C173.6,139.3,173.1,139.8,172.5,140.5
		 M140.2,141c0.3,0.3,3,1.6,3,1.4c0-0.2-2.6-1.6-2.9-1.6C140.2,140.9,140.1,140.9,140.2,141 M149.4,143.6c1.7,1.6,2.7,2.3,2.7,1.8
		c0-0.1-0.3-0.4-0.7-0.6c-0.4-0.2-1.3-0.9-2.1-1.5l-1.5-1.1L149.4,143.6 M256.8,143.2c2.4,3.5,8.4,4.2,10.4,1.1l0.6-0.9l-1,1
		c-2.4,2.2-6.3,1.9-9.3-0.9C256.6,142.7,256.4,142.6,256.8,143.2 M176.4,143.2c-0.6,0.2-0.2,0.2,1.2,0.2c1.2,0,2-0.2,1.9-0.3
		C179.4,142.8,177.6,142.9,176.4,143.2 M120.6,145c0.1,0.1,0.4,0.3,0.8,0.3c0.4,0,0.7-0.1,0.8-0.3c0.1-0.1-0.3-0.3-0.8-0.3
		C120.8,144.8,120.5,144.9,120.6,145 M129.4,146.1c-0.1,0.4-0.2,1.9-0.2,3.3l0.1,2.6l0.2-3.2C129.8,145.3,129.8,144.8,129.4,146.1
		 M149.6,147.4c1.1,1.1,2.1,2.1,2.2,2.1c0.1,0-0.7-0.9-1.9-2.1c-1.1-1.1-2.1-2.1-2.2-2.1C147.6,145.3,148.5,146.2,149.6,147.4
		 M153.4,146c-0.5,0.5-0.6,0.7-0.2,1.1c0.4,0.3,0.4,0.3,0.2,0c-0.2-0.3,0-0.6,0.4-0.9c0.3-0.3,0.6-0.5,0.5-0.6
		C154.1,145.5,153.7,145.7,153.4,146 M170.8,147.2c-0.9,0.4-0.9,0.5-0.2,0.3c1-0.2,2.1-0.8,1.5-0.8
		C171.9,146.7,171.3,146.9,170.8,147.2 M238.6,146.9c0.4,0.1,1,0.1,1.4,0c0.3-0.1,0-0.2-0.8-0.1
		C238.4,146.8,238.1,146.8,238.6,146.9 M154.5,148.9c0.2,0.4,0.6,1,0.9,1.4l0.6,0.7l-0.3-0.7c-0.2-0.4-0.6-1-0.9-1.4l-0.6-0.7
		L154.5,148.9 M161.7,150.3c-0.6,0.7-1.1,1.2-1,1.3c0.1,0.1,0.7-0.5,1.3-1.2C163.4,148.7,163.3,148.7,161.7,150.3 M309,150.9
		c0.3,0.7,0.6,1.1,0.7,1.1c0.2-0.2-0.9-2.2-1.1-2.2C308.5,149.7,308.6,150.3,309,150.9 M244.5,151.6c0,0.8,0.1,1,0.2,0.6
		c0.1-0.4,0.1-1,0-1.4C244.6,150.5,244.5,150.9,244.5,151.6 M156.8,152.8c0.3,0.6,0.6,1,0.7,1c0.1,0-0.1-0.5-0.4-1
		c-0.3-0.6-0.6-1-0.7-1C156.3,151.8,156.5,152.3,156.8,152.8 M226.1,154.3l-2.4,2.5L226.1,154.3c1.5-1.2,2.6-2.3,2.6-2.4
		C228.7,151.6,228.4,152,226.1,154.3 M294.5,152.4c0.5,0.6,0.6,0.9,0.2,1.4c-0.4,0.6-0.4,0.6,0.2,0c0.6-0.6,0.6-0.6-0.2-1.4
		l-0.8-0.8L294.5,152.4 M291.4,153.6l-1.4,1.5l1.5-1.4c1.4-1.3,1.6-1.6,1.4-1.6C292.8,152.1,292.2,152.8,291.4,153.6 M303.4,156.1
		c0,1.7,0.1,2.4,0.1,1.6c0.1-0.8,0.1-2.2,0-3.1C303.4,153.7,303.4,154.4,303.4,156.1 M110.6,156.3c0.7,0.9,1.4,1.5,1.5,1.4
		c0.1-0.1-0.5-0.8-1.3-1.6l-1.5-1.4L110.6,156.3 M291.1,156.5c-0.6,0.5-0.7,0.7-0.3,0.5c0.6-0.3,1.8-1.4,1.5-1.4
		C292.2,155.6,291.7,156,291.1,156.5 M156.3,158.5c0,0.2,0.2,0.9,0.5,1.5c0.3,0.7,0.5,1,0.5,0.7c0-0.3-0.2-1-0.5-1.5
		C156.5,158.6,156.3,158.3,156.3,158.5 M303.7,160.7c0,0.7,0.1,0.9,0.2,0.6s0.1-0.9,0-1.2C303.7,159.8,303.7,160,303.7,160.7
		 M99.5,161.7c0,0.5,0.2,1.1,0.3,1.3c0.2,0.4,0.3,0.2,0.1-0.7C99.7,160.9,99.5,160.6,99.5,161.7 M247.9,165.3
		c1.2,1.2,2.3,2.2,2.4,2.2s-0.8-1-2-2.2s-2.3-2.2-2.4-2.2S246.7,164.1,247.9,165.3 M160.4,164.8c0,0.7,0.1,0.9,0.2,0.6
		c0.1-0.3,0.1-0.9,0-1.2C160.5,163.9,160.4,164.1,160.4,164.8 M158.4,168.5c0,1.4,0.1,2,0.1,1.3c0.1-0.7,0.1-1.9,0-2.6
		C158.5,166.6,158.4,167.1,158.4,168.5 M217.9,167.5c0,0.8,0.1,1.2,0.1,0.8c0.1-0.4,0.1-1.1,0-1.5
		C217.9,166.3,217.9,166.7,217.9,167.5 M103.2,167.1c0.5,0.4,1,0.7,1.2,0.7c0.4,0-0.3-0.5-1.4-1
		C102.6,166.6,102.7,166.7,103.2,167.1 M160.8,170.3c0,2,0.1,2.8,0.1,1.8s0.1-2.6,0-3.6C160.9,167.5,160.8,168.3,160.8,170.3
		 M235.8,167.4c0.4,0.1,1.1,0.1,1.5,0c0.4-0.1,0.1-0.1-0.8-0.1C235.7,167.3,235.4,167.3,235.8,167.4 M183,169.1
		c-0.9,1.3-1.2,1.8-1,1.8c0.1,0,0.6-0.6,1.1-1.4C184,168,184,167.7,183,169.1 M241.4,168.7c0.4,0.3,2.4,1.2,2.4,1.1
		c0-0.2-1.9-1.2-2.3-1.2C241.4,168.5,241.3,168.6,241.4,168.7 M252,170.8c0,0.2,0.2,0.7,0.5,1.2c0.3,0.5,0.5,0.7,0.5,0.5
		s-0.2-0.7-0.5-1.2C252.2,170.8,252,170.6,252,170.8 M136.8,172.1c0.3,0.3,2.7,1.2,2.7,1c0-0.1-0.5-0.4-1.2-0.7
		C137.2,172,136.5,171.8,136.8,172.1 M158.7,173c0,0.7,0.1,0.9,0.2,0.6c0.1-0.3,0.1-0.9,0-1.2C158.8,172.1,158.7,172.3,158.7,173
		 M248.5,172.9c1.2,1,2.4,0.6,1.4-0.4c-0.3-0.3-0.3-0.3-0.2,0.2c0.3,0.7,0,0.8-1.1,0l-0.9-0.6L248.5,172.9 M317.9,173.7
		c0.4,0.8,0.8,1.4,0.9,1.4c0.1,0-0.1-0.6-0.5-1.4c-0.4-0.8-0.8-1.4-0.9-1.4S317.6,172.9,317.9,173.7 M222.7,172.9
		c0.5,0.1,1.3,0.1,1.7,0c0.4-0.1,0-0.1-0.9-0.1C222.5,172.8,222.1,172.8,222.7,172.9 M119.9,175.8l-1.8,1.8l1.9-1.7
		c1-0.9,1.9-1.7,2-1.8c0.1-0.1,0-0.1-0.1-0.1S120.9,174.8,119.9,175.8 M160.8,176.1c0,1,0.1,1.5,0.1,0.9c0.1-0.5,0.1-1.4,0-1.9
		C160.9,174.6,160.8,175,160.8,176.1 M284.1,177.2c0,0.1,0.5,0.6,1.1,1.1l1.1,1l-1-1.1C284.4,177.2,284.1,176.9,284.1,177.2
		 M147.3,179.8c0.2,0.3,0.6,0.8,0.9,1.1c0.4,0.3,0.3,0.1-0.2-0.6C147.1,179,146.8,178.8,147.3,179.8 M175.3,180.1
		c-1,1.2-1.4,1.8-1.2,1.8c0.1,0,0.6-0.5,1.1-1.2C176.1,179.5,176.2,179,175.3,180.1 M321.6,180c0.2,0.4,0.4,0.9,0.5,1.2
		c0.2,0.4,0.2,0.4,0.2,0c0-0.3-0.2-0.8-0.5-1.2C321.3,179.3,321.3,179.3,321.6,180 M286.9,180.5c0,0.1,0.2,0.9,0.5,1.7
		c0.3,0.8,0.5,1.2,0.5,0.9C287.8,182.5,286.9,180.1,286.9,180.5 M330.8,181.7c-0.1,0.7-0.2,1.3-0.1,1.4c0.1,0.1,0.3-0.4,0.4-1.1
		s0.2-1.3,0.1-1.4C331.1,180.5,330.9,181,330.8,181.7 M99.4,181.7c-1.3,0.7-1.2,1,0.1,0.3c0.6-0.3,1-0.6,1-0.7
		C100.5,181.1,100.5,181.2,99.4,181.7 M106,181.4c0.3,0.1,0.9,0.4,1.5,0.7c0.5,0.3,0.9,0.4,0.9,0.3c0-0.3-2-1.2-2.5-1.2
		C105.6,181.2,105.6,181.3,106,181.4 M173.2,182.9c-0.4,0.5-1,0.7-3,0.8l-2.5,0.1l2.6,0.1c2.4,0.1,2.6,0,3.2-0.8
		C174.1,182.1,173.9,181.9,173.2,182.9 M101.1,183.3c-0.3,0.4-0.6,1-0.6,1.2c0,0.3-0.5,0.4-1.3,0.4l-1.3,0l1-0.8
		c0.5-0.5,0.8-0.8,0.7-0.8c-0.3,0-1.8,1.5-1.8,1.8c0,0.1,2.5,0.2,5.5,0.2c6,0,6.4-0.2,3.8-1.7C104.9,182.4,101.8,182.2,101.1,183.3
		 M309.1,183.1c0.1,0.6-0.2,0.7-2.1,0.9l-2.2,0.2l2.3,0.1c2.4,0.1,2.9-0.2,2.3-1.2C309.1,182.4,309.1,182.4,309.1,183.1
		 M114.5,184.3c-0.3,0.8-0.6,1-1.4,1.2c-1.1,0.1-1.1,0.1,0.1,0.1c1,0,2.9-2.3,1.9-2.3C114.9,183.2,114.7,183.7,114.5,184.3
		 M202.1,183.5c1.6,0.1,4.3,0.1,6,0c1.6-0.1,0.3-0.1-3-0.1C201.8,183.4,200.5,183.4,202.1,183.5 M218.4,183.8
		c3.6,0.1,9.5,0.1,13.2,0c3.6-0.1,0.7-0.1-6.6-0.1C217.7,183.7,214.8,183.8,218.4,183.8 M324,183.8c0.8,0.1,2,0.1,2.7,0
		c0.7-0.1,0-0.1-1.5-0.1C323.8,183.7,323.2,183.8,324,183.8 M162.5,184.2c0.5,0.1,1.3,0.1,1.7,0c0.4-0.1,0-0.1-0.9-0.1
		C162.3,184,162,184.1,162.5,184.2 M242.3,184.2c0.6,0.1,1.5,0.1,2.1,0c0.5-0.1,0-0.1-1.1-0.1C242.1,184,241.7,184.1,242.3,184.2
		 M154.4,184.5c0.4,0.1,1,0.1,1.4,0c0.3-0.1,0-0.2-0.8-0.1S154,184.4,154.4,184.5 M268.6,184.5c1.2,0.1,3.1,0.1,4.3,0
		c1.2-0.1,0.2-0.1-2.1-0.1C268.4,184.4,267.5,184.5,268.6,184.5 M290,184.5c1.1,0.1,2.9,0.1,3.9,0c1.1-0.1,0.2-0.1-2-0.1
		C289.8,184.4,288.9,184.5,290,184.5 M96.2,184.9c-0.2,0.2-1.3,0.4-2.5,0.4l-2.2,0.1l2.3,0.1c1.7,0,2.4-0.1,2.7-0.4
		C96.9,184.6,96.7,184.4,96.2,184.9 M75.7,189.4c0,1.8,0.1,2.5,0.1,1.6c0.1-0.9,0.1-2.4,0-3.2C75.7,186.9,75.7,187.6,75.7,189.4
		 M79.9,186.9c-0.1,0.1,0.4,0.2,1,0.1c0.6-0.1,1.2-0.2,1.2-0.3C82.1,186.5,80,186.7,79.9,186.9 M168.5,187.2
		c0.7,0.1,1.3,0.3,1.5,0.6c0.2,0.3,0.2,0.2,0.1-0.1c-0.1-0.3-0.6-0.5-1.5-0.6C167.4,187.1,167.4,187.1,168.5,187.2 M171.3,188.6
		c0,0.9,0.1,1.9,0.3,2.3c0.2,0.4,0.2-0.2,0.1-1.4l-0.2-2.1l1.3-0.1l1.3-0.1l-1.5-0.1l-1.5-0.1L171.3,188.6 M213.5,187.2
		c1.6,0.3,5.9,0.3,5.5,0.1c-0.2-0.1-1.7-0.2-3.3-0.2C214.1,187.1,213.1,187.2,213.5,187.2 M323.3,187.3c0.6,0.1,1.6,0.1,2.2,0
		c0.6-0.1,0.1-0.1-1.1-0.1C323.2,187.1,322.7,187.2,323.3,187.3 M162.1,187.6c0.9,0.1,2.3,0.1,3.1,0c0.8-0.1,0.1-0.1-1.6-0.1
		C161.9,187.5,161.2,187.5,162.1,187.6 M223.6,187.6c0,0.1,0.7,0.2,1.5,0.2c2.4-0.2,2.6-0.3,0.5-0.4
		C224.5,187.4,223.6,187.5,223.6,187.6 M308.2,187.5c0.8,0.3,2.8,0.3,2.7,0.1c-0.1-0.1-0.8-0.3-1.6-0.2
		C308.5,187.4,308,187.5,308.2,187.5 M80.9,187.9c0.6,0.1,1.5,0.1,2.1,0c0.5-0.1,0-0.1-1.1-0.1C80.8,187.8,80.3,187.9,80.9,187.9
		 M157.2,187.9c0.6,0.1,1.5,0.1,2.1,0c0.5-0.1,0-0.1-1.1-0.1C157,187.8,156.6,187.9,157.2,187.9 M233.3,187.9c2.8,0.1,7.2,0.1,9.9,0
		s0.4-0.1-5.1-0.1C232.7,187.8,230.5,187.9,233.3,187.9 M295.6,187.9c2.1,0.1,5.6,0.1,7.7,0c2.1-0.1,0.4-0.1-3.8-0.1
		S293.5,187.9,295.6,187.9 M92.3,188.3c1.4,0.2,2.1,1.7,0.7,1.7c-0.2,0-0.3,0.4-0.4,0.9c-0.1,0.8-0.7,3.3-2.2,9.2
		c-0.3,1.3-0.3,1.5,0.2,2.1c0.6,0.6,0.6,0.6,0.4,0c-0.3-0.8,0-0.8,0.8,0c0.5,0.5,1.6,0.7,5.1,1c3.6,0.3,7.7,0.9,10.9,1.5
		c1,0.2,0.6-1.3-0.5-1.9c-3-1.5-13.5-12.9-13.1-14.3c0.2-0.6,0.1-0.7-1.6-0.6l-1.8,0.1L92.3,188.3 M100.9,189.1
		c0.2,0.8,0.2,1-0.1,0.8c-0.2-0.2,0,0.1,0.4,0.5c4.6,4.2,10.5,4.2,10.4,0.1c-0.1-2.3-0.3-2.4-6-2.4h-5.1L100.9,189.1 M112.7,188.4
		c-0.1,0.2,0,0.3,0.3,0.1c0.4-0.2,0.5,0.2,0.6,2l0.1,2.2l0.1-2.3C113.8,188.1,113.3,187.2,112.7,188.4 M151.3,188.3
		c-0.1,0.2,0.3,0.2,0.8,0.1c0.6-0.1,1-0.2,1-0.3C153.2,187.9,151.5,188,151.3,188.3 M196.2,188.4c0.3,0.3,0.4,0.7,0.2,0.9
		c-0.1,0.2,0.1,0.4,0.4,0.4c0.4,0,0.6-0.2,0.6-0.7c0-0.4-0.1-0.6-0.3-0.5c-0.2,0.1-0.5,0-0.9-0.3
		C195.8,187.9,195.8,187.9,196.2,188.4 M260.3,188.3c9.5,0.2,17.5,0.2,17.4,0c-0.1-0.1-4.9-0.2-10.7-0.2
		C261.3,188.1,258.3,188.2,260.3,188.3 M198.6,188.9c0.5,0.3,1,0.5,1.2,0.5c0.2,0,0-0.2-0.5-0.5c-0.5-0.3-1-0.5-1.2-0.5
		C197.9,188.4,198.2,188.6,198.6,188.9 M205.3,189.7c-0.7,0.8-1.2,1.5-1.2,1.6s0.1,0.1,0.3-0.1c0.1-0.2,0.8-0.9,1.4-1.6
		c0.6-0.7,1.1-1.3,1-1.3C206.7,188.4,206,189,205.3,189.7 M112.9,190c0,0.6-0.2,1.5-0.4,2c-0.2,0.6-0.2,0.8,0,0.7
		c0.4-0.3,0.8-2.3,0.6-3.1C113,189.1,112.9,189.3,112.9,190 M239.9,189.3c0.4,0.1,1.1,0.1,1.5,0c0.4-0.1,0.1-0.1-0.8-0.1
		C239.8,189.2,239.5,189.2,239.9,189.3 M99.8,191.1c0.4,0.6,0.9,1.1,1.1,1.3c0.2,0.1,0-0.3-0.6-1C99.2,189.8,98.8,189.7,99.8,191.1
		 M248.6,190.6c0.7,0.2,1.7,0.7,2.3,1c0.6,0.3,1.1,0.5,1.1,0.4c0-0.3-3.5-1.9-4.1-1.8C247.6,190.1,247.9,190.3,248.6,190.6
		 M275.3,190.6c-0.6,0.5-0.6,0.5,0.3,0.1c1-0.4,1.8-0.1,0.9,0.4c-0.4,0.2-0.2,0.3,0.5,0.3c0.6,0,0.8-0.1,0.6-0.2
		c-0.3-0.1-0.3-0.3-0.1-0.6C278.1,190,276.1,190,275.3,190.6 M226.6,191.6c0.3,0.7,0.6,1.1,0.7,1.1c0.2-0.2-0.9-2.3-1.1-2.3
		C226.1,190.4,226.3,191,226.6,191.6 M79.5,192.1c0.1,0.7,0.4,1.5,0.5,1.9c0.2,0.5,0.2,0.3,0.1-0.5c-0.1-0.7-0.4-1.5-0.5-1.9
		C79.4,191.2,79.4,191.3,79.5,192.1 M237.5,191.5c-1.3,0.2-2.5,0.5-2.7,0.8c-0.4,0.4-2.3,1.5-4,2.2c-1.8,0.7-6.7,8.1-7.8,11.6
		c-4.1,13.2,12.4,25.2,25.5,18.6c5.7-2.9,11.1-12.2,11.1-19C259.5,196.8,248.7,189.9,237.5,191.5 M277,192.1c-6.9,0.6-5,11.1,2,11.8
		c0.8,0.1,1.3,0.1,1.2,0c-0.2-0.1,0.3-0.9,1.2-1.8c1.7-1.8,2-1.9,1.4-0.7c-0.4,0.8-0.4,0.8,0.1,0.1c1.3-1.6,0.4-5.9-1.6-8
		C279.8,192,279.5,191.9,277,192.1 M282.5,193c0.7,0.7,1.5,1.9,1.8,2.7c0.3,0.7,0.6,1.2,0.7,1.1c0.3-0.3-0.2-2.6-0.5-2.6
		c-0.1,0-0.9-0.6-1.8-1.3l-1.5-1.3L282.5,193 M252.3,192.2c0.1,0.1,0.7,0.5,1.3,0.9l1.2,0.8l-1-0.9c-0.6-0.5-1.2-0.9-1.3-0.9
		C252.3,192.1,252.3,192.2,252.3,192.2 M271.9,193c-0.7,0.5-0.8,0.8-0.7,2.6c0,1.2,0.1,1.7,0.2,1.3c0.1-0.5,0.2-1.3,0.3-1.9
		c0.1-0.6,0.5-1.4,0.9-1.8C273.3,192.4,273,192.2,271.9,193 M76,194c0,0.8,0.1,1,0.2,0.6c0.1-0.4,0.1-1,0-1.4
		C76,192.9,76,193.3,76,194 M227.8,193.4c-0.2,0.1-0.4,0.7-0.4,1.3c0,0.6,0.1,0.8,0.2,0.5c0.1-0.4,0.3-0.5,0.6-0.4
		c0.3,0.2,0.3,0.1,0-0.3c-0.3-0.4-0.3-0.6,0-0.9C228.5,193.1,228.5,193.1,227.8,193.4 M327.2,194.2c-0.2,0.6-0.3,1.2-0.3,1.2
		c0.1,0.1,0.3-0.4,0.5-1c0.2-0.6,0.3-1.2,0.3-1.2C327.7,193.2,327.4,193.6,327.2,194.2 M256.7,195.6c0.8,0.9,1.6,1.6,1.6,1.6
		c0.3,0,0-0.3-1.5-1.7l-1.6-1.5L256.7,195.6 M101.9,195.7c0.6,0.7,1.2,1.2,1.3,1.2s-0.4-0.5-1-1.2c-0.6-0.7-1.2-1.2-1.3-1.2
		C100.8,194.5,101.2,195.1,101.9,195.7 M149.4,195.9c-0.4,1.1-0.3,1.7,0.4,1.7c0.3,0,0.2-0.1-0.1-0.3c-0.4-0.3-0.4-0.5-0.1-1.2
		c0.2-0.5,0.4-1,0.3-1.1C149.9,194.9,149.6,195.3,149.4,195.9 M188.9,197l-1,1.1l1.1-1c0.6-0.6,1.1-1.1,1.1-1.1
		C190.1,195.7,189.8,196,188.9,197 M191.1,197.2c0,0.5,0.9,2.5,1.2,2.5c0.1,0,0-0.4-0.3-0.9c-0.3-0.5-0.6-1.2-0.7-1.5
		C191.2,196.9,191.2,196.9,191.1,197.2 M314.7,198.8c-2,2-2.5,3.7-1.7,6.1c0.5,1.6,2.9,4.7,3.7,4.7c0.1,0-0.3-0.5-1-1.2l-1.3-1.2
		l1.5,0.7c0.9,0.4,2.2,0.7,3.4,0.8c1.1,0,2.1,0.2,2.2,0.4c0.1,0.2,0.3,0.1,0.3-0.2c0-0.3,0.4-1.4,0.9-2.4c1.4-2.9,0.9-5.1-1.6-7.3
		l-1.1-1l1.2,1.3c1.5,1.6,1.1,1.6-1.8-0.1c-1.3-0.8-2.5-1.4-2.7-1.4c-0.2,0-0.2-0.2-0.1-0.3C316.9,196.8,316.1,197.4,314.7,198.8
		 M236.1,198.5c0.4,2,0.6,2.4,1.8,4.4c3.6,6,4.9,6.3,6.6,1.5c1.2-3.3,2.7-6.5,3.2-6.5c1,0,1.2,0.8,0.6,1.7c-0.3,0.5-1.4,2.5-2.4,4.6
		c-2.5,5.2-3.6,5.7-6.6,3.1c-2-1.8-4.9-8.3-4.2-9.4C235.4,197.3,235.9,197.6,236.1,198.5 M312.8,198.5c-0.4,0.5-0.7,1.1-0.7,1.3
		c0,0.2,0.3,0,0.6-0.5c0.3-0.5,0.8-1,1.1-1.3c0.3-0.2,0.4-0.4,0.1-0.4C313.7,197.6,313.2,198,312.8,198.5 M89,199.7
		c0,1,0.1,1.5,0.1,0.9c0.1-0.5,0.1-1.4,0-1.9C89.1,198.2,89,198.6,89,199.7 M259.6,199.1c0.9,1.5,1.3,1.6,2.2,0.5l0.7-0.8l-0.8,0.7
		l-0.8,0.7l-1-1.2l-1-1.2L259.6,199.1 M269.9,198.3c0.4,0.2,0.9,0.3,1.2,0.3c0.3,0,0.3-0.1-0.2-0.3c-0.4-0.2-0.9-0.3-1.2-0.3
		C269.4,198,269.5,198.1,269.9,198.3 M296.6,199c-0.5,0.6-0.9,1.1-0.8,1.1c0.1,0.1,0.6-0.4,1.2-1c0.6-0.6,1-1.1,0.8-1.1
		C297.7,197.9,297.1,198.4,296.6,199 M105.5,199.7c0.7,0.8,1.4,1.4,1.5,1.4c0.1,0-0.4-0.6-1.2-1.4c-0.7-0.8-1.4-1.4-1.5-1.4
		S104.7,198.9,105.5,199.7 M147,199.6c-0.4,0.5-0.4,0.5,0,0.2c0.3-0.2,0.8-0.5,1.2-0.6c0.6-0.2,0.6-0.2,0-0.2
		C147.8,199,147.2,199.2,147,199.6 M177.2,200.2c0.4,0.3,0.9,0.5,1.2,0.5c0.5,0,0.5-0.1,0-0.2c-0.3-0.1-0.8-0.3-1.2-0.5
		C176.6,199.6,176.6,199.6,177.2,200.2 M204.1,200c1.2,0.8,1.9,1,1,0.4c-0.5-0.4-1-0.7-1.2-0.7C203.7,199.7,203.8,199.8,204.1,200
		 M193.7,201.4c0.7,0.8,1.4,1.4,1.5,1.4c0.1,0-0.4-0.6-1.2-1.4c-0.7-0.8-1.4-1.4-1.5-1.4S192.9,200.6,193.7,201.4 M306,200.5
		c0.5,0.3,1,0.5,1.2,0.5c0.2,0,0-0.2-0.5-0.5s-1-0.5-1.2-0.5S305.5,200.2,306,200.5 M146.2,200.6c-0.1,0.1-0.2,0.6-0.2,1
		c0,0.4-0.2,0.9-0.4,1.2c-0.4,0.4-0.3,0.4,0.1,0.1c0.3-0.2,0.6-0.9,0.7-1.4C146.6,200.3,146.6,200.2,146.2,200.6 M195.2,200.8
		c0.6,0.7,2.4,1.7,2.7,1.4c0.1-0.1,0-0.2-0.2-0.2c-0.2,0-0.9-0.4-1.7-0.9C195.3,200.7,194.9,200.5,195.2,200.8 M179.7,200.9
		c0.4,0.1,1.1,0.1,1.5,0c0.4-0.1,0.1-0.1-0.8-0.1S179.3,200.8,179.7,200.9 M202.2,201.8l-1,1.1l1.1-1c0.6-0.6,1.1-1.1,1.1-1.1
		C203.4,200.5,203.1,200.8,202.2,201.8 M251.3,201c0,0.2-0.2,0.4-0.4,0.6c-0.8,0.5-6.5,9.5-6.8,10.8c-0.5,1.8,0.3,3.4,2.8,5.4
		c2,1.6,2.3,2.2,1.3,2.4c-0.8,0.1-3.9-2.8-4.7-4.4c-1.4-2.7-0.8-5,2.3-9.2C249.4,201.6,251.3,199.7,251.3,201 M157.3,202.3
		c0.5,0.6,0.9,1,1,0.9c0.1-0.1-0.3-0.6-0.8-1.1l-1-0.9L157.3,202.3 M211.2,201.9c0.6,0.3,1.2,0.5,1.4,0.5c0.4,0-1.5-1-2-1
		C210.3,201.4,210.6,201.6,211.2,201.9 M234,203.7c2,4.5-0.2,7.8-4.9,7.1c-1.9-0.3-2.1-0.4-1.9-1c0.1-0.4,0.5-0.4,1.5-0.1
		c1.4,0.4,3.4,0,4.6-0.9c1-0.7,0.8-2.5-0.5-4.6c-0.6-1-1-1.9-0.9-2.1C232.4,201.3,233.1,201.8,234,203.7 M261.4,205.5
		c0.1,4.2,0.6,5.5,1,2.9c0.2-1.5,0.3-1.6,0.8-1c0.3,0.3,0.2,0.1-0.2-0.6c-0.8-1.4-0.9-2.7-0.3-2.7c0.2,0,0.2-0.2-0.2-0.4
		c-0.3-0.2-0.7-0.8-0.9-1.3C261.4,201.8,261.3,202.9,261.4,205.5 M282.8,203.2c-1,1.2-1,1.3-0.2,0.6c0.8-0.7,1.8-2.1,1.5-2
		C284,201.7,283.4,202.4,282.8,203.2 M109.9,203.3c0.4,0.4,1.2,0.8,1.9,0.9l1.2,0.2l-1.2-0.4c-0.7-0.2-1.5-0.6-1.9-0.9
		C109.3,202.7,109.3,202.7,109.9,203.3 M90.8,203.4c0.2,0.3,2.5,1.1,2.7,0.9c0.1-0.1-0.6-0.4-1.4-0.7
		C91.3,203.4,90.7,203.3,90.8,203.4 M119.3,203.2c0,0.1,0.5,0.5,1,0.9c0.6,0.4,1,0.7,1,0.6c0-0.1-0.5-0.5-1-0.9
		C119.8,203.4,119.3,203.1,119.3,203.2 M214.3,203.5c0.2,0.2,0.9,0.2,1.6,0.2l1.3-0.1l-1.6-0.2C214.8,203.3,214.2,203.4,214.3,203.5
		 M200,203.5c0.1,0.1,1.2,1.1,2.6,2.3l2.4,2.2l-1.9-2c-1-1.1-2.2-2.1-2.6-2.3C200.1,203.5,199.9,203.4,200,203.5 M295.9,204.4
		c-0.3,0.6-0.5,1-0.4,1s0.4-0.5,0.7-1c0.3-0.6,0.5-1,0.4-1S296.2,203.9,295.9,204.4 M220.3,204.2c-0.2,0.3-0.1,0.3,0.2,0.1
		c0.3-0.2,0.6-0.1,0.7,0.2c0.2,0.4,0.3,0.3,0.3-0.1C221.5,203.7,220.7,203.5,220.3,204.2 M311.3,205c-0.1,0.3-0.2,1-0.2,1.6
		c0,0.9,0.1,0.8,0.3-0.5C311.7,204.5,311.7,204.1,311.3,205 M276.2,205.1c0,0.5,0.4,0.7,0.9,0.5c0.3-0.1,0.4-0.3,0.3-0.5
		C277.2,204.7,276.2,204.7,276.2,205.1 M220.7,205.9c-0.1,0.4-0.2,1.1-0.2,1.5c0,0.4,0.2,0.1,0.3-0.6
		C221.2,205.3,221.1,204.6,220.7,205.9 M281.1,205.4c0.3,0.1,0.9,0.1,1.2,0c0.3-0.1,0.1-0.2-0.6-0.2
		C281.1,205.2,280.8,205.3,281.1,205.4 M284.4,205.4c0.7,0.1,1.6,0.3,2.1,0.5c0.7,0.2,0.7,0.1-0.2-0.3c-0.6-0.3-1.5-0.5-2.1-0.5
		C283.3,205.2,283.3,205.2,284.4,205.4 M139,206.3l-1.4,0.7l1.2,0.3c0.7,0.2,1.9,0.5,2.7,0.8c1.7,0.5,1.9,0.5,1.6-0.5
		c-0.2-0.5-0.7-0.7-2-0.9c-1.7-0.2-1.8-0.2-0.9-0.7c0.5-0.3,0.7-0.5,0.5-0.5C140.5,205.5,139.7,205.8,139,206.3 M143.9,206.8
		c0,0.6,0.1,1.1,0.3,1.2c0.1,0.1,0.2-0.4,0.1-1C144.2,205.5,143.9,205.4,143.9,206.8 M158.7,206.7c-0.6,1.3-0.5,1.5,0.2,0.4
		c0.3-0.5,0.5-1,0.4-1.1C159.1,205.9,158.9,206.2,158.7,206.7 M205.6,207.2c0.1,1.1,0.3,1.7,1.2,2.5l1.1,1.1l-0.8-1.1
		c-0.4-0.6-0.9-1.2-1.1-1.3c-0.2-0.1-0.2-0.5-0.1-0.9c0.1-0.4,0.1-0.9-0.1-1.2C205.6,205.9,205.6,206.1,205.6,207.2 M263.6,205.9
		c0,0.1,0.5,0.6,1.1,1.1l1.1,1l-1-1.1C263.9,205.9,263.6,205.7,263.6,205.9 M96.2,206.4c0.3,0.1,0.9,0.1,1.2,0
		c0.3-0.1,0.1-0.2-0.6-0.2C96.1,206.2,95.8,206.3,96.2,206.4 M119.3,206.9c0,0.1,0.5,0.6,1.1,1.1l1.1,1l-1-1.1
		C119.6,206.9,119.3,206.7,119.3,206.9 M156.6,207.9c-0.2,0.6-0.4,1.3-0.4,1.5c0,0.2,0.2-0.2,0.5-1c0.3-0.7,0.4-1.4,0.4-1.5
		S156.8,207.3,156.6,207.9 M79.2,208.7c0.1,0.6,0.4,1.3,0.5,1.5c0.2,0.3,0.2,0.1,0.1-0.5c-0.1-0.6-0.4-1.3-0.5-1.5
		C79.1,207.9,79,208.1,79.2,208.7 M100.2,209.7c1,1,1.9,1.9,2,1.9c0.1,0-0.7-0.8-1.7-1.9c-1-1-1.9-1.9-2-1.9S99.2,208.7,100.2,209.7
		 M102.7,209.6c0.9,0.9,1.8,1.7,1.9,1.7c0.1,0-0.6-0.8-1.5-1.7c-0.9-0.9-1.8-1.7-1.9-1.7S101.8,208.6,102.7,209.6 M127.9,208.1
		c0.8,0.2,0.8,0.6-0.1,1.2c-0.6,0.4-0.7,0.6-0.3,1.2c0.4,0.6,0.4,0.6,0.2-0.1c-0.2-0.6,0.7-1.5,1-1.1c1.1,1.3,6,11.7,6,12.7
		c0,0.7,0.8,1.1,1,0.5c0.2-0.7,4.4-5.1,6.7-6.9c2.6-2.1,3-3,2.1-4.3c-1.4-1.8-2.7-2.2-10.2-2.8c-2.4-0.2-5-0.4-5.6-0.5
		C127.9,208,127.6,208,127.9,208.1 M145.3,208.7c0.5,0.6,1.7,1.4,1.7,1.1c0-0.1-0.5-0.5-1.1-0.9C145.2,208.4,145,208.3,145.3,208.7
		 M220.2,209c0,0.4-0.2,0.5-0.5,0.4c-0.3-0.2-0.3-0.1,0,0.2c0.5,0.6,0.9,0.2,0.7-0.6C220.3,208.4,220.2,208.4,220.2,209 M85.2,209.1
		c0,0.2,0.2,0.7,0.5,1.2c0.3,0.5,0.5,0.7,0.5,0.5s-0.2-0.7-0.5-1.2C85.4,209.1,85.2,208.9,85.2,209.1 M181.5,210.1
		c0.6,0.7,1.2,1.2,1.3,1.2c0.1,0-0.4-0.5-1-1.2c-0.6-0.7-1.2-1.2-1.3-1.2C180.5,208.9,180.9,209.4,181.5,210.1 M186,209.6
		c-0.2,0.4-0.3,0.9-0.3,1.2c0.1,0.3,0.3,0,0.5-0.7C186.6,208.7,186.5,208.5,186,209.6 M165.8,212c-0.6,1.3-0.9,1.6-1.1,1.1
		c-0.2-0.5-0.2-0.4-0.3,0.3c-0.1,2.9-3.5,7-6.9,8.3c-2.4,1-2.4,1.7,0,4c3.7,3.5,5.7,2.3,10.2-6.3c2.3-4.4,2.3-5.9-0.2-8.2l-1-1
		L165.8,212 M145.6,211.3c0.2,0.4,0.4,1,0.4,1.4c0,0.7,0.8,1,1.2,0.4c0.1-0.2,0-0.2-0.4-0.1c-0.5,0.2-0.5,0.1-0.4-0.4
		c0.1-0.3,0.2-0.7,0.2-0.7s0.3-0.1,0.6-0.2c0.3,0,0.1-0.2-0.6-0.5C145.2,210.5,145.2,210.5,145.6,211.3 M186.8,212.1
		c0,0.8,0.1,1,0.2,0.6c0.1-0.4,0.1-1,0-1.4C186.8,211,186.7,211.4,186.8,212.1 M318,211.2c0.5,0.1,1.3,0.1,1.7,0
		c0.4-0.1,0-0.1-0.9-0.1C317.9,211,317.5,211.1,318,211.2 M209.1,212.4c0.1,0.2,0.5,1,0.7,1.8c0.4,1.2,0.4,1.3,0.3,0.3
		c-0.1-0.8-0.1-1.1,0.2-0.9c0.2,0.1,0-0.2-0.4-0.7C209.1,211.9,208.7,211.7,209.1,212.4 M239.6,213.1c0.9,0.9,3.3,8.3,2.9,8.9
		c-0.7,1.2-1.5-0.3-2.2-4.4c-0.2-1.1-0.4-2.4-0.5-2.8c-0.5-2.7-5.7-1.7-9.7,2c-1.8,1.7-2.6,1-0.9-0.7
		C233.1,212.1,237.3,210.9,239.6,213.1 M270.9,212.5c0.2,0.2,1,0.8,1.7,1.5l1.4,1.2l-1-1.1c-0.6-0.6-1.3-1.3-1.7-1.5
		C270.9,212.4,270.8,212.4,270.9,212.5 M295.4,212.4c0,0.1,0.5,0.6,1.1,1.1l1.1,1l-1-1.1C295.7,212.4,295.4,212.2,295.4,212.4
		 M128.6,212.8c0,0.2,0.2,0.7,0.5,1.2s0.5,0.7,0.5,0.5s-0.2-0.7-0.5-1.2C128.8,212.9,128.6,212.6,128.6,212.8 M185.7,213.1
		c0,1,1.6,2.6,2.1,2.1c0.4-0.3,0.3-0.5-0.2-1c-0.6-0.6-0.6-0.6-0.2,0c0.3,0.3,0.4,0.7,0.3,0.8c-0.3,0.3-1-0.3-1.5-1.4
		C185.9,213,185.7,212.7,185.7,213.1 M267.2,212.9c1.1,0.5,2.8,0.8,2.2,0.4c-0.3-0.2-1.1-0.4-1.7-0.5
		C266.9,212.7,266.7,212.7,267.2,212.9 M150.3,213.2c-0.1,0.1,0.6,0.2,1.4,0.2c2.7-0.2,3.1-0.3,0.8-0.4
		C151.4,213,150.4,213.1,150.3,213.2 M189.1,213.1c0,0.2,2.8,4,3,4c0.2,0-1.1-1.9-2.2-3.2C189.4,213.4,189.1,213,189.1,213.1
		 M309.3,213.9c-0.1,0.5-0.2,1-0.1,1.1c0.1,0.1,0.2-0.3,0.4-0.8c0.1-0.5,0.2-1,0.1-1.1C309.5,213,309.4,213.4,309.3,213.9
		 M81.2,214.7c0.1,0.5,0.4,1.1,0.5,1.4c0.2,0.4,0.2,0.3,0.1-0.3c-0.1-0.5-0.4-1.1-0.5-1.4C81.1,214,81.1,214.1,81.2,214.7
		 M295.5,214.7c0.3,0.5,0.4,1,0.3,1.2c-0.1,0.2-0.1,0.2,0.1,0.1c0.2-0.1,0.5,0,0.6,0.2c0.1,0.2,0.2,0.3,0.2,0.1
		c0-0.2-0.4-0.8-0.8-1.4C295.1,214,295.1,214,295.5,214.7 M318.1,215.8c-0.3,0.6-0.5,1.1-0.4,1.2c0.1,0.1,0.4-0.4,0.7-1.1
		C319.1,214.4,318.9,214.3,318.1,215.8 M143.8,217.7c-1.3,1.1-3.2,2.9-4.3,4c-1.4,1.5-1.1,1.3,1-0.7c1.6-1.5,3.6-3.3,4.4-4
		c0.8-0.7,1.5-1.3,1.4-1.3C146.2,215.7,145.1,216.6,143.8,217.7 M323.6,217c-0.3,0.7-0.4,1.3-0.3,1.4c0.1,0.1,0.2,0.1,0.2,0
		c0-0.1,0.2-0.7,0.5-1.4c0.3-0.7,0.4-1.2,0.3-1.2C324.2,215.7,323.9,216.3,323.6,217 M259.5,217.3c-0.6,1.3-0.5,1.5,0.2,0.4
		c0.3-0.5,0.5-1,0.4-1.1C260,216.5,259.8,216.8,259.5,217.3 M170.8,217c-0.4,0.4-0.2,0.7,0.3,0.7c0.3,0,0.5-0.1,0.5-0.3
		C171.6,217,171.1,216.7,170.8,217 M189.4,219c1.2,1.2,2.3,2.2,2.4,2.2c0.1,0-0.8-1-2-2.2c-1.2-1.2-2.3-2.2-2.4-2.2
		C187.3,216.8,188.2,217.8,189.4,219 M274.1,218.2c-0.1,0.6-0.2,1.2-0.1,1.2c0.1,0.1,0.2-0.3,0.4-0.9c0.1-0.6,0.2-1.1,0.1-1.2
		C274.4,217.1,274.2,217.6,274.1,218.2 M108.7,217.9c0.3,0.3,0.4,0.9,0.3,1.3s0,0.6,0.1,0.5c0.5-0.3,0.3-1.4-0.3-1.9
		C108.3,217.3,108.2,217.3,108.7,217.9 M160,218.3c-0.7,0.5-1.5,0.8-1.9,0.7c-0.7-0.1-1.8,1-1.4,1.4c0.3,0.3,2-0.6,3.5-1.8
		C161.8,217.3,161.7,217.1,160,218.3 M208,218.5l-1,1.1l1.1-1c0.6-0.6,1.1-1.1,1.1-1.1C209.2,217.3,208.9,217.5,208,218.5
		 M316.6,218.8c-0.4,0.8-0.6,1.4-0.5,1.4c0.1,0,0.5-0.6,0.9-1.4c0.4-0.8,0.6-1.4,0.5-1.4C317.4,217.4,317,218.1,316.6,218.8
		 M170.1,219c-0.1,0.3-0.2,0.8-0.2,1.1c0,0.3,0.2,0.1,0.3-0.4C170.6,218.6,170.5,218.1,170.1,219 M172.3,219.2
		c0.4,0.5,0.4,0.6-0.7,0.6c-1.1,0-1.1,0.1-0.2,0.2c1.3,0.2,1.8-0.3,1-1C171.8,218.7,171.8,218.7,172.3,219.2 M154.8,219.7
		c-0.5,0.3-1.3,0.5-1.8,0.5c-0.7,0.1-0.8,0.2-0.5,0.5c0.6,0.8,1.8,0.5,2.6-0.6c0.4-0.6,0.7-1,0.7-1
		C155.8,219.2,155.3,219.4,154.8,219.7 M90.8,220.9c0.3,0.6,0.6,1,0.7,1s-0.1-0.5-0.4-1c-0.3-0.6-0.6-1-0.7-1
		C90.3,219.8,90.5,220.3,90.8,220.9 M117.4,220.2l-1,0.3l0.9,0c0.5,0,1-0.1,1.1-0.3c0.1-0.2,0.2-0.3,0.1-0.3
		C118.5,219.9,118,220,117.4,220.2 M123.3,220.4c0.8,0.1,2,0.1,2.7,0c0.7-0.1,0-0.1-1.5-0.1C123.1,220.3,122.5,220.3,123.3,220.4
		 M186,220.3c0,0.2,0.2,0.7,0.5,1.2c0.3,0.5,0.5,0.7,0.5,0.5c0-0.2-0.2-0.7-0.5-1.2C186.2,220.4,186,220.2,186,220.3 M224.2,221.4
		c0.3,0.7,0.6,1.1,0.7,1.1c0.2-0.2-0.9-2.3-1.1-2.3C223.7,220.2,223.9,220.7,224.2,221.4 M215.2,221.5c0.3,0.6,0.6,1,0.7,1
		c0.1,0-0.1-0.5-0.4-1c-0.3-0.6-0.6-1-0.7-1C214.8,220.5,214.9,221,215.2,221.5 M189.4,221c0,0.1,0.5,0.6,1.1,1.1l1.1,1l-1-1.1
		C189.7,220.9,189.4,220.7,189.4,221 M179.9,222c-0.6,0.3-1.1,0.6-1.1,0.7c0,0.2,2.4-0.8,2.7-1C181.8,221.4,181,221.6,179.9,222
		 M210.6,221.9c1.2,0.1,2.6,0.4,3,0.6c0.4,0.2,0.8,0.3,0.8,0.2c0-0.5-2.5-1.2-4.2-1.1l-1.8,0L210.6,221.9 M105.1,222.9
		c-0.3,0.4-1.1,0.7-1.7,0.8l-1.1,0.1l1.1,0.1c0.7,0,1.3-0.2,1.9-0.8c0.4-0.5,0.7-0.9,0.6-0.9C105.8,222.2,105.5,222.5,105.1,222.9
		 M130.7,222.5c0.3,0.1,0.9,0.1,1.2,0c0.3-0.1,0.1-0.2-0.6-0.2S130.4,222.4,130.7,222.5 M84.5,222.7c0,0.2,0.3,0.9,0.7,1.5
		c0.4,0.7,0.7,1,0.7,0.9c0-0.2-0.3-0.9-0.7-1.5C84.8,222.9,84.5,222.5,84.5,222.7 M92.5,223.9c0.3,0.6,0.6,1,0.7,1s-0.1-0.5-0.4-1
		c-0.3-0.6-0.6-1-0.7-1C92,222.9,92.2,223.4,92.5,223.9 M166.8,224.2c-0.5,0.7-0.9,1.4-0.9,1.7s-0.2,0.5-0.4,0.5
		c-0.2,0-0.9,0.4-1.5,0.9c-0.7,0.6-0.8,0.7-0.2,0.3c0.5-0.3,1.2-0.7,1.6-0.9c0.4-0.2,0.8-0.6,0.8-0.8c0-0.3,0.4-1,0.9-1.6
		c0.5-0.6,0.8-1.1,0.8-1.2C167.8,223,167.3,223.5,166.8,224.2 M210.9,223.1c0.4,0.1,1,0.1,1.4,0c0.3-0.1,0-0.2-0.8-0.1
		S210.4,223.1,210.9,223.1 M215.4,223.9c1,1.5,1,1.5,1,1.2c0-0.2-0.4-0.8-0.9-1.3l-0.9-1L215.4,223.9 M153.7,224.6
		c0.7,0.8,1.4,1.4,1.5,1.4c0.1,0-0.4-0.6-1.2-1.4c-0.7-0.8-1.4-1.4-1.5-1.4S152.9,223.9,153.7,224.6 M188,224.3
		c0.4,0.6,0.9,1.1,1.1,1.3c0.2,0.1,0-0.3-0.6-1C187.4,223,187,222.8,188,224.3 M202.6,223.8c-0.9,0.4-0.9,0.5-0.2,0.3
		c1-0.2,2.1-0.8,1.5-0.8C203.7,223.3,203.1,223.5,202.6,223.8 M260.5,223.4c0,0.2,2.1,1.3,2.3,1.1c0.1-0.1-0.4-0.4-1.1-0.7
		C261,223.5,260.5,223.3,260.5,223.4 M264.4,223.5c0.4,0.2,1.2,0.4,1.9,0.5c0.8,0.1,1,0.1,0.5-0.1c-0.4-0.2-1.2-0.4-1.9-0.5
		C264.1,223.3,264,223.3,264.4,223.5 M198.1,224c0.2,0.1,0.7,0.3,1.1,0.3c0.4,0,0.9-0.1,1.1-0.3s-0.3-0.3-1.1-0.3
		C198.3,223.8,197.9,223.9,198.1,224 M277,223.8c0.3,0.1,0.9,0.1,1.2,0c0.3-0.1,0.1-0.2-0.6-0.2C276.9,223.7,276.7,223.7,277,223.8
		 M116.5,224.2c-0.3,0.3-0.3,1.7,0,1.9c0.1,0.1,0.3-0.4,0.3-1c0-0.6,0-1.2,0-1.2C116.7,223.9,116.6,224,116.5,224.2 M136.6,225
		l-1,1.1l1.1-1c1-0.9,1.3-1.2,1-1.2C137.6,223.9,137.1,224.4,136.6,225 M106.7,224.8c-1,0.5-0.3,0.9,1,0.5c0.6-0.2,0.7-0.3,0.2-0.3
		c-0.3,0-0.5-0.2-0.4-0.4C107.8,224.2,107.8,224.2,106.7,224.8 M270.5,224.7c0,0.5-0.2,0.6-0.8,0.4c-0.7-0.2-0.7-0.2-0.1,0.2
		c0.7,0.5,1.4,0,1.1-0.8C270.5,224.3,270.5,224.3,270.5,224.7 M215.2,226.4c0,0.8-0.1,1.8-0.2,2.3c-0.2,0.6-0.1,0.6,0.2-0.2
		c0.5-1.1,0.7-2.5,0.3-3.1C215.3,225.2,215.2,225.6,215.2,226.4 M196.2,225.6c0.3,0.2,0.9,0.3,1.3,0.3c1.1,0,0.8-0.2-0.7-0.5
		C196.1,225.4,195.9,225.4,196.2,225.6 M251.2,225.7c0.2,0.2,0.7,0.3,1.1,0.2c0.7-0.1,0.6-0.2-0.3-0.3
		C251.4,225.5,251,225.5,251.2,225.7 M273.5,226c-0.3,0.2,0.2,0.2,1.2,0.1c2.3-0.2,2.6-0.4,0.8-0.4
		C274.7,225.7,273.8,225.8,273.5,226 M267.4,226.1c0.4,0.3,2.1,0.6,1.9,0.2c-0.1-0.2-0.6-0.4-1.1-0.4
		C267.6,226,267.3,226,267.4,226.1 M310.6,226.8c0.3,1.3,0.5,1.5,0.5,0.7c0-0.4-0.2-0.9-0.4-1.2
		C310.5,225.9,310.5,226.1,310.6,226.8 M167.7,226.8c-0.1,0.3-0.1,0.8,0,1.1c0.1,0.4,0.2,0.3,0.2-0.3c0-1,0.6-1.3,0.8-0.4
		c0.1,0.4,0.1,0.4,0.1-0.1C168.7,226.4,167.9,226.1,167.7,226.8 M270.8,227c0,0.2-0.3,0.4-0.8,0.4c-0.6,0-0.7,0.1-0.1,0.2
		c0.7,0.2,1.5-0.4,1.1-0.8C270.9,226.7,270.8,226.7,270.8,227 M233,227.3c0.2,0.2,0.8,0.4,1.4,0.6c1.3,0.3,1,0-0.5-0.5
		C233.2,227.2,232.8,227.1,233,227.3 M249.1,228.1c0.1,0.2-0.1,0.7-0.5,1.2c-3.3,4.3,3,11.7,7.8,9.2c2.3-1.2,2.8-6.9,0.7-8.2
		c-0.2-0.1-0.2,0.1-0.1,0.4c0.2,0.4-0.2,0.3-1.6-0.4c-3.7-2-4.3-2.3-5.4-2.4C249.4,227.8,249,227.9,249.1,228.1 M135.9,231.1
		c0,1.8,0.1,2.5,0.1,1.6c0.1-0.9,0.1-2.4,0-3.2C135.9,228.6,135.9,229.3,135.9,231.1 M263.9,229.3l-1.2,1.3l1.3-1.2
		c1.2-1.1,1.4-1.4,1.2-1.4C265.1,228,264.6,228.6,263.9,229.3 M160.2,230.4c1.1,1.2,2.1,2.3,2.2,2.4c0.1,0.1,0-0.1-0.2-0.5
		c-0.2-0.4-1.2-1.5-2.2-2.4l-1.8-1.7L160.2,230.4 M160.9,228.7c-0.1,0.2,0.4,0.8,1.1,1.5l1.3,1.2l-1.1-1.2c-0.8-0.9-1-1.3-0.7-1.4
		c0.3-0.1,0.3-0.2,0.1-0.2C161.2,228.4,161,228.5,160.9,228.7 M240.9,228.7c-0.1,0.2,0.1,0.5,0.6,0.7c0.7,0.4,0.7,0.4,0.3-0.1
		c-0.4-0.5-0.3-0.6,0.3-0.7c0.7-0.1,0.7-0.2-0.1-0.2C241.5,228.4,241,228.5,240.9,228.7 M265.5,230.2l-1.4,1.5l1.5-1.4
		c0.8-0.7,1.5-1.4,1.5-1.5C267,228.6,266.7,228.8,265.5,230.2 M191.7,231.2c0.2,2.5,0.4,2.8,0.4,0.8c0-0.9-0.1-1.9-0.3-2.2
		C191.7,229.5,191.6,230.1,191.7,231.2 M215.3,230.5l-0.6,1.1l0.7-0.8c0.6-0.7,0.9-1.4,0.6-1.4C215.9,229.4,215.6,229.9,215.3,230.5
		 M240.4,230.6c0.6,0.7,0.1,0.9-2.8,0.9c-2.1,0-3.1-0.1-3.1-0.4c0-0.2-0.4,0-0.9,0.5c-0.5,0.5-1.7,1.4-2.6,2.1
		c-1.1,0.8-1.5,1.3-1.1,1.4c0.3,0.1,0.7,0.9,0.9,1.7c0.3,1.1,0.7,1.7,1.5,2.3c1,0.7,2.8,2.9,5.3,6.5c1.1,1.6,2.1,1.6,4.4-0.3
		c1.9-1.6,4.8-5.1,5.5-6.7l0.4-1l0.8,0.8c0.5,0.4,0.8,0.7,0.8,0.6s-1.6-1.5-3.6-3.1c-2-1.6-4.1-3.5-4.7-4.2
		C240.7,230.8,240.3,230.4,240.4,230.6 M246.7,230.9c-0.1,0.4-0.2,1.1-0.3,1.6l-0.1,0.8l-1-0.8l-1-0.8l0.9,1
		c1.1,1.2,1.5,0.9,1.7-1.1C247.1,230,247,229.6,246.7,230.9 M147.5,230.9c-1.3,0.6-0.7,0.6,0.9,0c0.7-0.3,1-0.5,0.7-0.5
		C148.8,230.5,148.1,230.7,147.5,230.9 M227.7,232.5c-0.1,2-0.2,2.2-1,2.4l-0.9,0.2l0.9,0c0.6,0,1.3-0.5,2.4-1.8
		c1.3-1.5,1.4-1.6,0.3-0.6l-1.3,1.2l-0.1-1.8l-0.1-1.8L227.7,232.5 M154.5,232.6c0,0.2,2.1,1.3,2.3,1.1c0.1-0.1-0.4-0.4-1.1-0.7
		C155.1,232.7,154.5,232.6,154.5,232.6 M176.1,232.9c0.4,0.2,1.2,0.1,1.8,0c1-0.3,0.9-0.3-0.7-0.3
		C175.8,232.6,175.5,232.7,176.1,232.9 M292.6,233.3c0.5,0.5,1.3,1.3,1.9,1.7c1.2,0.8,0.9,0.5-1.2-1.3
		C292.3,232.8,292.1,232.7,292.6,233.3 M89.9,233.3c0.2,0.4,0.6,1,0.9,1.4l0.6,0.7l-0.3-0.7c-0.2-0.4-0.6-1-0.9-1.4l-0.6-0.7
		L89.9,233.3 M259.6,234.5c0,0.8,0.1,1.2,0.1,0.8c0.1-0.4,0.1-1.1,0-1.5C259.6,233.3,259.6,233.7,259.6,234.5 M178.2,234.2
		c-2.1,0.5-2.2,1.8-0.4,4.7c2.6,4.3,9.8,4.9,9.4,0.9C186.7,236.2,182.2,233.3,178.2,234.2 M184.3,234c0.1,0.1,0.9,0.8,1.8,1.6
		c1.3,1.2,1.7,1.4,2.1,1c0.3-0.4,0.3-0.4,0-0.2c-0.3,0.2-1-0.3-2-1.1c-0.8-0.8-1.6-1.4-1.8-1.4C184.3,233.8,184.2,233.9,184.3,234
		 M261.3,235c0,0.8,0.1,1,0.2,0.6c0.1-0.4,0.1-1,0-1.4C261.3,233.9,261.3,234.3,261.3,235 M175.3,235.4c0.1,0.9,0,1.2-0.3,1
		c-0.3-0.2-0.2,0.1,0.1,0.8c0.3,0.6,0.5,1.4,0.5,1.9c0,0.5,0.1,0.8,0.3,0.7c0.2-0.1,0.3-0.1,0.3,0.1c0,0.2,0.5,0.8,1,1.4
		c1.3,1.5,1.3,1,0-0.7c-1.4-1.7-1.8-2.9-1.8-4.9c0-0.9-0.1-1.6-0.2-1.6C175.3,234.2,175.2,234.7,175.3,235.4 M212,234.6
		c0,0.1,1.1,0.2,2.5,0.2c1.4,0,3.1,0,3.8,0.2l1.4,0.2l-1.4-0.5C216.9,234.1,212,234.1,212,234.6 M144.5,235.8c0.6,0.1,1.5,0.1,2.1,0
		c0.5-0.1,0-0.1-1.1-0.1C144.3,235.7,143.9,235.7,144.5,235.8 M189.1,236.7c-0.6,0.7-1.1,1.2-1,1.3c0.1,0.1,0.7-0.5,1.3-1.2
		C190.8,235.2,190.6,235.2,189.1,236.7 M155.2,236.1c0,0.1,0.5,0.4,1,0.7c0.6,0.3,1,0.5,1,0.4s-0.5-0.4-1-0.7
		C155.7,236.1,155.2,236,155.2,236.1 M161.7,237c0.2,0.2,0.4,0.9,0.4,1.5c0,0.6,0.2,1.4,0.3,1.7c0.2,0.4,0.2,0.1,0.1-1
		c-0.1-0.9-0.4-1.9-0.7-2.1C161.5,236.7,161.5,236.7,161.7,237 M212,236.9c-3.7,1.2-7.2,6.2-5,7.1c0.3,0.1,0.6,0.6,0.7,1.1
		c0.6,2.8,5.4,6.3,10.3,7.6c3.6,0.9,3.7,0.9,5.4-0.6c0.8-0.7,2.2-1.8,3.1-2.4l1.7-1.1l-0.2-1.7C227,240.4,218.1,234.9,212,236.9
		 M261.1,238.1c-0.1,0.7,0,1.2,0.1,1.2c0.2,0,0.3-0.5,0.3-1.2c0-0.7-0.1-1.2-0.1-1.2C261.3,236.9,261.2,237.5,261.1,238.1
		 M294.3,238.1c0.1,0.5,0.2,0.9,0.3,0.9s0.2-0.4,0.3-0.9c0.1-0.5,0-0.9-0.3-0.9C294.3,237.3,294.2,237.6,294.3,238.1 M300.4,237.5
		c0.4,0.1,1,0.1,1.4,0c0.3-0.1,0-0.2-0.8-0.1S300,237.4,300.4,237.5 M116.4,238.6c0.3,0.6,0.6,1,0.7,1s-0.1-0.5-0.4-1
		c-0.3-0.6-0.6-1-0.7-1C116,237.6,116.1,238.1,116.4,238.6 M292.4,237.9c0,0.3,0.1,0.8,0.3,1.2c0.2,0.4,0.3,0.5,0.3,0.2
		c0-0.3-0.1-0.8-0.3-1.2C292.5,237.7,292.4,237.6,292.4,237.9 M118.7,239.1c0,0.8,0.1,1,0.2,0.6c0.1-0.4,0.1-1,0-1.4
		C118.8,238,118.7,238.4,118.7,239.1 M296.9,238.5c0.6,0.3,1.3,0.5,1.7,0.5c0.4,0,0-0.2-0.9-0.5
		C295.9,237.8,295.6,237.9,296.9,238.5 M161,240.1c2.1,2.3,1.9,2.1,1.9,1.5c0-0.3-0.1-0.4-0.2-0.3c-0.1,0.1-1-0.6-1.9-1.5l-1.7-1.6
		L161,240.1 M303,238.9c0.5,0.1,0.5,0.2,0.2,0.7c-0.4,0.5-0.4,0.5,0.2,0.1c0.8-0.6,0.8-1.1-0.2-1C302.6,238.7,302.5,238.7,303,238.9
		 M94,240c0.4,0.6,0.8,1,0.9,1s-0.2-0.5-0.6-1s-0.8-1-0.9-1S93.6,239.4,94,240 M300.1,239.2c0.4,0.1,1.1,0.1,1.5,0
		c0.4-0.1,0.1-0.1-0.8-0.1C300,239.1,299.7,239.1,300.1,239.2 M294.7,241.3c0,1.1-0.1,2.6-0.3,3.3c-0.2,0.9-0.2,1.2,0,1
		c0.4-0.4,0.9-6.2,0.5-6.2C294.8,239.3,294.7,240.2,294.7,241.3 M159.8,241.4c0.7,0.8,1.4,1.4,1.5,1.4c0.1,0-0.4-0.6-1.2-1.4
		c-0.7-0.8-1.4-1.4-1.5-1.4C158.6,240,159.1,240.6,159.8,241.4 M253.2,240.2c0.4,0.1,1.1,0.1,1.5,0c0.4-0.1,0.1-0.1-0.8-0.1
		C253.2,240.1,252.8,240.2,253.2,240.2 M256.7,242.3l-1.9,2L256.7,242.3c1.9-1.6,2.2-2,2-2C258.7,240.3,257.8,241.2,256.7,242.3
		 M104.1,241.3c0.4,0.4,0.7,0.7,0.8,0.6c0.1-0.1,0.9,0.5,1.7,1.3l1.6,1.5l-1.5-1.6c-0.8-0.9-1.6-1.5-1.7-1.5
		c-0.1,0.1-0.5-0.1-0.9-0.4C103.4,240.5,103.4,240.5,104.1,241.3 M175.2,241.9c-0.1,0.5-0.2,1-0.1,1.1c0.1,0.1,0.2-0.3,0.4-0.8
		c0.1-0.5,0.2-1,0.1-1.1C175.5,241.1,175.4,241.4,175.2,241.9 M195,242.2c-1.3,0.6-0.7,0.6,0.9,0c0.7-0.3,1-0.5,0.7-0.5
		C196.3,241.7,195.6,242,195,242.2 M187.3,242.6c-0.4,0.5-0.4,0.6,0.1,0.1c0.5-0.4,0.7-0.4,1.2,0c0.5,0.4,0.6,0.4,0.1-0.1
		c-0.3-0.3-0.6-0.6-0.7-0.6S187.6,242.3,187.3,242.6 M247.3,243.8l-1,1.1l1.1-1c0.6-0.6,1.1-1.1,1.1-1.1
		C248.5,242.6,248.3,242.8,247.3,243.8 M164.2,244.2c0.1,0.2,0.3,0.4,0.5,0.4c0.2,0,0.5,0.1,0.8,0.3c0.3,0.2,0.3,0-0.1-0.4
		C164.6,243.7,164,243.5,164.2,244.2 M198.3,244.1c-0.4,0.3-0.2,0.3,0.5,0.1c1.3-0.3,1.5-0.5,0.7-0.5
		C199.1,243.8,198.6,243.9,198.3,244.1 M292.4,245c-0.2,0.7-0.2,1.1-0.1,0.9c0.3-0.3,0.9-2.2,0.6-2.2
		C292.8,243.8,292.6,244.3,292.4,245 M119.2,244.6c0.1,0.3,0.5,0.6,0.8,0.7c0.9,0.2,0.8,0.1-0.2-0.6
		C119.2,244.2,119,244.2,119.2,244.6 M125.4,244.4c0.6,0.1,1.5,0.1,2.1,0s0-0.1-1.1-0.1C125.2,244.2,124.8,244.3,125.4,244.4
		 M192.7,244.4c0.6,0.1,1.5,0.1,2.1,0c0.5-0.1,0-0.1-1.1-0.1C192.5,244.2,192.1,244.3,192.7,244.4 M247.9,245.5
		c-1.2,1-1.2,1-0.1,0.3c0.6-0.4,1.2-0.9,1.3-1.1C249.4,244.2,249.1,244.4,247.9,245.5 M166.2,245.3c0,0.1,0.6,0.4,1.2,0.7l1.2,0.5
		l-0.8,0.9l-0.8,0.9l0.9-0.8c1.2-1.1,1.2-1.2-0.4-1.8C166.8,245.4,166.2,245.3,166.2,245.3 M297.3,246.5c-0.7,0.7-1.3,1.4-1.2,1.5
		c0.1,0.1,0.7-0.6,1.5-1.4C299.2,244.8,299,244.7,297.3,246.5 M229.5,246.5c0,0.7,0.1,0.9,0.2,0.6c0.1-0.3,0.1-0.9,0-1.2
		C229.6,245.6,229.5,245.8,229.5,246.5 M163.6,247.5c0.3,1.5,0.5,1.8,0.5,0.7c0-0.5-0.2-1.1-0.3-1.3
		C163.5,246.5,163.5,246.7,163.6,247.5 M304.1,248.3l-1.4,1.5l1.5-1.4c1.4-1.3,1.6-1.6,1.4-1.6C305.5,246.8,304.8,247.5,304.1,248.3
		 M289.9,248.6c-0.8,0.8-1.2,1.2-0.9,1c0.6-0.3,2.9-2.5,2.5-2.5C291.5,247.2,290.8,247.8,289.9,248.6 M110.8,248.5
		c0.4,0.6,0.8,1,0.9,1c0.1,0-0.2-0.5-0.6-1s-0.8-1-0.9-1S110.4,248,110.8,248.5 M293,247.8c0,0.2-0.6,1.1-1.4,2
		c-0.8,0.9-1,1.3-0.5,0.8c1.2-1.1,2.4-2.7,2.1-3C293.1,247.5,293,247.6,293,247.8 M195.6,249.1c0,0.8,0.1,1,0.2,0.6
		c0.1-0.4,0.1-1,0-1.4C195.7,248,195.6,248.3,195.6,249.1 M165.8,249.1c0,0.5,0.1,0.9,0.3,0.9s0.2-0.4,0.1-0.9
		c-0.1-0.5-0.2-0.9-0.3-0.9C165.9,248.2,165.8,248.6,165.8,249.1 M125.4,249.8c-0.2,0.5-0.3,1.1-0.2,1.4c0.1,0.3,0.3-0.1,0.5-0.9
		C126.1,248.7,126,248.4,125.4,249.8 M207.5,249.1c0,0.2,0.2,0.7,0.5,1.2s0.5,0.7,0.5,0.5s-0.2-0.7-0.5-1.2S207.5,248.9,207.5,249.1
		 M250.5,249.5c-0.6,0.7-1.1,1.5-0.9,1.5c0.1,0,0.5-0.5,0.9-1C251.4,248.8,251.4,248.5,250.5,249.5 M111.9,250.5
		c0,0.3,0.3,0.6,0.5,0.7c0.3,0.1,0.3,0,0-0.6C112,249.8,111.8,249.7,111.9,250.5 M292,251.8c-0.8,0.8-1.4,1.5-1.3,1.5
		c0.1,0,0.8-0.7,1.7-1.5c0.8-0.8,1.4-1.5,1.3-1.5S292.8,250.9,292,251.8 M286.1,250.8c-0.1,0.1-0.9,0.3-1.7,0.5
		c-1.2,0.2-1.3,0.3-0.5,0.3c0.9,0,3.5-0.9,2.7-0.9C286.4,250.6,286.2,250.7,286.1,250.8 M298.1,254.6l-3.9,4L298.1,254.6
		c3.8-3.6,4.3-4,4-4C302.1,250.6,300.3,252.4,298.1,254.6 M163.8,252.6c0,0.7,0.1,0.9,0.2,0.6s0.1-0.9,0-1.2
		C163.9,251.7,163.8,252,163.8,252.6 M197.2,253.2c0.3,0.7,0.6,1.1,0.7,1.1c0.2-0.2-0.9-2.3-1.1-2.3
		C196.7,252,196.8,252.5,197.2,253.2 M103.6,252.8c0,0.1,0.5,0.6,1.1,1.1l1.1,1l-1-1.1C103.9,252.7,103.6,252.5,103.6,252.8
		 M126.6,255.2c0,1.1,0.1,1.5,0.1,0.9c0.1-0.6,0.1-1.5,0-2.1C126.7,253.6,126.6,254.1,126.6,255.2 M216.6,255
		c0.7,0.3,2.8,0.5,2.5,0.2c-0.1-0.1-0.8-0.2-1.7-0.3C216.4,254.8,216.1,254.8,216.6,255 M106.7,256.2c0.6,0.7,1.2,1.2,1.3,1.2
		s-0.4-0.5-1-1.2c-0.6-0.7-1.2-1.2-1.3-1.2S106,255.6,106.7,256.2 M118.6,257.5c1.4,1.5,1.7,1.8,1.7,1.5c0-0.1-0.7-0.8-1.6-1.6
		l-1.6-1.5L118.6,257.5 M162.3,257.6c-0.8,1.7-0.7,2,0.1,0.4c0.4-0.7,0.6-1.4,0.6-1.4C162.9,256.5,162.6,257,162.3,257.6 M212,258.1
		c0.4,0.8,0.8,1.4,0.9,1.4s-0.1-0.6-0.5-1.4c-0.4-0.8-0.8-1.4-0.9-1.4C211.3,256.8,211.6,257.4,212,258.1 M165.6,257.9
		c0.1,0.6,0.4,1.2,0.6,1.4c0.2,0.2,0.1-0.2-0.1-0.9C165.6,256.9,165.3,256.6,165.6,257.9 M261.3,257.7c0.3,0.1,0.9,0.1,1.2,0
		s0.1-0.2-0.6-0.2C261.2,257.5,261,257.6,261.3,257.7 M280.4,258.8c0,0.8,0.1,1.2,0.1,0.8c0.1-0.4,0.1-1.1,0-1.5
		C280.5,257.6,280.4,258,280.4,258.8 M164.2,258.6c-0.6,1.3-0.5,1.5,0.2,0.4c0.3-0.5,0.5-1,0.4-1.1
		C164.6,257.8,164.4,258.2,164.2,258.6 M127,258.8c0.1,0.5,0.4,1.1,0.5,1.4c0.2,0.4,0.2,0.3,0.1-0.3c-0.1-0.5-0.4-1.1-0.5-1.4
		C126.9,258.1,126.9,258.2,127,258.8 M292.3,260c-0.8,0.8-1.4,1.5-1.3,1.5s0.9-0.7,1.7-1.5c0.8-0.8,1.4-1.5,1.3-1.5
		C293.9,258.5,293.1,259.2,292.3,260 M215.6,261.2c0.3,0.6,0.6,1,0.7,1c0.1,0-0.1-0.5-0.4-1c-0.3-0.6-0.6-1-0.7-1
		S215.3,260.6,215.6,261.2 M217,262.7c-0.1,0.5,0,0.9,0.1,0.9c0.2,0,0.3-0.4,0.3-0.9c0-0.5-0.1-0.9-0.1-0.9
		C217.2,261.9,217.1,262.3,217,262.7 M203.6,263.6c0.7,0.8,1.4,1.4,1.5,1.4c0.1,0-0.4-0.6-1.2-1.4c-0.7-0.8-1.4-1.4-1.5-1.4
		C202.3,262.2,202.9,262.8,203.6,263.6 M269,263.6c-0.2,0.4-0.3,0.8-0.2,0.9c0.1,0.1,0.3-0.2,0.4-0.6c0.2-0.6,0.3-0.7,0.8-0.3
		c0.5,0.4,0.5,0.4,0.1-0.2C269.5,262.8,269.5,262.8,269,263.6 M115.9,265.5c1,1,1.9,1.9,2,1.9c0.1,0-0.7-0.8-1.7-1.9
		c-1-1-1.9-1.9-2-1.9S114.9,264.4,115.9,265.5 M131.1,265.3c0.7,0.8,1.4,1.4,1.5,1.4c0.1,0-0.4-0.6-1.2-1.4
		c-0.7-0.8-1.4-1.4-1.5-1.4C129.9,263.9,130.4,264.5,131.1,265.3 M167.2,265c0.4,0.6,0.8,1,0.9,1c0.1,0-0.2-0.5-0.6-1
		c-0.4-0.6-0.8-1-0.9-1C166.5,263.9,166.8,264.4,167.2,265 M169.2,264.7c0,0.1,0.5,0.6,1.1,1.1l1.1,1l-1-1.1
		C169.5,264.7,169.2,264.5,169.2,264.7 M206.2,266.5c0.6,0.7,1.2,1.2,1.3,1.2s-0.4-0.5-1-1.2s-1.2-1.2-1.3-1.2
		C205.1,265.3,205.5,265.8,206.2,266.5 M203.4,266.1c0,0.1,0.5,0.6,1.1,1.1l1.1,1l-1-1.1C203.7,266.1,203.4,265.8,203.4,266.1
		 M158.3,267.6l-1.2,1.3l1.3-1.2c1.2-1.1,1.4-1.4,1.2-1.4C159.5,266.3,158.9,266.9,158.3,267.6 M282.9,267.6l-1,0.9l1.1-0.7
		c0.6-0.4,1.1-0.8,1.1-0.9C284.1,266.6,284,266.6,282.9,267.6 M169.6,267.8c0,0.5,0.1,0.9,0.3,1c0.2,0.1,0.2-0.3,0.1-0.8
		C169.8,266.8,169.6,266.7,169.6,267.8 M197.3,267.1c0.1,0.1,1.1,0.2,2.4,0.3c1.4,0.1,1.8,0.1,1.2-0.1
		C199.8,267.1,197,266.9,197.3,267.1 M254.1,267.5c-0.1,0.3-0.1,0.8-0.1,1.1c0.1,0.4,0.2,0.2,0.3-0.5
		C254.6,267,254.5,266.7,254.1,267.5 M118.3,267.5c0,0.1,0.5,0.6,1.1,1.1l1.1,1l-1-1.1C118.6,267.4,118.3,267.2,118.3,267.5
		 M252.4,267.9c0,0.4-0.1,1.1-0.2,1.5l-0.2,0.9l0.4-0.8c0.2-0.5,0.3-1.2,0.2-1.5C252.4,267.2,252.4,267.2,252.4,267.9 M266.8,268.4
		c-0.3,0.9,0.1,1.3,0.6,0.7c0.3-0.4,0.3-0.4,0-0.2c-0.4,0.2-0.4,0.1-0.2-0.5c0.1-0.4,0.2-0.7,0.1-0.7
		C267.1,267.7,267,268,266.8,268.4 M155.7,269.6c-0.6,0.5-0.7,0.7-0.3,0.5c0.6-0.3,1.8-1.4,1.5-1.4
		C156.8,268.7,156.3,269.1,155.7,269.6 M258.1,269.3c0.3,0.2,0.9,0.4,1.4,0.5c0.6,0.2,0.7,0.1,0.3-0.1c-0.3-0.2-0.9-0.4-1.4-0.5
		C257.9,269.1,257.8,269.1,258.1,269.3 M159.1,271.5l-1,1.1l1.1-1c1-0.9,1.3-1.2,1-1.2C160.2,270.4,159.7,270.9,159.1,271.5
		 M145.1,271.1l-2.7,0.2l2.6,0c1.4,0,2.9-0.1,3.2-0.3c0.4-0.2,0.5-0.3,0.2-0.3C148.1,270.9,146.6,271,145.1,271.1 M179.7,271.4
		c0.7,0.3,2.5,0.5,2.2,0.2c-0.1-0.1-0.8-0.2-1.5-0.3C179.4,271.2,179.2,271.2,179.7,271.4 M150.3,272.4c-0.1,0.2,0.2,0.7,0.7,1.1
		l0.9,0.8l-0.8-0.9c-0.4-0.5-0.7-1-0.5-1.1c0.1-0.1,0.1-0.2,0-0.2C150.6,272.1,150.4,272.3,150.3,272.4 M259.4,273
		c-1.3,0.7-1.2,1,0.2,0.3c1.3-0.7,1.5-0.8,1.1-0.8C260.5,272.5,259.9,272.7,259.4,273 M140.7,273.1c0.2,0.3,1.9,0.1,1.9-0.2
		c0-0.1-0.5-0.1-1-0.1C140.9,272.8,140.6,273,140.7,273.1 M144,273.4c0.5,0.1,1.3,0.1,1.7,0c0.4-0.1,0-0.1-0.9-0.1
		C143.8,273.3,143.5,273.3,144,273.4 M168,273.8c-0.1,0.2,0,0.7,0.3,1.1c0.3,0.4,0.5,0.6,0.5,0.4s-0.2-0.5-0.4-0.6
		c-0.2-0.1-0.3-0.4-0.2-0.7C168.6,273.4,168.3,273.3,168,273.8 M271.6,274.9c-0.6,0.4-0.9,0.7-0.7,0.7c0.3,0,2.2-1.3,1.9-1.3
		C272.7,274.2,272.2,274.5,271.6,274.9 M154.4,275.1c-0.4,0.1-0.8,0.3-1,0.5s0.3,0.1,1-0.1C156.4,275,156.3,274.6,154.4,275.1
		 M249.8,276.5c-0.7,0.8-0.8,1-0.5,1.3c0.3,0.1,0.3,0.1,0.2,0c-0.1-0.2,0.2-0.7,0.7-1.3c0.5-0.5,0.8-1,0.8-1
		C250.8,275.6,250.3,276,249.8,276.5 M152.6,277.5c0.9,1,1.5,1.8,1.4,2s-0.1,0.2,0.2,0.2c0.7,0,0.4-0.5-1.4-2.2l-1.8-1.7
		L152.6,277.5 M252.3,276.4c-0.5,0.3-0.7,0.5-0.5,0.5s0.7-0.2,1.2-0.5c0.5-0.3,0.7-0.5,0.5-0.5S252.8,276.1,252.3,276.4 M155.5,278
		c1.4,1.5,1.7,1.8,1.7,1.5c0-0.1-0.7-0.8-1.6-1.6l-1.6-1.5L155.5,278 M166,276.8c-0.4,0.4-0.3,2.1,0.1,2.9c0.4,0.7,1,0.6,1-0.1
		c0-0.3-0.1-0.2-0.3,0.1c-0.4,0.6-0.9-1-0.6-2.2C166.4,276.5,166.4,276.5,166,276.8 M162.2,279.4l-1,1.1l1.1-1c1-0.9,1.3-1.2,1-1.2
		C163.3,278.3,162.8,278.8,162.2,279.4 M261.1,280.5c-1.3,0.7-1.2,1,0.1,0.3c0.6-0.3,1-0.6,1-0.7C262.2,279.9,262.2,280,261.1,280.5
		 M166.5,282.2c0.6,0.7,1.2,1.2,1.3,1.2c0.1,0-0.4-0.5-1-1.2c-0.6-0.7-1.2-1.2-1.3-1.2C165.4,281,165.9,281.6,166.5,282.2
		 M139.8,281.9c0,0.2,2.1,1.3,2.3,1.1c0.1-0.1-0.4-0.4-1.1-0.7C140.4,282,139.8,281.8,139.8,281.9 M162.4,282.6
		c1.6,0.6,2.2,0.6,0.9,0c-0.6-0.3-1.3-0.5-1.5-0.5C161.4,282.1,161.7,282.3,162.4,282.6 M185.6,283.3l-1.2,1.3l1.3-1.2
		c1.2-1.1,1.4-1.4,1.2-1.4C186.8,282.1,186.3,282.6,185.6,283.3 M208.9,284.2c-1.4,1.7-1.4,1.7-0.2,0.6c1.1-1,2.2-2.4,1.8-2.4
		C210.5,282.4,209.7,283.2,208.9,284.2 M186.8,284.7c-1.1,1.1-1.6,1.6-1,1.2c0.6-0.4,1.5-1.2,2-1.8c0.5-0.6,1.1-0.9,1.3-0.8
		c0.2,0.1,0.2,0,0.1-0.2C189,282.6,189.2,282.5,186.8,284.7 M224.2,283.8c0.3,1.5,0.5,1.8,0.5,0.7c0-0.5-0.2-1.1-0.3-1.3
		C224,282.7,224,282.9,224.2,283.8 M180.9,286c-0.7,0.3-1,0.5-0.7,0.5c0.3,0,1-0.2,1.5-0.5C183,285.4,182.4,285.4,180.9,286
		 M186.9,287.8c0.4,0.1,1.1,0.1,1.5,0c0.4-0.1,0.1-0.1-0.8-0.1C186.8,287.6,186.5,287.7,186.9,287.8 M197.3,287.8
		c0.4,0.3,0,0.4-1.4,0.5c-1.5,0.1-1.3,0.1,0.9,0.2c2.6,0.1,2.9-0.2,0.9-0.8C197,287.5,196.9,287.6,197.3,287.8 M202.2,288
		c-0.6,0.5-0.6,0.5,0.7,0.5c0.8,0,1.1-0.1,0.7-0.2c-0.5-0.1-0.6-0.2-0.2-0.5c0.4-0.3,0.4-0.3-0.1-0.3
		C203.1,287.5,202.6,287.7,202.2,288 M212.1,287.8c0.5,0.1,1.4,0.1,1.9,0c0.5-0.1,0.1-0.1-0.9-0.1
		C212,287.6,211.5,287.7,212.1,287.8 M243.9,288c-0.9,0.4-0.9,0.5-0.2,0.3c1-0.2,2.1-0.8,1.5-0.8C245.1,287.5,244.5,287.8,243.9,288
		 M190.2,288.1c0.5,0.1,1.4,0.1,1.9,0s0.1-0.1-0.9-0.1C190.1,288,189.7,288,190.2,288.1 M207.4,288.1c0.6,0.1,1.6,0.1,2.2,0
		c0.6-0.1,0.1-0.1-1.1-0.1S206.8,288,207.4,288.1 M158.1,289.8c0.6,0.3,1.3,0.5,1.5,0.5c0.3,0,0-0.2-0.7-0.5
		C157.4,289.1,156.8,289.2,158.1,289.8 M239,289.7c-0.7,0.3-1,0.5-0.7,0.5c0.3,0,1-0.2,1.5-0.5C241.1,289.2,240.5,289.1,239,289.7
		 M232.6,291.6c-0.4,0.2-0.5,0.3-0.2,0.3c0.3,0,0.8-0.1,1.2-0.3c0.4-0.2,0.5-0.3,0.2-0.3C233.6,291.3,233,291.5,232.6,291.6
		 M225,293.4c-0.8,0.2-1.4,0.4-1.3,0.5c0.2,0.2,3.7-0.5,3.7-0.7C227.4,292.9,226.8,293,225,293.4 M184.2,295.3
		c0.4,0.1,1.1,0.1,1.5,0c0.4-0.1,0.1-0.1-0.8-0.1C184.1,295.1,183.8,295.2,184.2,295.3 M187.8,295.6c0.5,0.1,1.4,0.1,1.9,0
		c0.5-0.1,0.1-0.1-0.9-0.1S187.3,295.6,187.8,295.6 M212.2,295.6c0.4,0.1,1.1,0.1,1.5,0c0.4-0.1,0.1-0.1-0.8-0.1
		C212.1,295.5,211.8,295.5,212.2,295.6 M191.9,296c0.5,0.1,1.3,0.1,1.7,0c0.4-0.1,0-0.1-0.9-0.1C191.7,295.8,191.4,295.9,191.9,296
		 M209,296c0.3,0.1,0.9,0.1,1.2,0c0.3-0.1,0.1-0.2-0.6-0.2S208.6,295.9,209,296 M200.4,296.3c0.7,0.1,1.9,0.1,2.6,0
		c0.7-0.1,0.1-0.1-1.3-0.1C200.3,296.2,199.7,296.2,200.4,296.3"/>
</g>
</svg>
