<?xml version="1.0" encoding="utf-8"?>
<!-- Generator: Adobe Illustrator 21.0.2, SVG Export Plug-In . SVG Version: 6.00 Build 0)  -->
<svg version="1.1" id="svg" xmlns="http://www.w3.org/2000/svg" xmlns:xlink="http://www.w3.org/1999/xlink" x="0px" y="0px"
	 viewBox="0 0 249.2 54" style="enable-background:new 0 0 249.2 54;" xml:space="preserve">
<style type="text/css">
	.st0{fill:#86C141;}
	.st1{fill:#29251F;}
	.st2{fill:#EA5A26;}
	.st3{fill:#9CA791;}
</style>
<g id="svgg">
	<path id="path0" class="st0" d="M27.7,5.5c-0.2,0.2-0.3,0.3-0.2,0.2c1-0.5,1.1-0.6,0.9-0.6C28.2,5.2,27.9,5.3,27.7,5.5 M28.1,5.8
		c-0.7,0.4-0.9,0.9-0.8,1.5c0.1,0.4,0.1,0.4,0.1-0.1c0-0.3,0.1-0.5,0.2-0.5s0.1,0.1,0.1,0.3c-0.4,1.5,2.3,2.4,3.4,1.1
		C32.4,6.5,29.9,4.7,28.1,5.8 M30.9,6.4c0.4,0.3,0.5,0.9,0.2,0.9c-0.1,0-0.2,0.1-0.1,0.2c0.1,0.2-0.3,0.7-0.9,1
		c-0.8,0.4-2.2-0.6-2.1-1.6c0-0.2,0-0.4-0.1-0.5S27.8,6.3,28,6.3c0.2,0,0.3-0.1,0.3-0.2C28.4,5.6,30.2,5.8,30.9,6.4 M8.5,12.3
		c0,0.1,0.1,0.3,0.2,0.3s0.1,0,0.1,0.1c-0.1,0.1,0.1,0.3,0.4,0.5c0.5,0.4,1.6,2.1,2.5,3.6s1.1,1.5,0.8,0C12,14.5,10.2,12,9.1,12
		C8.7,12,8.5,12.1,8.5,12.3 M10.8,12.5c0.2,0.4,1.2,1.7,1.2,1.6c0-0.3-0.5-1-0.9-1.4C10.9,12.4,10.7,12.4,10.8,12.5 M24.4,17.1
		c0,0.1,0.2,0.6,0.5,1.2s0.5,1.1,0.5,1.2c0,0.3,0.3,0.2,1.1-0.7c1-1,1-1.2,0.5-1.5C26.6,17.1,24.4,16.9,24.4,17.1 M42.8,18.6
		c-0.3,0.7-0.3,0.8,0,1.1c0.3,0.4,0.1,0.5-0.2,0.1c-0.2-0.2-0.2-0.2-0.1,0c0,0.2,0.3,0.3,0.6,0.3s0.9,0.1,1.3,0.2
		c0.6,0.1,0.7,0.1,0.6-0.1c-0.1-0.1,0-0.5,0.1-0.9c0.2-0.7,0-1-0.8-1.2c-0.5-0.1-0.5-0.1-0.1,0.1c0.9,0.4,0.7,1.9-0.3,1.7
		c-0.6-0.1-1.1-0.4-1.1-0.6c0-0.3,0.2-0.7,0.3-0.6c0.1,0,0.1,0,0.1-0.1s0-0.4,0.2-0.5c0.3-0.3,0.2-0.3-0.1-0.3
		C43.2,17.8,43,18.1,42.8,18.6 M165.4,18.7c-4.4,1.1-6.9,4.8-5.8,8.5c0.7,2.5,2.4,3.6,7.4,4.8c4.2,1,5.2,1.6,5.2,3.1
		c0,3-7.3,3.5-11.2,0.7c-0.3-0.2-0.5-0.3-0.5-0.3c-0.1,0.1-1.4,3.2-1.4,3.3c0,0.9,4.7,2.4,7.8,2.6c6.1,0.4,10.1-2.3,10.1-6.7
		c0-3.4-1.8-5-7.5-6.5c-4.2-1.1-5.1-1.5-5.3-2.9c-0.6-3.3,6-4.1,10-1.3c0.6,0.4,0.6,0.4,1.5-1.5c0.8-1.8,0.9-1.7-1.2-2.7
		C172,18.6,167.8,18.1,165.4,18.7 M70,29.9v11.3h7.5H85v-2v-2h-5h-5v-9.3v-9.3h-2.5H70V29.9 M88.2,29.9v11.3h7.7h7.7v-1.9v-1.9h-5.4
		h-5.3v-2.8v-2.8h5h5v-1.9V28h-5h-5v-2.7v-2.7h5.3h5.3v-1.9v-1.9h-7.7h-7.6V29.9 M105.2,18.8c0.2,0.1,0.3,0.4,0.3,2v1.8h3.3
		c1.8,0,3.4,0,3.6,0.1s0.3,1.1,0.3,9.3v9.1h2.4h2.4v-9.3v-9.3h3.5h3.5v-2v-2h-9.8C108,18.7,105,18.7,105.2,18.8 M136.2,26.3
		c0,8.4,0.1,9.1,1.1,11.1c3.1,5.6,14.2,5.5,17-0.3c1-2,1-2,1-10.5l0.1-7.9H153h-2.4v7.8v7.8l-0.4,0.9c-1.3,3-6.3,3.5-8.2,0.8
		c-1-1.4-1-1.8-1-9.9v-7.4h-2.3h-2.5V26.3 M189.7,29.9v11.3h7.7h7.7v-1.9v-1.9h-5.3h-5.3v-2.8v-2.8h5h5v-1.9V28h-5h-5v-2.7v-2.7h5.3
		h5.3v-1.9v-1.9h-7.7h-7.7V29.9 M214.9,21.2c-1.6,3.4-3.9,8.6-5.5,12c-0.7,1.6-1.6,3.5-2,4.3s-0.9,2-1.2,2.5l-0.5,1h2.5h2.5l1.1-2.5
		l1.1-2.5h5.3h5.3l1,2.5l1,2.5h2.4c1.3,0,2.4,0,2.4-0.1s-0.5-1.2-1.1-2.5s-1.4-3.1-1.8-3.9c-0.3-0.8-1.1-2.3-1.6-3.4
		c-0.5-1.1-1.3-2.7-1.7-3.7c-0.4-0.9-1.5-3.3-2.4-5.3l-1.7-3.6h-1.9h-1.9L214.9,21.2 M227.5,20.7v2h3.5h3.5v9.2v9.2h2.4h2.4v-9.2
		v-9.2h3.5h3.5v-2v-2h-9.5h-9.5v2 M39,21c-0.2,0.3,0.4,1.1,0.9,1.3c0.6,0.2,1.2,0.1,1.2-0.2C41,21.4,39.3,20.5,39,21 M48.4,24.7
		c0.1,1.4,0.4,3.1,0.8,4.4l0.2,0.8h0.9c1.1,0.1,1.1,0.2,0.2-1.4c-0.9-1.5-1.5-3.3-1.6-4.4c0-0.5-0.1-0.7-0.4-0.8
		C48.3,23.3,48.3,23.4,48.4,24.7 M219,26.2c2.3,5.2,2.6,6.1,2.5,6.2c-0.2,0.2-7,0.1-7-0.1c0-0.3,3.4-8.1,3.5-8.1
		C218.1,24.2,218.6,25.1,219,26.2 M49.5,25.2c0.1,0.2,0.2,0.7,0.4,1.1s0.3,0.5,0.2,0.3s-0.2-0.7-0.4-1.1
		C49.5,25,49.4,24.9,49.5,25.2 M50.1,28.5C50,28.6,50.1,28.7,50.1,28.5c0.2,0,0.3,0,0.3,0.1s0.2,0.4,0.4,0.7l0.4,0.5l-0.6-0.1
		c-0.7-0.1-0.9-0.5-1.3-2.2c-0.1-0.5-0.2-1.1-0.3-1.3c-0.1-0.3,0.2,0,0.6,0.8C49.9,27.8,50.2,28.4,50.1,28.5 M9.5,29.9
		c-0.1,0.2,0.1,0.2,0.7,0.2H11l-0.5-0.2C9.8,29.6,9.6,29.6,9.5,29.9 M49.6,30.8c-0.1,0.2,1.6,0.2,1.8,0c0.1-0.1-0.3-0.1-0.8-0.1
		S49.7,30.7,49.6,30.8 M9.4,31c0,0.2,1.2,0.8,1.6,0.8c0.3,0,0.6-0.5,0.5-0.8C11.3,30.8,9.4,30.7,9.4,31 M7.7,32.2
		c-0.3,1.3-0.2,1.4,1.4,1.5c0.6,0.1,1.3,0.2,1.5,0.2c0.6,0.2,0.4-0.1-0.3-0.7c-0.4-0.3-0.9-0.8-1.3-1.3C8.1,30.9,8,31,7.7,32.2
		 M35.3,31.4c-0.2,0-0.4,0.2-0.6,0.3c-0.1,0.2-0.3,0.3-0.5,0.3c-0.5,0-1.7,2-1.7,3c0,3.6,5,4.2,6.7,0.8C40.4,33.3,38,30.7,35.3,31.4
		 M42.9,31.6c-1,0.1-1,1.5,0,2.1c0.4,0.2,1.3-0.5,1.3-1.1C44.2,32.1,43.5,31.6,42.9,31.6 M36.2,34.5c0.2,0,0.3-0.1,0.5-0.6
		c0.2-0.7,0.6-1.3,0.8-1.2c0.1,0.1-0.1,0.5-0.3,1l-0.4,0.9l0.4-0.6c0.3-0.3,0.5-0.6,0.5-0.7c0-0.1,0.1-0.1,0.2-0.1
		c0.1,0-0.1,0.5-0.5,1c-0.8,1.2-0.8,1.5-0.2,2.2c0.2,0.3,0.4,0.5,0.3,0.5c-0.6,0-1.2-1.3-0.9-1.8c0.1-0.2,0.1-0.3-0.3-0.3
		c-0.5-0.1-1.2-1.1-1.2-1.7c0-0.2,0.2,0.1,0.5,0.6S36.1,34.4,36.2,34.5 M50,33c-0.5,0.6-0.3,1.2,0.4,1.5c0.8,0.3,1.1,0.2,1.2-0.3
		c0.2-0.7,0.1-1-0.6-1.2c-0.3-0.1-0.7-0.3-0.7-0.3C50.3,32.7,50.1,32.8,50,33 M34.9,34.3c0,0.6-0.6,1-1.1,0.8
		c-0.2-0.1-0.2-0.2,0.3-0.2c0.6-0.1,0.7-0.5,0.4-1.3c-0.1-0.3-0.1-0.3,0.1-0.1C34.7,33.6,34.9,33.9,34.9,34.3 M26.6,34.3
		c-0.7,0.6-0.9,1-0.3,0.8c0.2-0.1,0.2-0.1,0,0.1c-0.2,0.1-0.2,0.2,0.2,0.5c0.2,0.2,0.7,0.7,1,1.1c0.6,0.9,0.5,0.9,1.7-0.1l0.9-0.8
		l-1.2-1.1C27.6,33.5,27.6,33.5,26.6,34.3 M28.8,34.9l1,0.9l-0.4,0.4c-0.7,0.7-1.8,0.8-1.8,0c0-0.1-0.2-0.3-0.4-0.5
		c-0.7-0.6-0.8-1-0.3-1.4C27.5,33.9,27.7,33.9,28.8,34.9 M15.3,35.9c0.7,1.5,0.7,1.5,1.7,0.5c1.2-1.2,0.8-1.6-1.4-1.6h-0.9
		L15.3,35.9 M21.4,35.9c-0.3,0.5-0.7,1-1,1.1c-0.6,0.3-0.6,0.6,0,1.1c0.9,0.7,2.7-2.1,1.7-2.9C22,35.1,21.8,35.3,21.4,35.9
		 M35.9,35.7c0.3,0.5,0.5,1.5,0.3,1.4c-0.1-0.1-0.2-0.4-0.3-0.7c-0.2-1-0.5-1.1-1.5-0.4c-0.8,0.5-0.9,0.4-0.2-0.2
		C34.9,35.2,35.6,35.2,35.9,35.7 M13.1,37.6c-0.2,0.3-0.3,0.6-0.3,1.1c0,0.4,0.1,1.1,0.1,1.6c0.1,1.1,0.1,1.1,1.1,1s1.9-1,1.5-1.5
		c-0.3-0.3-0.2-0.9,0-1.6c0.2-0.5,0.2-0.6,0-0.7c-0.4-0.2-0.6-0.2-0.3,0.1c0.2,0.2,0.2,0.3,0,0.6c-0.2,0.5-0.3,1.4-0.1,1.6
		c0.2,0.1-0.2,0.9-0.4,0.9c-0.1,0-0.1,0.1,0,0.2c0.1,0.1-0.1,0.2-0.3,0.2c-0.2,0-0.5,0-0.7,0.1c-0.5,0.1-0.6-0.2-0.5-1.9
		c0-0.7,0-1.3-0.1-1.2c-0.1,0-0.1-0.1,0.1-0.3s0.4-0.4,1-0.4l0.8-0.1h-0.8C13.5,37.2,13.3,37.2,13.1,37.6 M37.6,38.5
		c-0.7,0.7,0.4,2.1,1.4,1.8c0.7-0.3,0.5-1.2-0.4-1.6C37.7,38.3,37.8,38.3,37.6,38.5 M15.5,39.2c0,0.3,0.1,0.5,0.2,0.5
		s0.2-0.2,0.2-0.5s-0.1-0.5-0.2-0.5S15.5,38.9,15.5,39.2 M34.4,39.3c-0.5,0.3-0.4,0.7,0.4,1.5c0.3,0.3,0.6,0.8,0.7,0.9
		c0.2,0.5,1.2-0.3,1.7-1.3C37.6,39.5,35.3,38.6,34.4,39.3 M23.9,39.8c0,0.5,0.6,1.1,1.2,1.2c0.7,0.1,0.9-0.1,0.8-0.6
		C25.6,39.7,23.9,39.1,23.9,39.8 M29.9,40.4c-1.3,1.3,1.5,3.4,3,2.3c0.7-0.5,0.7-1,0.1-1.7C32.2,39.9,30.7,39.6,29.9,40.4
		 M38.7,42.2c-1.2,1.3-1.2,2,0,1.4c0.4-0.2,0.7-0.2,1.2-0.1c1.9,0.4,1.9,0-0.1-2.5C39.8,41,39.3,41.5,38.7,42.2 M40.3,42.2
		c0.9,1,0.7,1.3-0.8,1.1l-1.3-0.2l0.7-0.8C39.7,41.4,39.6,41.4,40.3,42.2"/>
	<path id="path1" class="st1" d="M38.1,4.5c-0.2,0.4-0.3,0.7-0.1,0.7c0.1,0,0.2-0.2,0.3-0.5C38.5,4.1,38.4,4,38.1,4.5 M18.8,5.3
		c-0.1,0.1,0.2,0.5,0.6,0.9c0.7,0.8,1.1,1.1,0.8,0.5C19.9,6.2,19,5.1,18.8,5.3 M28.1,5.4c-1.4,0.7-1.5,2.1-0.2,3s2.6,0.8,3.4-0.1
		C32.7,6.6,30.2,4.4,28.1,5.4 M30.3,5.8c1.3,0.6,1.6,1.4,0.8,2.3C30,9.4,27.3,8.5,27.7,7c0-0.2,0-0.3-0.1-0.3s-0.2,0.2-0.2,0.5
		c0,0.5,0,0.5-0.1,0.1C27,6,28.7,5.1,30.3,5.8 M10.2,6C10.1,6.2,10,6.4,10,6.6c0,0.1,0.1,0,0.3-0.3c0.1-0.3,0.2-0.5,0.2-0.6
		C10.4,5.7,10.3,5.8,10.2,6 M48.8,7.1c0.2,0.1,0.4,0.2,0.5,0.2s0-0.1-0.1-0.3c-0.2-0.1-0.4-0.2-0.5-0.2C48.5,6.8,48.6,7,48.8,7.1
		 M35.7,9c-1.2,0.1-0.8,0.3,0.5,0.3h1.2l0.4,1.2c0.5,1.5,0.4,1.6-1.3,1.9c-1.5,0.3-1.5,0.3-1.7-1.6c-0.1-1-0.2-1.3-0.3-1
		c-0.2,0.5,0,2.3,0.3,2.7c0.9,0.9,3.3-0.1,3.3-1.3C38.2,9.4,37.5,8.8,35.7,9 M8.8,11.8C8.7,11.9,8.9,12,9.2,12c1,0,2.9,2.6,3.3,4.7
		c0.4,1.7,0.1,1.6-1-0.4c-0.9-1.5-1.9-2.9-2.3-3.3c-0.5-0.4-0.4-0.1,0.2,0.8c0.4,0.5,1,1.4,1.3,2.1c1.7,3.1,3.1,2.3,1.6-1
		C11.4,12.8,9.3,11,8.8,11.8 M53.9,14.6c-1.2,0.7-1.5,1.1-0.6,0.6c0.4-0.2,0.9-0.4,1.3-0.5c0.3-0.1,0.6-0.4,0.6-0.5
		C55.2,13.9,55.1,13.9,53.9,14.6 M15.3,15.6c0.2,0.3,0.5,0.5,0.6,0.5c0.4,0,0.2-0.4-0.5-0.7l-0.6-0.3L15.3,15.6 M31.1,15.8
		c-0.2,0.2-0.4,0.4-0.4,0.5s0.1,0,0.3-0.2c0.8-1.1,3.1,0,2.6,1.2c-0.2,0.6-1.8,0.2-2.2-0.5c-0.1-0.2-0.2-0.2-0.2-0.1
		c0,0.9,2.1,1.6,2.5,0.9C34.4,16.3,32.2,14.8,31.1,15.8 M24.2,16.8c0.1,0.1,0.8,0.2,1.4,0.2c1.2,0.1,1.8,0.3,1.8,0.7
		c0,0.2-1.8,2.1-1.9,1.9c0,0-0.2-0.5-0.4-1c-0.5-1.1-0.9-1.6-0.9-1.2c0,0.3,1.1,2.8,1.3,2.8c0.3,0,2.1-2,2.1-2.3
		c0-0.5-0.5-0.8-1.3-1C25.3,16.6,23.8,16.6,24.2,16.8 M3.2,17.7c0,0.1,0.2,0.3,0.5,0.4s0.8,0.5,1.3,0.8c0.9,0.7,1,0.6,0.1-0.3
		C4,17.6,3.2,17.2,3.2,17.7 M42.6,18.2c-0.5,1.3,0,2,1.7,2.2c0.5,0.1,0.5,0-0.3-0.2c-1.4-0.4-1.6-0.7-1.2-1.7
		c0.3-0.8,0.3-0.8,0.9-0.7c1.4,0.3,1.6,0.6,1.3,1.8c-0.1,0.3-0.1,0.4,0.1,0.2c0.6-0.5,0.3-1.6-0.5-2C43.4,17.3,43,17.4,42.6,18.2
		 M18.1,19.2c0,0.6,0.2,1.4,0.6,2.1c0.7,1.5,0.7,1.5,0,1c-1.2-0.9-2.7-1.4-3.6-1.1c-0.6,0.2-2,1.3-1.6,1.3c0.1,0,0.4-0.2,0.6-0.4
		c0.9-0.9,2.3-0.8,3.9,0.3c1.4,1,2.2,2.5,2.5,5.1l0.2,1.3v-1.7c0-1.5-0.1-1.8-0.6-2.8c-0.3-0.6-0.6-1.4-0.6-1.6c0-0.3-0.3-1-0.6-1.6
		c-0.3-0.6-0.6-1.5-0.7-2L18,18.3L18.1,19.2 M19.7,19.5c-0.2,0.1-0.1,0.1,0.3,0.1c0.7-0.1,0.9-0.2,0.3-0.2
		C20.1,19.3,19.8,19.4,19.7,19.5 M14.9,20.1c0,0.1,0.2,0.3,0.4,0.5l0.4,0.3l-0.3-0.5C15,20,14.9,19.9,14.9,20.1 M23,21.4
		c-0.7,1-0.6,1.1,0.2,0.2c0.7-0.7,0.8-0.9,0.5-0.9C23.6,20.7,23.3,21,23,21.4 M30.4,20.9c-0.9,0.4-3.6,3.8-6.3,7.6L23.2,30H22
		c-0.7,0-1.7,0-2.2,0.1c-0.8,0.1-1,0.1-1-0.1c0-0.1-0.3-0.6-0.7-1c-1.8-2-5.1-1.5-5.8,0.8c-0.2,0.7-0.6,0.7-1.1,0.2
		c-0.6-0.7-2-0.6-2.3,0.1c-0.1,0.2-0.5,0.3-1.7,0.4c-1.6,0.1-1.5,0.4,0.3,0.4c0.7,0,0.9,0.1,1,0.3c0.1,0.3,1.5,1.8,2.2,2.3
		c0.6,0.5,0.5,0.6-0.6,0.4c-1.5-0.3-2.6-0.3-2.3-0.2c0.2,0.1,2.7,0.6,3.1,0.6c0,0-0.1,0.2-0.2,0.5l-0.2,0.5l-0.6-0.5
		c-0.8-0.7-2.8-0.2-2.8,0.6c0,0.1,0.3-0.1,0.7-0.4c1-0.7,1.2-0.7,2.5,0.5c1.2,1.2,1.2,1.3-0.1,2c-1,0.5-1.2,0.6-1.3,0.2
		c-0.1-0.4-1.2-1.7-1.3-1.5c0,0.1,0.3,0.6,0.7,1.1c0.4,0.6,0.7,1.1,0.6,1.2c-0.3,0.7-2.2-3.3-3.2-6.5c-0.4-1.2-0.7-2.3-0.8-2.4
		c-0.2-0.8,0,2.6,0.3,3.8c1.8,7.7,8.4,14.6,16,16.7c14.4,3.9,29-4.6,32.5-19c0.4-1.7,0.4-1.9,0-1.9c-0.2,0-0.3,0.1-0.3,0.3
		c0,0.4-0.8,2.9-1,3.4c-0.1,0.3-0.2,0.3-0.7-0.2c-0.3-0.3-0.6-0.5-0.7-0.5c-0.1,0,0.1,0.2,0.4,0.5c0.4,0.3,0.6,0.6,0.6,0.9
		c0,0.4-1.8,4.3-2,4.3s-1.2-1.3-1-1.4c0.1-0.1,0.3-0.7,0.5-1.4c0.3-1.1,0.3-1.2,0.5-0.9c0.1,0.2,0.4,0.4,0.6,0.6
		c0.3,0.2,0.3,0.1-0.1-0.3c-0.6-0.7-0.6-1.1,0-1.7c0.4-0.5,0.4-0.5,0.1-0.3c-0.2,0.1-0.5,0.4-0.6,0.7l-0.2,0.5l-0.4-0.4
		c-0.9-0.9-2.7-1.1-2.7-0.2c0,0.1,0.1,0.1,0.2-0.1c0.3-0.5,2.3-0.1,2.6,0.6c0.1,0.3-0.4,2.8-0.6,3c-0.3,0.3-1.5-0.2-1.7-0.7
		c-0.1-0.2-0.2-0.4-0.3-0.4c-0.2,0-0.2-0.5,0.2-1.2c0.2-0.4,0.3-0.8,0.3-0.9c0-0.1-0.3,0.2-0.5,0.7c-0.3,0.6-0.5,0.8-0.7,0.8
		c-0.1-0.1-0.5-0.3-0.8-0.5c-0.7-0.4-1.1-0.5-1.7-0.1c-0.4,0.2-0.5,0.2-0.5,0c0-0.1,0.2-0.2,0.4-0.2s0.5-0.2,0.7-0.4l0.3-0.4
		l-0.4,0.3c-1.1,0.7-2.5-0.6-2-1.6c0.2-0.3,0.2-0.5,0.1-0.5c-0.2,0-0.5,0.6-0.5,1c0,0.3-0.1,0.3-0.4,0.2c-0.3-0.1-0.6-0.1-1,0.1
		L39.8,33l-0.7-0.7c-1.5-1.5-4-1.7-5.3-0.6c-0.3,0.3-0.3,0.3-0.5-0.1c-0.1-0.2-0.3-0.5-0.5-0.7c-0.4-0.4,9.5-0.2,10.5,0.1
		c0.4,0.2,0.6,0.1,1.1-0.1c0.8-0.4,4.8-0.4,5.1,0c0.3,0.3,1,0.3,1.4,0c0.2-0.1,0.6-0.3,1-0.4c0.7-0.1,0.8-0.6,0.1-0.6
		c-0.6,0-2.2-3-2.9-5.2c-0.4-1.5-0.6-1.4-0.3,0.1c0.3,1.3,0.9,2.6,1.7,4c0.7,1.2,0.8,1.2-0.4,1.1h-0.9L49,29.1
		c-0.4-1.3-0.7-2.9-0.8-4.4c-0.1-1.2-0.1-1.3-0.3-0.9c-0.2,0.7,0.1,3.3,0.6,4.8c0.2,0.7,0.4,1.2,0.4,1.2s-0.9,0.1-2,0.1l-2,0.1
		l-0.2-0.5c-0.2-0.6-0.8-1.2-1.2-1.2c-0.2,0-0.2,0.1,0.2,0.3s0.8,0.7,0.8,1.1c0,0.1-0.4,0.2-1,0.2c-1.2,0-1.4-0.8-0.4-1.5
		c0.1-0.1,0.1-0.1,0-0.1c-0.3,0-0.7,0.9-0.7,1.4v0.4L38.6,30C30.2,29.8,28,29.8,28,29.7c-0.1-0.1,2-4.8,3-6.6
		c0.5-0.9,0.8-1.7,0.8-1.7c-0.2-0.2-2.2,3.5-3.3,5.9l-1.1,2.5h-1.9c-1.8,0-1.9,0-1.7-0.3c0.1-0.2,1.3-1.7,2.7-3.5
		c2.9-3.8,3.8-4.8,4.5-5.1c0.4-0.2,0.5-0.3,0.2-0.3C31.1,20.7,30.7,20.8,30.4,20.9 M38.9,20.8c-0.3,0.2-0.1,0.9,0.4,1.4
		c0.4,0.4,1.5,0.6,1.7,0.2c0.1-0.1,0-0.1-0.3-0.1c-0.8,0.3-2.2-1-1.7-1.5c0.3-0.3,1.4,0.1,1.8,0.7c0.4,0.6,0.5,0.6,0.2-0.1
		C40.7,20.9,39.5,20.4,38.9,20.8 M14.7,22.8c-0.2,0.8-0.2,1.1,0,1.1c0.1,0,0.4-1.5,0.3-1.6C14.9,22.2,14.8,22.4,14.7,22.8
		 M23.2,22.5c-0.8,0.3-2.1,0.9-2.1,1.1c0,0,0.4-0.1,1-0.3c0.5-0.2,1.3-0.4,1.7-0.5c0.4-0.1,0.7-0.2,0.7-0.3
		C24.4,22.1,24.3,22.1,23.2,22.5 M34.7,23.3c-0.8,0.4-2.4,2-2.7,2.9c-0.7,1.5,0.3,2,2,1.2c1.2-0.6,1.9-0.6,2.9,0.1
		c0.4,0.2,0.6,0.4,0.6,0.3c0-0.8-2.5-1.3-3.5-0.6c-1.9,1.3-2.8,0.2-1.4-1.5c2-2.4,4.4-3.2,3.7-1.2c-0.3,0.9-0.3,1.1,0.6,2
		c0.4,0.4,0.8,1,0.9,1.2c0.2,0.1,0.4,0.3,0.4,0.3c0.4,0-0.1-0.7-1.2-1.9c-0.6-0.7-0.7-0.8-0.6-1.3c0.3-1.2,0.3-1.3,0-1.6
		S35.4,22.9,34.7,23.3 M45.3,24.7c-0.8,0.9-0.6,0.9,0.4,0c0.4-0.4,0.6-0.7,0.5-0.7C46,24,45.6,24.3,45.3,24.7 M10.8,24.6
		c0.7,0.6,0.8,1.1,0.5,1.8L11,26.9l0.3-0.4c0.6-0.7,0.4-1.5-0.6-2.1l-0.5-0.3L10.8,24.6 M9.5,24.7C9,25.5,9.6,27,10.4,27
		c0.1,0-0.1-0.2-0.4-0.5c-0.7-0.6-0.8-1.1-0.4-1.8c0.1-0.2,0.2-0.4,0.2-0.4C9.8,24.3,9.6,24.5,9.5,24.7 M16.8,28.4
		c0.7,0.4,1.6,1.3,1.6,1.6c0,0.2-1.8,0.3-3.8,0.3c-1.8,0-2-0.1-1.5-0.8c0.3-0.4,0.1-0.5-0.2-0.2c-0.2,0.2-0.2,0.1,0-0.1
		C13.5,27.9,15.2,27.5,16.8,28.4 M10.5,29.9l0.5,0.2h-0.8c-0.4,0-0.9,0.1-1,0.1s-0.3,0-0.3-0.1C8.9,29.7,9.8,29.6,10.5,29.9
		 M27,30.6c0,0.6-2,2.4-2.6,2.4s-1.6-1.3-1.6-2.1v-0.4h2.1C26.1,30.5,27,30.5,27,30.6 M29.1,30.9c-0.2,0.2-0.3,0.4-0.4,0.4
		c0,0-0.2-0.1-0.5-0.2c-0.2-0.2-0.4-0.2-0.4-0.1c0,0.1,0.2,0.2,0.3,0.3c0.2,0.1,0.3,0.4,0.3,0.6c0,0.2,0.1,0.5,0.2,0.7
		c0.2,0.4-0.2,1-0.7,1c-1,0-1.5-1.5-0.8-2.2c0.2-0.2,0.3-0.4,0.3-0.6c0-0.2,0.2-0.3,0.9-0.3h0.9L29.1,30.9 M32.5,30.9
		c1.2,0.6,0.7,2.4-0.7,2.7c-1.1,0.2-2.6-0.7-2.6-1.6c0-0.2-0.1-0.3-0.2-0.2c-0.3,0.2-0.2-0.1,0.1-0.5C29.8,30.5,31.3,30.3,32.5,30.9
		 M10.6,32c0.7,0,1.1-0.3,1.1-0.9c0-0.2,0.1,0.1,0.2,0.6c0.4,1.7,1.9,3,3.7,3c2.2,0.1,2.5,0.5,1.2,1.7l-0.9,0.9l-0.6-1.2
		c-0.6-1.3-0.7-1.4-0.8-1.3c0,0,0.1,0.5,0.3,1s0.4,1,0.4,1s-0.4,0-0.8,0c-0.6-0.1-1,0-1.4,0.1c-0.8,0.3-0.7,0.4,0.1,0.2
		c0.4-0.1,1.1-0.1,1.6-0.1l0.9,0.1l-0.1,0.5c-0.3,1.3-0.3,1.6-0.1,1.9c0.4,0.5-0.4,1.4-1.5,1.5c-0.5,0.1-1,0.2-1,0.2
		c0,0.1,0.3,0.1,0.8,0c0.9-0.1,0.8-0.1,0.5,0.7c-0.4,0.8-0.3,1.8,0.1,2.7l0.4,0.7l-0.5-0.2c-0.5-0.4-0.6-0.5-0.5-0.9
		c0-0.3-0.1-1-0.4-1.6c-0.4-1.2-0.5-1.2-0.5-2.8v-1.1l-0.2,0.7c-0.1,0.4-0.2,0.8-0.2,0.9c0,0.1-0.3-0.3-0.7-0.9
		c-0.4-0.6-0.8-1.3-1-1.5c-0.3-0.3-0.3-0.4,0-0.7c0.2-0.2,0.4-0.5,0.4-0.6s0.1-0.1,0.5,0c0.3,0.1,0.6,0.1,0.8,0.1
		c0.2,0,0-0.2-0.5-0.3c-1.1-0.3-1.5-0.8-1.3-1.5c0.3-0.8,0.6-0.9,1.6-0.6c0.6,0.2,0.7,0.2,0.6,0c-0.1-0.1-0.5-0.3-0.9-0.4
		c-0.9-0.3-1.6-0.8-2.6-2c-1-1.1-1-1.6,0-0.6C9.9,31.9,10.1,32,10.6,32 M22.5,30.9c0,1.7,2.1,2.8,3.4,1.7c0.6-0.5,0.7-0.5,0.7-0.1
		c0,0.2,0.1,0.5,0.3,0.6c0.3,0.3,0.3,0.3-0.3,0.8c-0.7,0.5-1.2,1.1-1.1,1.5c0.1,0.1,0.1,0.1,0.1-0.1c0-0.3,1.6-1.6,1.9-1.6
		c0.1,0,0.7,0.5,1.4,1.1l1.2,1.1l-0.9,0.8c-0.7,0.7-0.8,0.8-0.4,0.5c0.7-0.4,1.4-1.2,1.3-1.5c-0.3-0.7,0.5,0.3,1.4,1.9
		c0.6,0.9,1.1,1.8,1.3,1.8c0.4,0.1,0.4,0.2-0.8-1.8c-1.2-1.9-2.6-3.6-2.6-3.1c0,0.2-0.1,0.2-0.5-0.2l-0.5-0.5l0.3-0.3
		c0.4-0.4,0.9-0.3,0.8,0.1c-0.1,0.1,0,0.2,0.1,0.1c1.3-0.8,4.4,4.5,3.9,6.6c0,0.1,0,0.1,0.1-0.1s0.4-0.5,0.8-0.7
		c0.3-0.2,0.6-0.4,0.6-0.5c0-0.2-0.5,0.1-0.8,0.4c-0.4,0.4-0.5,0.3-0.5-0.7c0-0.5,0-0.9,0-0.9c0.2,0,1.7,0.8,1.6,0.9
		c-0.1,0.1,0,0.1,0.2,0c0.3-0.1,2.6,1.8,2.6,2.2c0,0.2-1.6,1.6-1.8,1.6c-0.1,0-0.4-0.4-0.8-0.9c-0.3-0.5-0.7-1-0.8-1
		c-0.3-0.2-0.4,0.1-0.1,0.4c0.8,0.9,0.7,1.4-0.1,1.4c-0.3,0-0.4-0.1-0.5-0.6c-0.2-1-1.5-1.9-2.7-1.9h-0.6l0.4-0.5
		c0.7-0.8,0.5-0.8-0.4,0c-0.9,0.9-3,2-3.7,2c-0.8,0-1.1-0.7-0.5-1.3c0.2-0.2,0.3-0.4,0.3-0.5s-0.2,0-0.4,0.3L25.9,40l-0.6-0.4
		c-0.3-0.2-0.6-0.5-0.6-0.6c0-0.2-0.1-0.2-0.3,0c-0.5,0.5-1.4,0.2-2-0.6l-0.2-0.3l0.1,0.4c0.1,0.6-0.5,0.9-1,0.4L21,38.6l0.8-0.7
		c1.1-1,2.2-0.9,2.8,0.2c0.1,0.3,0.3,0.4,0.3,0.3c0-0.1-0.1-0.4-0.3-0.6c-0.2-0.3-0.2-0.4,0.1-0.5c0.2-0.1,0.4-0.2,0.5-0.3
		c0-0.1,0.4,0.4,0.9,1c0.4,0.7,0.8,1.1,0.8,1s-0.2-0.6-0.5-1s-0.6-1.1-0.8-1.5c-0.3-0.9-0.6-1.5-1.1-1.7c-0.3-0.2-0.3-0.1,0.1,0.2
		c0.8,0.7,0.8,1.8,0.1,2.1c-0.8,0.4-1.9-0.8-1.4-1.7c0.3-0.5,0-0.6-0.2-0.2c-0.1,0.2-0.2,0.3-0.4,0.1c-0.4-0.4-0.5-0.2-0.2,0.3
		c0.5,1-1.1,3.2-1.9,2.6c-0.6-0.5-0.6-0.8-0.1-1s1.2-1.1,1.2-1.6c0-0.1-0.1-0.1-0.2,0.2c-0.1,0.2-0.3,0.6-0.5,0.8
		c-0.3,0.4-0.9,0.5-0.7,0.1c0.1-0.1,0-0.1-0.2,0.1c-0.5,0.2-0.6,0.2-0.9,0.1c-0.7-0.5-0.4,0,0.8,1.2c1.5,1.5,1.8,2.3,0.4,1.4
		C20,39.3,19.5,39,19.1,39c-0.6-0.1-0.6-0.1,0.1,0.1c1.1,0.3,2,1,2,1.6v0.4l-0.5-0.4c-0.6-0.5-1.3-0.9-2.1-1
		c-0.6-0.1-0.9-0.4-0.4-0.4c0.1,0,0.1,0,0.1-0.1c-0.1-0.1-0.4,0-0.7,0.2c-0.3,0.2-0.8,0.4-1.1,0.4L16,39.9v-1c0-1.4,2-3.4,3.4-3.4
		h0.7l-0.9-0.3c-0.8-0.2-1.7-0.6-1.7-0.8c0-1.3,1.1-1.8,2.4-1.2c0.4,0.2,0.4,0.2,0.3,0c-0.1-0.1-0.5-0.4-0.9-0.5
		c-0.6-0.2-0.7-0.3-0.6-0.6c0.1-0.2,0.2-0.5,0.2-0.8c0-0.6,0.1-0.6,2.2-0.7C22.1,30.7,22.5,30.7,22.5,30.9 M51,30.8
		c-0.3,0.2-1.1,0.2-1.3,0c-0.1-0.1,0.2-0.2,0.7-0.2C51.1,30.7,51.2,30.7,51,30.8 M11.4,31c0.3,0.7-0.4,0.9-1.4,0.5
		c-1-0.5-1-0.7,0.2-0.7C11,30.8,11.4,30.9,11.4,31 M18.7,31.1c0,0.4-0.3,1.1-0.8,1.6c-1.8,2.1-5.4,1.2-5.4-1.3v-0.5h3.1
		C18.2,30.8,18.7,30.9,18.7,31.1 M7.5,32c-0.2,0.5-0.3,1-0.2,1.2c0,0.2,0.2-0.1,0.4-0.7C8,31.2,7.9,30.8,7.5,32 M43.5,31.6
		c0.3,0.3,0.6,0.7,0.7,1l0.1,0.6v-0.6c0-0.6-0.7-1.5-1.1-1.5C43.1,31.2,43.3,31.4,43.5,31.6 M38,31.9c2,1,2.1,3.4,0.2,5.3
		c-2.5,2.5-6.8-0.4-5.3-3.6C34.1,31.4,35.8,30.8,38,31.9 M35,32.9c0,0.6,0.7,1.6,1.2,1.7c0.4,0.1,0.4,0.1,0.3,0.3
		c-0.3,0.5,0.3,1.8,0.9,1.8c0.1,0,0-0.2-0.3-0.5c-0.6-0.6-0.6-1,0.2-2.2c0.4-0.6,0.6-1,0.5-1s-0.2,0.1-0.2,0.1
		c0,0.1-0.2,0.4-0.5,0.7l-0.5,0.6l0.4-0.9c0.2-0.5,0.4-0.9,0.3-1c-0.1-0.1-0.5,0.5-0.8,1.2c-0.3,0.9-0.6,0.8-1.2-0.4
		C35.2,33,35,32.8,35,32.9 M41.8,33.2c0.8,0.5,1,1.7,0.3,1.8c-0.5,0.1-1.5-0.4-1.7-0.8c-0.1-0.1-0.2-0.3-0.3-0.4
		C39.3,33.1,40.9,32.6,41.8,33.2 M34.4,33.6c0.3,0.8,0.2,1.2-0.4,1.3c-0.5,0.1-0.5,0.1-0.3,0.2C34.6,35.5,35.3,34.1,34.4,33.6
		C34.3,33.3,34.3,33.3,34.4,33.6 M20.2,34.3c-0.3,0.6-0.2,0.7,0.1,0.2c0.1-0.3,0.2-0.5,0.2-0.5C20.5,33.9,20.3,34,20.2,34.3
		 M32.3,34.3c-0.2,0.6-0.2,0.6-0.6,0.2c-0.3-0.4-0.3-0.4,0-0.5C32.3,33.7,32.4,33.8,32.3,34.3 M17.4,34.3c0,0.2-0.1,0.3-0.4,0.2
		c-0.4-0.1-0.4-0.1-0.1-0.3C17.2,33.9,17.4,33.9,17.4,34.3 M40.9,35c0,0-0.2,0-0.4,0c-0.3-0.1-0.4-0.2-0.4-0.6V34l0.4,0.5
		C40.7,34.7,40.9,35,40.9,35 M45.2,34.8c0.4,0.3,0.7,0.6,0.7,0.7c0,0.1,0.2,0.4,0.4,0.6l0.4,0.3l-0.4,0.1c-0.4,0.1-1.4,1.1-1.4,1.4
		c0,0.5-0.9-0.4-1.4-1.3c-0.3-0.6-0.7-1.1-0.7-1.1c-0.3,0-0.2-0.4,0.3-0.8C43.7,34.2,44.3,34.2,45.2,34.8 M13,35.7
		c-0.2,0.5-0.2,0.8-0.2,0.8c0.2,0,0.6-1.1,0.5-1.3C13.3,35,13.2,35.2,13,35.7 M18.4,35.4c-0.1,0.1-0.2,0.3-0.3,0.3S18,35.6,18,35.4
		c-0.1-0.2,0-0.3,0.3-0.3C18.5,35.2,18.5,35.2,18.4,35.4 M41.7,35.6c0.6,0.3,0.7,0.5,0.3,1.5c-0.2,0.5-0.4,0.7-0.5,0.6
		c-0.1,0-0.5-0.2-0.9-0.3c-1.1-0.3-1.2-0.6-0.7-1.9C40,35.1,40.5,35.1,41.7,35.6 M42.4,35.5c0.3,0.5,1,2,1,2
		c-0.1,0.1-1.5,0.2-1.5,0.1c0-0.1,0.1-0.3,0.2-0.5c0.3-0.6,0.3-1.3-0.1-1.5c-0.4-0.2-0.4-0.5-0.1-0.5C42,35.2,42.2,35.3,42.4,35.5
		 M34.2,35.8c-0.7,0.6-0.5,0.7,0.2,0.2c1-0.6,1.3-0.5,1.5,0.4c0.1,0.3,0.2,0.7,0.3,0.7c0.2,0.1,0-0.9-0.3-1.4S34.9,35.2,34.2,35.8
		 M26.4,35.6c0,0.2,1.2,1.8,1.5,2c0.2,0.1,0.2-0.1-0.3-0.6C27,36.1,26.4,35.4,26.4,35.6 M46.5,35.8c0.2,0.2,0.2,0.3-0.1,0.2
		c-0.2,0-0.3-0.2-0.4-0.3C46,35.4,46.3,35.5,46.5,35.8 M23,36.5c0.2,0.3,0.2,0.3-0.1,0.3s-0.3-0.1-0.3-0.3s0.1-0.3,0.1-0.3
		C22.8,36.2,22.9,36.4,23,36.5 M26.2,36.8c1,1.2,1.6,1.4,3.2,0.9c1.1-0.3,1.2-0.3,1.6-0.1l0.5,0.3l-0.4-0.3c-0.5-0.4-0.9-0.4-2,0
		s-1.5,0.3-2.6-0.7l-0.8-0.7L26.2,36.8 M40.3,37.7c0.4,0.2,0.8,0.3,0.9,0.3c0.1,0,0,0.2-0.3,0.3c-0.6,0.3-0.9,0.9-0.9,1.6
		c0,0.3-0.3,0.7-0.8,1.2c-0.4,0.4-1,1-1.2,1.3c-0.4,0.7-0.6,0.7-1.1,0.3l-0.4-0.3l0.7-0.5c0.4-0.3,0.7-0.7,0.8-0.9
		c0.1-0.3,0.2-0.4,0.5-0.3c1.1,0.2,1.5-1.3,0.6-2.1c-0.3-0.3-0.6-0.5-0.8-0.5c-0.4,0-0.4,0,0.4-0.8c0.6-0.7,0.6-0.7,0.8-0.3
		C39.5,37.1,39.8,37.5,40.3,37.7 M48.4,37.2c1,0.5,1.2,1,0.8,1.8c-0.7,1.2-2.1,1.4-3.1,0.4c-0.9-0.8-0.9-1.1,0.1-1.7
		c0.3-0.2,0.6-0.5,0.7-0.6C47.1,36.7,47.5,36.8,48.4,37.2 M11.4,39.5c0.8,1.6,2,4.6,1.8,4.8s-0.8-0.6-1.1-1.3
		c-0.4-0.9-1-1.7-2.3-3.1c-1-1.1-1.1-1.4-0.3-1.8C10.4,37.7,10.5,37.7,11.4,39.5 M43.8,38.4c0.1,0.2,0.4,0.3,0.6,0.3
		c0.2,0,0.4,0.1,0.4,0.2c0,0.1,0.2,0.4,0.5,0.7c1.4,1.4,0.5,3.3-1.6,3.3c-1.8,0-3.6-1.5-3.6-3.1C40.2,38.5,43.1,37.4,43.8,38.4
		 M39,38.6c0.6,0.6,0.6,1.5,0,1.7c-1,0.4-2.1-1-1.4-1.8c0.2-0.2,0.2-0.2-0.1,0c-0.2,0.1-0.3,0.3-0.3,0.5c0,0.4-0.1,0.4-0.7-0.1
		L36,38.5l0.6-0.2C37.8,38.1,38.5,38.1,39,38.6 M15.9,39.2c0,0.3-0.1,0.5-0.2,0.5s-0.2-0.2-0.2-0.5s0.1-0.5,0.2-0.5
		S15.9,38.9,15.9,39.2 M22.9,39.6c0.9,0.7,0.6,2.1-0.4,2.1c-0.4,0-1.1-0.8-1.1-1.3c0-0.4,0-0.4,0.3-0.2s0.3,0.2,0.2-0.3
		c-0.1-0.3,0-0.5,0.1-0.6C22.2,39.1,22.3,39.1,22.9,39.6 M23.7,39.8c0,0.2,0,0.2-0.3,0.1c-0.1-0.1-0.3-0.2-0.3-0.3s0.1-0.1,0.3-0.1
		S23.7,39.6,23.7,39.8 M25.2,39.8c0.3,0.2,0.5,0.4,0.6,0.8c0.1,0.7,0.6,0.9,2.1,0.9h1.3l1.1,2.2c0.6,1.2,1.2,2.5,1.2,2.8
		c0.1,0.4,0.4,1,0.7,1.4c1.2,1.5,0.6,2-2.5,2.1h-1l0.5-0.3c0.7-0.4,1.2-1.1,1.2-1.7c0-0.4,0-0.4,0.7,0.3c0.4,0.4,0.7,0.7,0.7,0.7
		c0-0.2-1.3-1.8-2.6-3.4c-0.8-0.9-1.3-1.7-1.6-2.3c-0.3-0.7-0.5-1-1.1-1.4c-0.4-0.3-0.7-0.5-0.7-0.6s-0.3-0.1-0.6-0.1
		c-0.7,0-1.4-0.6-1.4-1.2C23.9,39.4,24.5,39.4,25.2,39.8 M20.1,40.4c2.8,2,0.7,6.7-2.8,6.2c-2.7-0.4-4-4.2-1.9-5.2
		c0.3-0.1,0.5-0.4,0.6-0.7C16.2,39.7,18.8,39.5,20.1,40.4 M32.2,40.2c1.3,0.7,1.7,1.8,0.8,2.5c-1.5,1.1-4.3-1-3-2.3
		C30.4,39.9,31.4,39.9,32.2,40.2 M47.7,40.4c0.5-0.2,0.4,0.1-0.7,1.3c-1.7,1.9-3.5,3.2-3.5,2.5c0-0.2,0-0.5-0.1-0.7
		c-0.1-0.3,0-0.4,0.6-0.4c1.3,0,2.5-1.3,2.3-2.5L46.2,40l0.6,0.3C47.1,40.4,47.5,40.5,47.7,40.4 M24.2,41c0,0.1-0.2,0.2-0.3,0.2
		c-0.3,0.1-0.4,0-0.2-0.5C23.7,40.5,24.2,40.7,24.2,41 M29.3,40.9c-0.1,0.1-0.3,0.3-0.6,0.3h-0.5l0.5-0.3
		C29.3,40.5,29.5,40.5,29.3,40.9 M11.2,42.1c0.7,0.9,0.2,0.6-0.6-0.4c-0.6-0.8-0.7-0.9-0.3-0.5C10.7,41.4,11,41.8,11.2,42.1
		 M40.6,42c1.1,1.4,0.9,1.8-0.7,1.5c-0.5-0.1-0.9-0.1-1.2,0.1c-1.2,0.6-1.2-0.1,0-1.4c0.6-0.6,1.1-1.2,1.1-1.1
		C39.8,41.1,40.2,41.5,40.6,42 M22.1,42.2c-0.3,0.3-0.3,0.3-0.4-0.1c-0.1-0.2-0.2-0.5-0.2-0.6s0.1,0,0.4,0.1
		C22.3,41.9,22.3,41.9,22.1,42.2 M26.2,42c2.5,1.6,1.5,5.3-1.2,4.1c-0.3-0.1-0.8-0.3-0.9-0.3c-0.5,0-1.1-0.4-1.6-1.2
		C20.9,42.5,23.8,40.5,26.2,42 M36.3,42.8c2,1,2.6,3.1,1.3,4.4c-2.7,2.6-6.5,0.4-4.9-2.9c0.3-0.6,0.3-0.8-0.1-0.5
		c-0.1,0.1,0.2-0.2,0.6-0.6C34.1,42.4,35.1,42.3,36.3,42.8 M42.7,43.2c1,0.6,0.8,2-0.3,2c-0.4,0-1.3-0.9-1.2-1.1
		c0-0.1,0.2-0.3,0.3-0.6C41.8,42.7,42,42.7,42.7,43.2 M31.5,43.4c0.3,0.1,0.5,0.2,0.5,0.2c0.1,0.1-0.4,1.4-0.5,1.4
		c0,0-0.3-0.5-0.7-1c-0.5-0.9-0.5-1-0.2-0.9C30.8,43.1,31.2,43.3,31.5,43.4 M22.7,45.6c0.2,0.3,0.3,0.4,0.2,0.5s-0.2,0.1-0.2,0.1
		s-0.1-0.3-0.3-0.5c-0.1-0.3-0.4-0.5-0.5-0.6c-0.1,0-0.1,0.1,0.1,0.3c0.5,0.5,0.5,0.5-0.2,1.7c-0.7,1.2-0.8,1.4-1.2,1.4
		c-0.4,0-1.5-1-1.1-1c0.1,0,0.1-0.1-0.2-0.1c-0.6-0.2-0.6-0.4,0-0.7s1.8-1.5,2-2.3l0.2-0.6l0.4,0.8C22.2,44.8,22.5,45.4,22.7,45.6
		 M38.7,44.2c0,0.3-0.3,0.3-0.4,0.1c-0.1-0.2,0-0.2,0.1-0.2C38.6,44,38.7,44.1,38.7,44.2 M41,44.3c0.3,0.3,0.3,0.4,0.1,0.8
		c-0.1,0.3-0.3,0.6-0.3,0.8c0,0.4,0,0.4-1.1,0.1c-1.1-0.3-1.3-0.7-1-1.5C39.2,43.9,40.4,43.7,41,44.3 M28.8,45.3
		c0.3,0.4,0.5,0.7,0.5,0.7s-1.4-0.2-1.6-0.3c-0.1,0,0.4-1.1,0.5-1.1C28.2,44.7,28.5,45,28.8,45.3 M42.2,45.5c0,0.1-1,0.7-1.1,0.6
		c-0.3-0.3,0.3-1.1,0.7-0.9C42,45.3,42.2,45.4,42.2,45.5 M20.9,46.3c-0.1,0.2-0.4,0.5-0.7,0.7c-0.2,0.1-0.3,0.2-0.2,0.2
		c0.2,0,1.2-0.9,1.2-1.2S21.1,45.8,20.9,46.3 M39.2,46.1c0.3,0.1,0.7,0.3,0.9,0.4c0.3,0.1,0.1,0.2-1,0.8c-1.5,0.7-1.6,0.7-1-0.1
		c0.2-0.3,0.4-0.8,0.4-0.9C38.5,45.8,38.5,45.8,39.2,46.1 M24.8,46.6l0.8,0.2l0.1,0.9c0.1,1.1-0.2,1.6-1.1,1.7
		c-1.7,0.3-3.2-1.9-1.9-2.9C23.1,46.1,23.2,46.1,24.8,46.6 M29.2,46.6c1.1,0.5,1.3,1.2,0.7,2c-1,1.5-3.2,0.8-3.5-1
		C26.3,46.2,27.5,45.8,29.2,46.6 M19.1,47.5c0.8,0.8,0.5,0.8-1.1,0c-1.1-0.6-1.2-0.6-0.2-0.6C18.4,46.8,18.6,46.9,19.1,47.5 M22,48
		c0,0.4,0,0.4-0.2,0.2c-0.1-0.2-0.1-0.4-0.1-0.5C22,47.4,22,47.5,22,48 M22,48.7l0.4,0.4l-0.8-0.3c-0.8-0.3-0.8-0.3-0.5-0.6
		c0.2-0.2,0.4-0.2,0.4-0.2C21.6,48.2,21.8,48.5,22,48.7 M34.2,49c0,0.2-0.9,0.3-1,0.1c-0.3-0.5-0.2-0.6,0.4-0.4
		C33.9,48.8,34.2,48.9,34.2,49 M27.1,49.3l0.9,0.5h-0.9c-0.5,0-1.1,0-1.4-0.1l-0.5-0.1l0.5-0.4C26.2,48.8,26.1,48.7,27.1,49.3"/>
	<path id="path3" class="st2" d="M28.9,5.9c-0.3,0.1-0.6,0.2-0.6,0.3S28.1,6.4,28,6.4c-0.2,0-0.2,0-0.1,0.1C28,6.6,28.1,6.8,28,7
		c-0.2,0.9,1.3,2,2.1,1.6c0.5-0.3,0.9-0.7,0.9-1c0-0.1,0-0.2,0.1-0.2c0.3,0,0.2-0.6-0.2-0.9C30.4,5.9,29.5,5.7,28.9,5.9 M35.3,9.5
		C34.9,9.9,34.9,9.9,35,11c0.2,1.6,0.1,1.6,1.6,1.3c1.6-0.3,1.7-0.4,1.4-1.6C37.5,9.3,36.2,8.7,35.3,9.5 M31.4,15.8
		c-0.9,0.3,0.9,2.2,1.8,1.9c0.8-0.2,0.3-1.7-0.6-1.9c-0.1,0-0.3-0.1-0.5-0.1C31.9,15.7,31.6,15.8,31.4,15.8 M43.3,18.3
		c-0.1,0.1-0.1,0.3,0,0.4s0,0.1-0.1,0.1c-0.2-0.1-0.4,0.2-0.4,0.6c0,0.2,0.5,0.4,1.1,0.6c1,0.2,1.2-1.4,0.2-1.7
		C43.5,17.9,43.4,18,43.3,18.3 M31.5,20.8c-0.7,0.1-2,1.5-4.8,5.2c-1.4,1.8-2.6,3.4-2.7,3.5c-0.2,0.3-0.1,0.3,1.7,0.3h1.9l1-2.2
		c1.2-2.9,3.6-7.1,3.4-6c0,0.2-0.1,0.4,0,0.4s0.6-1,0.6-1.2C32.4,20.7,32.3,20.7,31.5,20.8 M30.4,24.6c-1,2.1-1.5,3.3-1,2.4
		c0.4-0.7,2.3-4.8,2.2-4.8C31.6,22.2,31,23.2,30.4,24.6 M35,23.5c-1,0.5-2.8,2.4-3,3.2c-0.1,0.4-0.1,0.6,0,0.5s0.1,0,0.1,0.2
		c-0.1,0.2,0,0.3,0.1,0.4c0.1,0.1,0.1,0,0.1-0.1c-0.1-0.1,0-0.2,0.3-0.1c0.3,0.1,0.5,0,0.7-0.2c0.8-0.8,2.8-1,3.7-0.3
		c1.1,0.7,1.2,0.4,0.3-0.6c-1-1.1-1-1.2-0.7-2.1C36.7,23.2,36.2,22.9,35,23.5 M26.8,24.7c-0.6,0.7-1,1.4-0.7,1
		c0.4-0.4,1.4-1.8,1.3-1.8C27.4,24,27.1,24.3,26.8,24.7 M9.6,24.7c-0.4,0.6-0.3,1.2,0.3,1.7c0.8,0.7,1.6,0.4,1.6-0.7
		C11.4,24.6,10.2,23.9,9.6,24.7 M48.9,26.3c0.1,0.3,0.2,0.9,0.3,1.3c0.3,1.7,0.6,2.2,1.3,2.2l0.6,0.1l-0.4-0.5
		c-0.2-0.3-0.4-0.6-0.4-0.7s-0.1-0.1-0.2-0.1c-0.1,0.1-0.1,0-0.1-0.1c0.1-0.1-0.2-0.8-0.6-1.5C49.1,26.3,48.9,25.9,48.9,26.3
		 M14.3,28c-0.5,0.2-1.2,0.7-1.5,1.2c-0.1,0.3-0.1,0.3,0,0.1c0.4-0.3,0.5-0.2,0.2,0.2c-0.5,0.7-0.4,0.8,1.5,0.8c2,0,3.8-0.2,3.8-0.3
		C18.4,29,15.6,27.6,14.3,28 M43,28.8c-0.1,0.2-0.2,0.3-0.2,0.3c-0.1-0.1-0.1,0.1-0.1,0.4c0.1,0.5,2,0.8,2,0.3
		c0-0.4-0.4-0.8-0.8-1.1C43.2,28.4,43.1,28.4,43,28.8 M23.5,30.6c-0.2,0.2-0.1,1.7,0.1,1.8c0.9,0.7,3.5-0.6,3.5-1.8
		C27,30.5,23.6,30.5,23.5,30.6 M12.5,31.3c0,2.5,3.6,3.4,5.4,1.3c0.4-0.5,0.8-1.3,0.8-1.7c0-0.1-1.4-0.1-3.1-0.1h-3.1L12.5,31.3
		 M44.4,31c-0.1,0.1-0.3,0.2-0.6,0.1c-0.3,0-0.5,0-0.5,0.1c0,0.2,0.9,0.2,1.3-0.1c0.2-0.1,0.2-0.2,0.1-0.3
		C44.6,30.8,44.5,30.9,44.4,31 M27.2,31.3c-0.4,0.4-0.4,0.9,0.1,1.3c0.9,0.8,1.9,0.7,1.5-0.1c-0.1-0.2-0.2-0.5-0.2-0.7
		C28.5,31.3,27.6,30.9,27.2,31.3 M40.4,33c-0.5,0.2-0.5,0.3,0.4,1.2s1.6,1,1.7,0.2C42.6,33.4,41.4,32.6,40.4,33 M26.9,34.4
		c-0.5,0.4-0.4,0.8,0.3,1.4c0.2,0.2,0.4,0.4,0.4,0.5c0,0.7,1.1,0.7,1.8,0l0.4-0.4l-1-0.9C27.7,33.9,27.5,33.9,26.9,34.4 M11.2,34.4
		c-1,0.7-0.5,1.8,0.8,2.1c1,0.2,1.4-1.4,0.4-2C12,34.2,11.4,34.2,11.2,34.4 M43.2,34.6c-0.9,0.6-1,1.4-0.4,2.2
		c0.3,0.3,0.4,0.4,0.2,0.1c-0.8-1.5-0.4-1.6,0.4-0.2c0.5,0.9,1.4,1.7,1.4,1.3c0-0.3,1-1.3,1.4-1.4l0.4-0.1l-0.4-0.3
		c-0.2-0.2-0.4-0.4-0.4-0.6C45.9,34.8,43.9,34.1,43.2,34.6 M23,35.4c-0.3,0.7,0.9,1.9,1.5,1.6c0.8-0.4,0.6-1.6-0.3-1.8
		C23.4,34.9,23.2,35,23,35.4 M13.2,37.7C13.1,37.9,13,38,13.1,38s0.1,0.5,0.1,1.2c-0.1,1.7,0,2.1,0.5,1.9c0.2-0.1,0.5-0.1,0.7-0.1
		s0.3-0.1,0.3-0.2c-0.1-0.1,0-0.2,0-0.2c0.2,0,0.5-0.8,0.4-0.9c-0.2-0.1-0.2-1.1,0.1-1.6C15.7,37.3,13.7,36.9,13.2,37.7 M9.6,38.1
		c-0.8,0.4-0.7,0.7,0.5,2c0.6,0.6,1.3,1.5,1.5,1.9c0.6,1,1.4,1.8,1.5,1.7c0.3-0.3-2.4-6-2.8-5.9C10.2,37.9,9.9,38,9.6,38.1 M42,38.3
		c-2.3,1-2.1,3.2,0.2,4.3c2.1,1,4.6-1.5,3.1-3c-0.3-0.3-0.5-0.6-0.5-0.7c0-0.1-0.2-0.2-0.4-0.2s-0.5-0.1-0.6-0.3
		C43.6,37.9,42.9,37.9,42,38.3 M21.7,38.8c-0.3,0.1-0.4,0.2-0.2,0.4c0.1,0.1,0.9-0.2,0.9-0.4C22.4,38.7,22.2,38.7,21.7,38.8
		 M21.9,39.3c-0.1,0.1-0.2,0.3-0.1,0.6c0.1,0.4,0.1,0.5-0.2,0.3c-0.5-0.4-0.3,0.6,0.2,1.1c0.8,0.7,1.6,0.4,1.6-0.6
		C23.4,39.8,22.5,39,21.9,39.3 M16.8,40.2c-0.6,0.2-0.9,0.5-0.9,0.8c0,0.1-0.2,0.2-0.5,0.3c-1.6,0.8-1.1,3.7,0.9,4.6
		c2.4,1.2,4.7-0.2,4.7-2.8C21,40.7,19.2,39.4,16.8,40.2 M23.6,41.6c-1,0.4-1.6,1.1-1.6,1.8c0,1,1.2,2.4,2,2.4c0.2,0,0.6,0.1,0.9,0.3
		c1.3,0.5,2.7-0.3,2.7-1.5C27.7,42.5,25.5,40.9,23.6,41.6 M38.9,42.3l-0.7,0.8l1.3,0.2c1.5,0.2,1.7,0,0.8-1.1
		C39.6,41.4,39.7,41.4,38.9,42.3 M36.9,42.7c0.5,0.4,0.8,0.4,0.4,0c-0.2-0.2-0.4-0.3-0.6-0.3C36.5,42.3,36.6,42.4,36.9,42.7
		 M33.2,43.2c-0.4,0.4-0.7,0.6-0.6,0.6c0.4-0.3,0.4-0.1,0.1,0.5c-1.5,3.1,2.5,5.6,4.8,3S35.8,40.8,33.2,43.2 M41.5,43.4
		c-0.1,0.3-0.2,0.6-0.3,0.6c-0.1,0.2,0.8,1.1,1.2,1.1c1,0,1.2-1.3,0.3-2C42,42.7,41.8,42.7,41.5,43.4 M13.6,43.4
		c0.1,0.2,0.1,0.4,0.1,0.6c0,0.2,0.1,0.3,0.2,0.3c0.3,0,0.2-0.5-0.1-0.9C13.5,43.1,13.5,43.1,13.6,43.4 M38.3,44.2
		c0.1,0.1,0.2,0.2,0.2,0.2c0.2-0.1,0.2-0.4-0.1-0.4C38.3,44,38.2,44.1,38.3,44.2 M38.9,44.4c-0.3,0.6-0.3,0.5,0.6,1.2
		c1,0.8,1.3,0.8,1.5,0C41.4,44.3,39.4,43.3,38.9,44.4 M27.1,46.3c-0.8,0.3-1,1.7-0.3,2.4c0.5,0.5,2.6,0.5,3-0.1
		C30.9,47.4,28.8,45.6,27.1,46.3 M25.5,47.4c-0.1,0.2-0.1,0.4,0,0.6c0.1,0.3,0.1,0.3,0.2,0C25.8,47.5,25.6,47,25.5,47.4"/>
	<path id="path4" class="st3" d="M27.5,3c0,0.3,0.1,0.5,0.1,0.5s0.1-0.2,0.1-0.5s-0.1-0.5-0.1-0.5S27.5,2.7,27.5,3 M18.8,5.2
		C18.7,5.3,18.7,5.3,18.8,5.2c0.2,0,1.1,1,1.5,1.6C20.4,7,20.4,7,20.1,6.9C19.8,6.8,19.8,6.8,20,7c0.6,0.6,0.5-0.2-0.1-1
		C19.1,5.1,18.9,4.9,18.8,5.2 M31.7,7c0.1,0.7,0.1,0.7,0.1,0.1c0-0.3,0-0.6-0.1-0.7C31.7,6.4,31.6,6.7,31.7,7 M31.2,8.4
		c-0.1,0.1-0.6,0.4-0.9,0.5C29.9,9,29.8,9.1,30,9.1c0.4,0,1.2-0.4,1.4-0.7C31.6,8.1,31.5,8.1,31.2,8.4 M28.7,9
		c0.1,0.1,0.4,0.2,0.6,0.2c0.4,0,0.3-0.1-0.3-0.2C28.6,8.9,28.5,8.9,28.7,9 M35.6,8.9c0.2,0,0.4,0,0.6,0c0.2,0,0-0.1-0.3-0.1
		C35.5,8.9,35.4,8.9,35.6,8.9 M34.9,9.4c0,0.3,0,0.4,0.2,0.2c0.1-0.1,0.2-0.2,0.1-0.3C35.1,9.2,35,9.1,35,9.1
		C35,9,34.9,9.2,34.9,9.4 M37.1,9.2c-0.3,0.1-0.3,0.1,0,0.3s0.4,0.2,0.3-0.1c0-0.2,0-0.3,0-0.3C37.5,9,37.3,9.1,37.1,9.2 M10,12
		c1.3,0.6,1.6,1,2.2,2.4c0.3,0.6,0.5,1.1,0.5,1c0-1.3-1.8-3.4-3.3-3.8C9.1,11.5,9.4,11.7,10,12 M37.8,12.2c-0.3,0.3-0.7,0.3-1.7,0.4
		c-0.8,0-1.2,0.1-1,0.2c0.5,0.3,2.4-0.1,2.9-0.5C38.6,11.8,38.4,11.7,37.8,12.2 M27,12.3c0,0.2,0,0.2,0.1,0.1
		c0.1-0.2,0.2-0.2,0.2,0.1c0.2,0.4,0.1,0.5-0.1,0.3c-0.2-0.1-0.2-0.1,0,0.1c0.3,0.3,0.5,0.1,0.2-0.4C27.3,11.9,27,11.9,27,12.3
		 M52.7,15.2c-0.2,0.3,0,0.5,0.3,0.3c0.2-0.1,0.2-0.2,0-0.2c-0.1,0-0.2-0.1-0.1-0.2C53.1,14.9,52.9,15,52.7,15.2 M14.9,15.3
		c0,0,0.1,0.1,0.3,0.3c0.2,0.2,0.3,0.2,0.1,0c-0.1-0.2-0.1-0.2,0.1-0.1s0.2,0,0.2,0C15.5,15.2,14.9,15.2,14.9,15.3 M31.1,15.6
		c-0.2,0.1-0.2,0.2-0.1,0.2c0.1,0,0.2-0.1,0.3-0.2c0.2-0.3,1.4-0.2,1.9,0.3l0.6,0.4l-0.6-0.4C32.6,15.3,31.7,15.2,31.1,15.6
		 M16,15.7c0.3,0.4,0.1,0.6-0.4,0.3c-0.3-0.2-0.3-0.2-0.1,0c0.1,0.2,0.3,0.3,0.4,0.3C16.3,16.3,16.4,16,16,15.7
		C15.8,15.4,15.8,15.4,16,15.7 M10.8,16.3c0.1,0.3,0.3,0.5,0.3,0.5S11.1,16.6,10.8,16.3c-0.1-0.3-0.2-0.5-0.2-0.5
		S10.6,16.1,10.8,16.3 M39.4,16.1c0,0.3,0.5,0.8,0.5,0.6c0-0.2,0.1-0.1,0.2,0.1c0.1,0.2,0.1,0.2,0.1,0s-0.1-0.3-0.2-0.3
		c-0.1,0-0.2-0.1-0.4-0.3C39.5,16.1,39.4,16,39.4,16.1 M23.9,16.7c0,0.1,0.1,0.2,0.2,0.3c0.1,0.1,0.1,0.3,0.1,0.5
		c-0.1,0.4-0.1,0.3,0.1,0c0.1-0.3,0.1-0.4,0-0.5s0-0.2,0.4-0.2l0.6-0.1h-0.6C24.1,16.5,23.9,16.6,23.9,16.7 M11.2,17.1
		c0,0,0.2,0.3,0.5,0.5l0.5,0.5l-0.5-0.5C11.3,17,11.2,16.9,11.2,17.1 M27.5,18c-0.2,0.8-1.9,2.2-2.2,1.9c-0.3-0.3-0.3-0.3-0.1,0
		c0.1,0.2,0.2,0.4,0.3,0.4c0.2,0,2.2-2.1,2.2-2.4C27.7,17.5,27.6,17.6,27.5,18 M24.2,17.9c0,0.1,0.1,0.4,0.3,0.8
		c0.2,0.3,0.3,0.5,0.3,0.4s-0.1-0.4-0.3-0.8C24.4,18,24.2,17.8,24.2,17.9 M18.2,18.7c0.1,0.9,0.2,1,0.2,0.2c0-0.4-0.1-0.7-0.2-0.8
		C18.1,18,18.1,18.3,18.2,18.7 M4.7,18.2c0,0,0.2,0.3,0.5,0.5l0.5,0.5l-0.5-0.5C4.8,18.2,4.7,18.1,4.7,18.2 M167.9,18.5
		c0.3,0,0.7,0,0.9,0c0.3,0,0-0.1-0.5-0.1C167.9,18.4,167.7,18.4,167.9,18.5 M76.7,20.5c0.1,2.9,0.1,3.1,0.2,0.6c0-1.3,0-2.4-0.1-2.4
		S76.6,19.5,76.7,20.5 M88.1,29.9c0,6.2,0,8.8,0,5.6c0-3.1,0-8.2,0-11.3S88.1,23.7,88.1,29.9 M103.6,20.6c0,1.1,0,1.5,0.1,1
		c0-0.6,0-1.5,0-2C103.6,19,103.6,19.5,103.6,20.6 M104.7,18.9c0,0.2,0.1,0.2,0.3,0.2c0.3-0.1,0.3,0,0.4,1.8v1.9h3.4h3.4l-3.4-0.1
		h-3.4v-1.8c0-1.6,0-1.8-0.3-2C104.8,18.6,104.7,18.6,104.7,18.9 M124.6,20.6v2h-3.5h-3.5h3.5c2.8,0,3.6,0,3.6-0.2
		c0-0.1,0.1-1.1,0-2.1l-0.1-1.9V20.6 M136.1,26.3c0,4.2,0,5.9,0,3.8c0-2.1,0-5.6,0-7.7S136.1,22,136.1,26.3 M155.4,25.8
		c0,4,0,5.6,0,3.6s0-5.3,0-7.3C155.5,20.2,155.4,21.8,155.4,25.8 M189.6,29.9c0,6.2,0,8.8,0,5.6c0-3.1,0-8.2,0-11.3
		S189.6,23.7,189.6,29.9 M205.1,20.6c0,1.1,0,1.5,0.1,1c0-0.6,0-1.5,0-2C205.1,19,205.1,19.5,205.1,20.6 M246.5,20.7v2H243h-3.5v9.2
		v9.2v-9.2v-9.2h3.5h3.5v-2.1c0-1.1,0-2.1-0.1-2.1C246.6,18.7,246.5,19.6,246.5,20.7 M5.2,19.2c0.3,0.4,0.7,0.5,0.7,0.2
		c0-0.1-0.1-0.1-0.1,0S5.4,19.3,5.2,19.2l-0.4-0.5L5.2,19.2 M20,19.2c0,0,0.2,0.1,0.4,0.1c0.2,0,0.4,0,0.4-0.1s-0.2-0.1-0.4-0.1
		S20,19.2,20,19.2 M19.3,19.6c-0.5,0.4-0.2,0.4,0.6,0.2c0.4-0.1,0.6-0.2,0.5-0.2s-0.4,0-0.5-0.1S19.5,19.4,19.3,19.6 M174.4,19.7
		c0.2,0.2,1.2,0.6,1.2,0.5C175.5,20.2,174.6,19.7,174.4,19.7C174.4,19.7,174.3,19.7,174.4,19.7 M43.5,20.4c0.7,0.3,1.3,0.3,1.4,0.1
		c0-0.1-0.2-0.1-0.4-0.1c-0.3,0-0.8-0.1-1-0.1C43,20.2,43,20.2,43.5,20.4 M15,20.6c0.1,0.1,0.3,0.2,0.4,0.1c0.2-0.1,0-0.3-0.3-0.3
		C14.9,20.4,14.9,20.4,15,20.6 M32.1,20.6c0.4,0.1,0.4,0.2-0.5,1.9c-0.5,0.9-0.8,1.6-0.8,1.7s0.4-0.6,0.9-1.6
		C32.5,21,32.6,20.5,32.1,20.6C31.8,20.5,31.8,20.5,32.1,20.6 M40.3,20.9c0.2,0.1,0.5,0.4,0.6,0.6s0.2,0.3,0.2,0.2c0-0.3-0.7-1-1-1
		C40,20.7,40.1,20.8,40.3,20.9 M28.8,22.1c-0.4,0.4-1,1.2-1.4,1.6l-0.6,0.8l0.6-0.7C27.8,23.4,28.5,22.7,28.8,22.1
		c0.5-0.4,0.9-0.8,0.8-0.8C29.6,21.3,29.3,21.7,28.8,22.1 M175.6,22.8c-0.3,0.6-0.2,0.7,0.1,0.2c0.1-0.3,0.2-0.5,0.2-0.5
		C175.8,22.4,175.7,22.5,175.6,22.8 M194.4,25.2c0,1.5,0,2.1,0.1,1.4c0-0.8,0-2,0-2.8C194.5,23,194.4,23.7,194.4,25.2 M231,22.8h3.5
		V32v9.2V32v-9.2H231l-3.5-0.1L231,22.8 M112.6,32c0,5.1,0,7.2,0,4.6s0-6.7,0-9.3S112.6,26.9,112.6,32 M19.8,23.8
		c0.2,0.4,0.5,1.1,0.6,1.5s0.2,0.5,0.2,0.4c0-0.4-0.9-2.3-1.1-2.5C19.5,23,19.6,23.3,19.8,23.8 M21.2,23.3c-0.6,0.5-0.3,0.7,0.4,0.2
		c0.4-0.2,0.5-0.3,0.3-0.3c-0.3,0.1-0.4,0.1-0.3-0.1C21.8,22.9,21.6,23,21.2,23.3 M34.3,23.5c-0.3,0.3-0.4,0.4-0.2,0.3
		c0.1-0.1,0.5-0.3,0.8-0.5c0.3-0.1,0.4-0.3,0.2-0.3C34.9,23,34.5,23.2,34.3,23.5 M36.5,23.1c0.1,0.1,0.2,0.4,0.2,0.7
		c0.1,0.4,0.1,0.4,0.1,0.1c0-0.2-0.1-0.5-0.2-0.7C36.5,23.1,36.4,23,36.5,23.1 M164.6,23.5c-0.2,0.3-0.4,0.6-0.4,0.7s0.1,0,0.2-0.1
		c0.1-0.2,0.3-0.5,0.5-0.7s0.3-0.4,0.2-0.4C165.1,23,164.9,23.2,164.6,23.5 M48.2,23.4c-0.1,0.1-0.2,0.7-0.3,1.2v0.9l0.1-0.9
		c0.2-1.1,0.3-1.4,0.7-1.3c0.2,0,0.3,0,0.2-0.1C48.8,23.1,48.4,23.1,48.2,23.4 M45.3,24.5l-0.7,0.7l0.7-0.6c0.4-0.3,0.8-0.6,0.9-0.7
		c0.2-0.1,0.2-0.1,0-0.1S45.6,24.2,45.3,24.5 M9.5,24.5c-0.3,0.3-0.5,0.6-0.5,1C9,26,9,26,9.1,25.4c0.2-1,0.9-1.4,1.7-0.9
		c0.4,0.2,0.4,0.2,0.2,0C10.6,23.9,10,24,9.5,24.5 M33.1,24.4c-0.7,0.8-0.9,1.1-0.9,1.1s0.4-0.3,0.7-0.8
		C33.6,24,33.7,23.7,33.1,24.4 M45.6,24.8l-0.7,0.6L45.6,24.8c0.7-0.4,0.9-0.6,0.7-0.6C46.3,24.2,46,24.4,45.6,24.8 M36.5,24.6
		c-0.2,0.5-0.1,0.9,0.7,1.6l0.8,0.7l-0.8-0.8c-0.6-0.7-0.7-0.8-0.6-1.3C36.7,24.3,36.6,24.2,36.5,24.6 M164.1,25
		c0,0.3,0,0.5,0.1,0.3c0-0.2,0-0.4,0-0.6C164.1,24.5,164.1,24.7,164.1,25 M159.2,25.5c0,0.4,0,0.6,0.1,0.4c0-0.2,0-0.5,0-0.8
		C159.3,24.9,159.2,25.1,159.2,25.5 M212.9,25.3c-0.3,0.6-0.2,0.7,0.1,0.2c0.1-0.3,0.2-0.5,0.2-0.5C213.1,24.9,213,25,212.9,25.3
		 M48.1,26.2c0,0.3,0,0.5,0.1,0.3c0-0.2,0-0.4,0-0.6C48.1,25.7,48.1,25.8,48.1,26.2 M20.7,27.4c0,0.8,0,1.4,0.1,1.4s0.1-0.6,0.1-1.4
		C20.9,25.6,20.7,25.6,20.7,27.4 M25.2,26.8c-0.2,0.3-0.3,0.5-0.3,0.5s0.2-0.2,0.4-0.5s0.3-0.5,0.3-0.5S25.4,26.6,25.2,26.8
		 M212.1,27.1c-0.3,0.6-0.2,0.7,0.1,0.2c0.1-0.3,0.2-0.5,0.2-0.5C212.3,26.7,212.2,26.9,212.1,27.1 M223.7,26.9
		c0,0.1,0.1,0.4,0.3,0.8c0.2,0.3,0.3,0.5,0.3,0.4s-0.1-0.4-0.3-0.8C223.9,27,223.7,26.8,223.7,26.9 M33.4,27.2
		c-0.2,0-0.2,0.2-0.2,0.2c0.1,0.1,0.3,0,0.5-0.2C34.1,27,33.8,26.9,33.4,27.2 M28.7,28.4c-0.3,0.7-0.6,1.3-0.6,1.4
		c0,0.1,0.3-0.5,0.7-1.2s0.6-1.3,0.6-1.4C29.3,27.2,29,27.7,28.7,28.4 M31.7,27.5c0.2,0.6,1.3,0.6,2.1,0.1c0.3-0.2,0.2-0.2-0.3,0
		c-0.8,0.3-1.4,0.3-1.6,0C31.8,27.4,31.7,27.3,31.7,27.5 M14,27.7c-0.3,0.1-0.8,0.5-1.1,0.9l-0.6,0.6l0.8-0.7c1-0.9,2.1-1.1,3.6-0.6
		c0.2,0.1,0.1,0-0.2-0.1C15.8,27.5,14.6,27.4,14,27.7 M20.4,28c0,0.3,0,0.5,0.1,0.3c0-0.2,0-0.4,0-0.6C20.4,27.5,20.4,27.7,20.4,28
		 M37.2,27.7c0.2,0.2,0.4,0.3,0.6,0.2c0.2-0.1,0.3-0.1,0.1-0.3s-0.2-0.2-0.3,0C37.5,27.8,37.4,27.8,37.2,27.7
		C37,27.5,37,27.5,37.2,27.7 M167.8,27.8c0.2,0.1,0.5,0.1,0.7,0.1c0.3,0,0.3,0-0.1-0.1C167.8,27.7,167.4,27.7,167.8,27.8
		 M102.9,29.7v2h-5h-5h5c4,0,5.1,0,5.1-0.2c0-0.1,0.1-1,0-2l-0.1-1.8V29.7 M159.7,28c0,0.1,0.2,0.4,0.3,0.6l0.3,0.4l-0.3-0.5
		C159.7,27.8,159.7,27.7,159.7,28 M204.4,29.7v2h-5h-5v2.9v2.9l0.1-2.8l0.1-2.8h4.9c3.9,0,4.9,0,5-0.2c0-0.1,0.1-1,0-2l-0.1-1.8
		V29.7 M23.9,28.8c-0.3,0.4-0.5,0.8-0.4,0.8c0,0,0.3-0.3,0.6-0.8c0.3-0.4,0.5-0.8,0.4-0.8S24.2,28.3,23.9,28.8 M42.5,28.9
		c-0.1,0.1-0.1,0.3-0.1,0.6c0,0.4,0,0.5-1,0.5l-1,0.1h1h1l0.1-0.7c0-0.4,0.1-0.7,0-0.7C42.6,28.8,42.5,28.9,42.5,28.9 M51.3,29.1
		c0.1,0.2,0.2,0.4,0.2,0.6c0.1,0.2,0.1,0.2,0.1,0C51.6,29.6,51.5,29.3,51.3,29.1C51.2,28.8,51.2,28.8,51.3,29.1 M4.6,30.8
		c0,1.3,0.1,1.2,0.2-0.4c0-0.5,0-0.9-0.1-0.9C4.6,29.5,4.5,30.1,4.6,30.8 M44.9,29.7C45,29.9,45,30,45,30.1c0,0,0.4,0.1,0.8,0
		c0.8,0,0.8,0,0.1-0.1C45.5,30,45.1,29.8,44.9,29.7C44.8,29.4,44.8,29.4,44.9,29.7 M220.4,29.6c0,0.1,0.1,0.4,0.2,0.6
		c0.1,0.2,0.2,0.3,0.2,0.3c0-0.1-0.1-0.4-0.2-0.6C220.5,29.6,220.4,29.5,220.4,29.6 M4.9,30c0,0.1,0.1,0.4,0.1,0.6
		c0.1,0.2,0.1,0.2,0.1,0.1c0-0.1-0.1-0.4-0.1-0.6C4.9,29.9,4.9,29.8,4.9,30 M8.9,30c-0.2,0.3,0.1,0.4,0.4,0.1c0.2-0.2,0.2-0.3,0-0.3
		C9.1,29.9,9,30,8.9,30 M30.2,29.9c0.2,0,0.4,0,0.6,0c0.2,0,0-0.1-0.3-0.1S30.1,29.9,30.2,29.9 M52.7,30.2c0,0.2-0.1,0.3-0.4,0.3
		c-0.3,0-0.3,0,0.1,0.1C53,30.7,53.1,30.6,52.7,30.2C52.7,29.9,52.7,29.9,52.7,30.2 M6.1,30.4c0.2,0,0.4,0,0.6,0s0-0.1-0.3-0.1
		C6,30.4,5.9,30.4,6.1,30.4 M5.4,30.7c0,0.1,0.2,0.1,0.5,0.1s0.5,0,0.5-0.1c0,0-0.2-0.1-0.5-0.1C5.6,30.6,5.4,30.6,5.4,30.7
		 M27.5,30.7c0,0.4,0.3,0.5,0.9,0.6c0.5,0,0.5,0,0-0.3c-0.3-0.1-0.4-0.1-0.3,0c0.1,0.1,0,0.2,0,0.2s-0.2-0.2-0.3-0.4
		C27.6,30.5,27.6,30.5,27.5,30.7 M30.3,30.6c0.2,0,0.5,0,0.8,0c0.2,0,0-0.1-0.4-0.1C30.3,30.5,30.1,30.6,30.3,30.6 M19.8,30.8
		c0.2,0,0.5,0,0.7,0s0-0.1-0.4-0.1C19.7,30.7,19.6,30.7,19.8,30.8 M32.8,30.8c0.1,0,0.2,0.2,0.2,0.2c0,0.1-0.2,0.1-0.4,0
		c-0.3-0.1-0.3-0.1-0.2,0c0.3,0.4,0.9,0.4,0.7,0C33.1,30.8,32.9,30.7,32.8,30.8C32.7,30.7,32.7,30.7,32.8,30.8 M34.7,30.8
		c0.7,0.1,1.9,0.1,2.7,0c1.1-0.1,0.8-0.1-1.3-0.1C34.1,30.7,33.8,30.7,34.7,30.8 M44.8,31C44.6,31.2,44.6,31.2,44.8,31
		c0.2,0,1-0.1,2.1-0.2l1.8-0.1h-1.9C45.3,30.7,45,30.7,44.8,31 M163,30.9c0.2,0.1,0.5,0.2,0.6,0.2s0-0.1-0.3-0.2
		c-0.2-0.1-0.5-0.2-0.6-0.2C162.7,30.7,162.8,30.8,163,30.9 M7.8,31.1c-0.2,0.1-0.3,0.3-0.2,0.4c0.1,0.1,0.1,0,0.1-0.1
		s0.1-0.2,0.3-0.2c0.1,0,0.3-0.1,0.3-0.2C8.2,30.8,8.2,30.8,7.8,31.1 M11.7,31.3c0,0.2,0,0.4,0.1,0.4s0.1-0.2,0.1-0.4s0-0.4-0.1-0.4
		S11.7,31,11.7,31.3 M23.2,31.3c0,0.3,0,0.5,0.1,0.6c0.1,0,0.1-0.2,0.1-0.5C23.4,30.7,23.3,30.7,23.2,31.3 M34.3,31.3
		c-0.4,0.2-0.7,0.3-0.8,0.2c-0.2-0.1-0.2,0.2,0,0.3c0.1,0.1,0.2,0,0.4-0.2c0.2-0.1,0.6-0.4,1-0.5s0.6-0.2,0.4-0.2
		C35.1,31,34.6,31.1,34.3,31.3 M9,31.5c0.2,0.2,0.3,0.3,0.4,0.2c0.1,0,0.2,0,0.2,0.1C9.7,31.9,9.8,32,9.9,32c0.2,0-0.7-0.7-1-0.8
		C8.7,31.2,8.7,31.3,9,31.5 M38,31.4c0.3,0.1,0.8,0.5,1.2,0.9l0.7,0.6l-0.7-0.6c-0.5-0.6-1.3-1.1-1.6-1.1
		C37.5,31.2,37.7,31.3,38,31.4 M42.5,31.3c-0.2,0.2,0.1,0.4,0.5,0.4c0.5,0,0.5-0.2,0.1-0.4C42.8,31.1,42.6,31.1,42.5,31.3 M29,31.4
		c-0.2,0.2-0.1,0.4,0,0.3c0.1-0.1,0.2,0.1,0.2,0.3c0.1,0.3,0.1,0.2,0.1-0.2C29.4,31.4,29.2,31.2,29,31.4 M44,31.7
		c0.4,0.4,0.5,1.5,0.2,1.4c-0.1,0-0.3,0.1-0.5,0.3c-0.2,0.3-0.2,0.4-0.1,0.4c0.2,0,0.1,0,0,0.2c-0.1,0.1-0.2,0.2-0.1,0.2
		c0.7,0,1.4-1.9,0.8-2.3c-0.1-0.1-0.2-0.3-0.2-0.4c0.1-0.1,0-0.1-0.2-0.1C43.7,31.3,43.7,31.4,44,31.7 M34.4,31.7
		c-0.2,0-0.2,0.2-0.2,0.2c0.1,0.1,0.6-0.1,0.6-0.3C34.9,31.5,34.7,31.5,34.4,31.7 M10.7,32c-0.6,0.1-0.6,0.1-0.1,0.1
		c0.3,0,0.6-0.1,0.8-0.1C11.6,31.8,11.6,31.8,10.7,32 M52.2,32.6c-0.1,0.3-0.3,0.5-0.4,0.5c-0.1-0.1-0.1,0-0.1,0.1
		c0.1,0.1,0.2,0.2,0.2,0.2c0.1,0,0.6-1.2,0.5-1.3C52.4,32,52.3,32.2,52.2,32.6 M10,32.8c0.3,0.3,0.6,0.6,0.6,0.6s-0.2-0.3-0.5-0.6
		s-0.6-0.6-0.6-0.6S9.7,32.4,10,32.8 M26.2,32.5C26,32.7,26,32.7,26.2,32.5c0.3-0.1,0.3-0.1,0.4,0.1c0.1,0.1,0.1,0.1,0.1-0.1
		c0-0.2-0.1-0.3-0.1-0.3C26.5,32.2,26.3,32.3,26.2,32.5 M218,32.3l-3.6,0.1h3.5c2.2,0,3.6,0,3.6-0.1c0.1-0.1,0.1-0.2,0.1-0.1
		S220,32.3,218,32.3 M26.9,32.6c0,0.1,0,0.3,0,0.4c0,0.1,0.1,0.1,0.2,0.1c0.1,0,0.2,0.1,0.2,0.2c0,0.1,0,0.2,0.1,0.1
		c0.1-0.1,0.1-0.2,0-0.3s-0.1-0.2-0.1-0.3s0-0.2-0.2-0.3C26.9,32.3,26.9,32.3,26.9,32.6 M50.4,32.6c0.1,0.1,0.3,0.2,0.4,0.1
		c0.2-0.1,0.1-0.3-0.3-0.3C50.2,32.4,50.2,32.4,50.4,32.6 M51.1,32.4c0,0.1,0,0.2-0.1,0.4c-0.2,0.2-0.2,0.2,0,0.1
		c0.1-0.1,0.2,0,0.2,0.1s0.1,0.2,0.2,0.2c0.1,0,0.1-0.1,0-0.3s-0.2-0.3-0.2-0.3C51.2,32.5,51.2,32.4,51.1,32.4L51.1,32.4 M23.2,32.6
		c0,0.2,0.9,0.6,1.2,0.5s0.3-0.2,0.1-0.2c-0.2-0.1-0.3,0-0.3,0.1s-0.1,0.2-0.2,0.2c-0.1,0-0.1-0.1-0.1-0.2c0.1-0.1,0.1-0.2,0-0.1
		c-0.1,0.1-0.3,0-0.4,0C23.3,32.6,23.2,32.5,23.2,32.6 M48.8,33.1c0.1,0.4,0.8,0.8,0.8,0.4c0-0.1-0.1-0.1-0.3-0.1s-0.3,0-0.3-0.1
		s-0.1-0.2-0.1-0.3C48.8,32.9,48.7,32.9,48.8,33.1 M52.5,34.4c-0.7,1.9-0.7,1.9-0.5,1.6c0.3-0.4,1.2-3,1.1-3.1
		C53.1,32.9,52.8,33.5,52.5,34.4 M20,33.1c-0.1,0.1,0,0.2,0.1,0.3c0.3,0.3-0.2,1.7-0.5,1.7c-0.1,0-0.1,0.1,0.2,0.2
		c0.4,0.1,0.3,0.1-0.3,0.2c-0.6,0-2.1,0.8-2.1,1.1c0,0,0.3-0.1,0.7-0.4c1.2-0.9,2.3-0.6,1.8,0.4c-0.2,0.3-0.1,0.3,0.2,0.1
		c0.3-0.2,0.3-0.4,0.3-1c0-1.4,0-1.8,0.2-1.7c0.3,0.2,0.2-0.2-0.1-0.6C20.2,33.1,20.1,33,20,33.1 M28.2,33.3c0,0.1,0.2,0.5,0.5,0.8
		s0.4,0.4,0.2,0.1c-0.2-0.2-0.4-0.6-0.5-0.8C28.3,33.2,28.2,33.2,28.2,33.3 M29.3,33.5c-0.1,0.4,0,0.6,0.7,1.2
		c0.8,0.8,0.8,0.8,0.2,0.1c-0.4-0.4-0.6-0.8-0.5-1c0-0.2,0-0.4-0.1-0.5C29.4,33.2,29.4,33.2,29.3,33.5 M209.1,33.6
		c-0.3,0.6-0.2,0.7,0.1,0.2c0.1-0.3,0.2-0.5,0.2-0.5C209.3,33.2,209.2,33.4,209.1,33.6 M8.5,34.2c-0.2,0.1-0.4,0.2-0.4,0.3
		s0,0.2-0.2,0.1C7.6,34.5,7,34.9,7,35.2c0,0.1-0.1,0.2-0.2,0.2s-0.1,0.1-0.1,0.3C6.8,36,6.8,36,6.9,35.8c0-0.2,0.4-0.5,0.7-0.7
		c0.4-0.2,0.6-0.5,0.6-0.6s0.1-0.1,0.3-0.1S9,34.3,9,34.2C9.2,34,9.1,34,8.5,34.2 M40.4,34.1c0,0.1,0.2,0.3,0.4,0.4
		c0.5,0.3,0.5,0.2,0.1-0.2C40.6,34,40.4,33.9,40.4,34.1 M12.8,34.3c0.1,0.1,0,0.2-0.1,0.3c-0.2,0.1-0.2,0.1,0,0.1
		c0.1,0,0.2,0.1,0.1,0.2C12.7,35,12.8,35,13,35c0.4-0.1,0.4-0.2,0.1-0.5C12.8,34.2,12.7,34.2,12.8,34.3 M45.4,34.6
		c0.5,0.4,0.8,0.4,0.8,0.2h-0.1c-0.1,0-0.3-0.1-0.6-0.2c-0.2-0.2-0.5-0.3-0.6-0.3C44.9,34.2,45.1,34.4,45.4,34.6 M40,34.6
		c0,0.2,0.1,0.3,0.4,0.4c0.5,0.1,0.5-0.1,0.1-0.4C40.2,34.3,40,34.3,40,34.6 M23.3,34.7c-0.1,0.1,0,0.2,0.1,0.3s0.2,0,0.3-0.1
		s0.2-0.1,0.3-0.1s0.3,0,0.3-0.1s-0.1-0.2-0.4-0.2S23.3,34.6,23.3,34.7 M50,34.8c0.2,0.2,0.5,0.3,0.7,0.3s0.3,0.1,0.4,0.2
		c0,0.1,0.1,0,0.2-0.3c0.2-0.5-0.1-0.6-0.6-0.2C50.5,34.9,50.3,34.9,50,34.8l-0.4-0.3L50,34.8 M24.2,34.9c-0.2,0.1-0.3,0.2-0.1,0.2
		c0.1,0,0.4,0,0.5,0.1s0.2,0.1,0.2-0.1c0-0.2,0.1-0.2,0.3,0.1c0.1,0.2,0.2,0.2,0.2,0.2C25.2,34.9,24.6,34.7,24.2,34.9 M31.7,35.1
		c0.2,0.3,0.4,0.5,0.5,0.5s-0.3-0.6-0.6-0.8C31.4,34.7,31.5,34.8,31.7,35.1 M18.4,35c0.2,0.1,0.2,0.2,0,0.2s-0.3,0.1-0.3,0.3
		c0,0.3,0,0.3,0.3,0c0.2-0.2,0.4-0.3,0.6-0.3c0.4,0,0.3-0.1-0.3-0.2C18.3,34.9,18.2,34.9,18.4,35 M21.5,35.1c0,0.1,0,0.3,0,0.4
		c0.1,0.2,0.2,0.1,0.2-0.1c0.1-0.3,0.2-0.3,0.6-0.3c0.3,0,0.5,0,0.6-0.1s-0.2-0.1-0.7-0.1C21.8,34.9,21.5,34.9,21.5,35.1 M25.6,35.3
		c0,0.2,0.1,0.4,0.2,0.4c0.1,0,0,0.2-0.2,0.3c-0.2,0.2-0.3,0.4-0.2,0.4c0.1,0.1,0.1,0,0.1-0.1s0.1-0.2,0.2-0.2s0.1,0.1,0.1,0.1
		c-0.1,0.1,0,0.2,0.2,0.4c0.1,0.1,0.2,0.1,0.2,0.1c0-0.1,0.2,0,0.4,0.2s0.2,0.1-0.1-0.2S26,35.9,26,35.6
		C25.8,35,25.6,34.7,25.6,35.3 M176.9,35.3c0,0.3,0,0.5,0.1,0.3c0-0.2,0-0.4,0-0.6C176.9,34.9,176.9,35,176.9,35.3 M208.2,35.4
		c-0.3,0.6-0.2,0.7,0.1,0.2c0.1-0.3,0.2-0.5,0.2-0.5C208.5,35,208.3,35.2,208.2,35.4 M39.9,35.6c-0.1,0.2-0.1,0.5-0.1,0.5
		s0.1-0.1,0.2-0.3c0.1-0.2,0.2-0.4,0.3-0.5s0.1-0.1,0-0.1C40.1,35.2,40,35.4,39.9,35.6 M41.7,35.3c0,0.1-0.2,0.1-0.6,0.1
		c-0.6-0.1-0.6-0.1,0.1,0.2c1,0.3,1.1,0.3,1.1,0.1c0-0.1-0.1-0.2-0.3-0.1c-0.4,0.1-0.4,0.1-0.1-0.1c0.3-0.2,0.3-0.3,0-0.3
		C41.8,35.2,41.7,35.2,41.7,35.3 M46.2,35.5c-0.2,0.1-0.2,0.2,0,0.4c0.1,0.1,0.3,0.2,0.4,0.1c0.1-0.1,0.2,0,0.3,0.2
		c0.2,0.3,0.2,0.3,0.1-0.1c-0.1-0.2-0.3-0.4-0.4-0.3c-0.1,0-0.2-0.1-0.2-0.2C46.5,35.3,46.5,35.3,46.2,35.5 M48.7,35.6
		c0,0.6,0.3,0.9,0.4,0.4c0.1-0.2,0.1-0.4,0-0.5s-0.1,0-0.1,0.2s0,0.2-0.2-0.1C48.8,35.3,48.7,35.3,48.7,35.6 M171.9,35.9
		c-0.2,0.5-0.2,0.5,0,0.2s0.3-0.8,0.2-0.8C172.1,35.3,172,35.6,171.9,35.9 M227.7,35.6c0,0.1,0.1,0.4,0.2,0.6s0.2,0.3,0.2,0.3
		c0-0.1-0.1-0.4-0.2-0.6C227.8,35.6,227.7,35.5,227.7,35.6 M32.2,35.9c0,0.1,0.1,0.4,0.3,0.7c0.4,0.7,0.4,0.4,0-0.3
		C32.4,36,32.2,35.8,32.2,35.9 M149.1,36.4l-0.5,0.5L149.1,36.4c0.3-0.2,0.6-0.5,0.6-0.5C149.7,35.8,149.6,35.9,149.1,36.4
		 M29.7,36.6l-0.4,0.5L29.7,36.6c0.3-0.2,0.5-0.4,0.5-0.5C30.2,36.1,29.9,36.3,29.7,36.6 M7.4,36.8c0.2,0.4,0.4,0.7,0.5,0.7
		S8,37.6,8,37.6c-0.1,0.1,0.1,0.3,0.2,0.5c0.3,0.4,0.3,0.4,0.4,0.1c0.1-0.2,0.2-0.3,0.3-0.3s0.3-0.1,0.3-0.2c0.1-0.1,0-0.1-0.1-0.1
		c-0.1,0.1-0.3,0-0.4-0.1c-0.2-0.2-0.2-0.2-0.1,0.1c0.1,0.2-0.1,0.1-0.5-0.3c-0.3-0.3-0.6-0.6-0.6-0.7c0-0.2-0.3-0.7-0.4-0.7
		C7.1,36.2,7.2,36.5,7.4,36.8 M7.9,36.7c0.3,0.3,0.5,0.6,0.5,0.6c0.1,0-0.6-1-0.8-1.1C7.6,36.2,7.7,36.4,7.9,36.7 M23.1,36.4
		c0.1,0.3,0.1,0.3-0.2,0.1s-0.3-0.2-0.1,0c0.1,0.2,0.3,0.3,0.3,0.2c0,0,0.2,0,0.3,0.1c0.3,0.2,0.8,0.4,0.7,0.2
		c-0.1-0.1-0.2-0.2-0.3-0.2s-0.3-0.2-0.5-0.4C23.1,36.1,23,36.1,23.1,36.4 M48.5,36.4c-0.1,0.1,0,0.3,0,0.4c0.2,0.1,0.3-0.1,0.2-0.4
		C48.6,36.2,48.6,36.2,48.5,36.4 M12.6,36.5c-0.3,0.1-0.3,0.1,0,0.2c0.2,0.1,0.3,0,0.4-0.1C13.1,36.4,13,36.4,12.6,36.5 M31.3,36.6
		c0.1,0.2,0.3,0.5,0.4,0.7l0.3,0.3l-0.2-0.3C31.7,37.1,31.5,36.8,31.3,36.6l-0.1-0.3L31.3,36.6 M51.3,37.3c-0.2,0.5-0.4,0.9-0.4,0.9
		c0.1,0,1-1.7,0.9-1.8C51.8,36.4,51.6,36.8,51.3,37.3 M27,36.8c0.1,0.2,0.2,0.5,0.2,0.6s0,0.1,0.1,0s0.2,0,0.2,0.1
		c0,0.2,0.6,0.4,0.8,0.2c0.1-0.1,0-0.1-0.1-0.1c-0.1,0.1-0.4-0.1-0.8-0.5C27,36.6,26.9,36.5,27,36.8 M39,36.8
		c-0.1,0.2-0.2,0.3-0.1,0.2c0.1-0.1,0.3,0,0.4,0.2c0.1,0.3,0.2,0.3,0.3,0c0.1-0.2,0-0.2,0-0.2c-0.1,0.1-0.2,0-0.2-0.2
		C39.3,36.5,39.3,36.5,39,36.8 M228.4,37.1c0,0.1,0.1,0.4,0.2,0.6c0.1,0.2,0.2,0.3,0.2,0.3c0-0.1-0.1-0.4-0.2-0.6
		C228.5,37.1,228.4,37,228.4,37.1 M24.3,37.3c-0.1,0.1-0.2,0.1-0.4,0.1c-0.2-0.1-0.1,0,0.1,0.3c0.2,0.3,0.4,0.6,0.4,0.9
		c0,0.3,0.1,0.4,0.1,0.3c0.1-0.1,0.1-0.1,0.2,0.1c0,0.2,0.1,0,0.1-0.4s-0.1-0.8-0.2-1c-0.1-0.2-0.2-0.4-0.1-0.5
		c0.1-0.1,0.1-0.1,0-0.1C24.4,37.2,24.3,37.2,24.3,37.3 M31,37.4c-0.2,0.2-0.1,0.3,0.2,0.3c0.1,0,0.1,0.1,0,0.3c0,0.2,0,0.4,0.1,0.4
		c0.1,0.1,0.2,0,0.2-0.2s0.2,0,0.5,0.5c0.3,0.4,0.6,0.8,0.8,0.9c0.4,0.1,0.8,0.5,0.6,0.8c-0.1,0.1-0.2,0.1-0.5-0.1
		c-0.2-0.2-0.1-0.1,0.1,0.2c0.6,0.6,0.8,0.5,0.6-0.3c-0.1-0.4-0.6-1-0.7-0.9c-0.2,0.2-0.4-0.1-0.9-0.9c-0.3-0.5-0.6-0.9-0.7-0.9
		s-0.1-0.1,0-0.2C31.4,37.1,31.3,37.1,31,37.4 M85.1,39.2c0,1.1,0,1.6,0.1,1c0-0.6,0-1.5,0-2.1C85.1,37.6,85.1,38,85.1,39.2
		 M12.6,37.4c-0.3,0.1-0.3,0.6,0,1c0.2,0.3,0.2,0.3,0.2-0.3c0-0.4,0-0.6,0.1-0.5s0.2,0,0.3-0.1C13.2,37.3,12.9,37.3,12.6,37.4
		 M16.3,37.6c-0.4,0.4-0.4,2.2,0,2.2c0.2,0,0.2,0,0.1-0.1c-0.3-0.1-0.3-1.7,0.1-2.1c0.2-0.2,0.2-0.3,0.2-0.3S16.5,37.5,16.3,37.6
		 M103.6,39.3c0,1.1,0,1.5,0.1,1c0-0.6,0-1.5,0-2C103.6,37.7,103.6,38.2,103.6,39.3 M205.1,39.3c0,1.1,0,1.5,0.1,1c0-0.6,0-1.5,0-2
		C205.1,37.7,205.1,38.2,205.1,39.3 M24.7,38.3c0,0.1-0.1,0-0.3-0.2c-0.3-0.6-0.3-0.8,0-0.4C24.6,37.9,24.7,38.2,24.7,38.3
		 M32.3,38.2c0.1,0.3,0.3,0.5,0.3,0.5S32.6,38.5,32.3,38.2c-0.1-0.3-0.2-0.5-0.2-0.5C32.1,37.7,32.1,37.9,32.3,38.2 M20.4,38.6
		c0.3,0.3,0.6,0.6,0.6,0.6s-0.2-0.3-0.5-0.6c-0.3-0.3-0.6-0.6-0.6-0.6C19.8,38,20.1,38.3,20.4,38.6 M41.8,38.3
		C41.5,38.6,41.5,38.6,41.8,38.3c0.2,0,0.4-0.1,0.6-0.1c0.2-0.1,0.2-0.1,0-0.1C42.2,38,42,38.1,41.8,38.3 M38.8,38.3
		c-0.1,0.3-0.1,0.6,0.2,0.7c0.1,0,0.2,0,0.2-0.2s0-0.2,0.2,0c0.3,0.4,0.2,1.2-0.1,1.6c-0.3,0.3-0.3,0.3,0.1,0c0.5-0.4,0.5-1.3,0-1.9
		C39.1,38.3,38.9,38.2,38.8,38.3 M138.4,38.9c0.4,0.4,0.8,0.8,0.8,0.8C139.3,39.7,139.1,39.5,138.4,38.9l-0.7-0.8L138.4,38.9
		 M22.5,38.6c0.3,0.4,1.1,0.8,1.5,0.8c0.2,0,0-0.1-0.3-0.2c-0.3-0.1-0.8-0.4-1-0.5C22.3,38.3,22.3,38.3,22.5,38.6 M33.6,38.9
		c0,0.3,0.1,0.6,0.2,0.6s0.1,0.1,0.1,0.2c-0.1,0.1,0,0.1,0.1,0.1c0.1-0.1,0.2-0.2,0.1-0.3c0-0.1,0.1-0.3,0.4-0.5
		c0.3-0.2,0.5-0.3,0.5-0.2s0.2,0.1,0.4,0c0.3-0.2,0.4-0.2,0.4,0c0,0.1,0.1,0.2,0.2,0.2c0.3,0,0-0.3-0.5-0.5c-0.3-0.1-0.5-0.1-1,0.3
		c-0.7,0.5-0.7,0.5-0.8,0C33.6,38.3,33.6,38.4,33.6,38.9 M41.2,38.5c0,0.1-0.1,0.2-0.2,0.1c-0.2-0.1-0.8,0.7-0.8,1.1
		c0,0.3,0,0.3,0.2,0c0.1-0.2,0.4-0.5,0.6-0.8c0.2-0.3,0.4-0.5,0.3-0.6S41.2,38.4,41.2,38.5 M30.5,39.1l-0.6,0.6L30.5,39.1
		c0.3-0.2,0.7-0.4,0.8-0.3c0.1,0.1,0.1,0,0-0.1C31.1,38.4,31.2,38.4,30.5,39.1 M36.5,38.9c0.5,0.5,0.7,0.5,0.7,0.2
		c0-0.1-0.1-0.1-0.1-0.1c-0.1,0-0.3-0.1-0.4-0.2c-0.2-0.2-0.4-0.3-0.5-0.3C36.1,38.5,36.2,38.7,36.5,38.9 M17.6,39.2
		c-0.5,0.3-0.9,0.5-0.7,0.5c0.1,0,0.4-0.1,0.6-0.3c0.3-0.2,0.4-0.2,0.5,0c0.1,0.1,0.2,0.2,0.3,0.1c0.1-0.1,0-0.2-0.1-0.3
		C18,39,18,39,19.3,39.3c0.3,0.1,0.8,0.3,1.1,0.5c0.4,0.2,0.6,0.3,0.4,0.2c-0.1-0.2-0.2-0.3,0-0.3c0.1,0,0.2-0.1,0.2-0.2
		s0-0.2-0.1-0.1c-0.1,0.1-0.4-0.1-0.9-0.3C19.1,38.6,18.8,38.6,17.6,39.2 M49.1,38.9c-0.6,1-0.6,1.1-0.3,0.7
		c0.3-0.4,0.6-0.9,0.5-0.9C49.3,38.7,49.2,38.8,49.1,38.9 M158.9,38.8c0,0.1,0.3,0.3,0.5,0.5c0.3,0.2,0.4,0.2,0.2,0
		c-0.1-0.1-0.4-0.4-0.5-0.5C158.9,38.6,158.8,38.6,158.9,38.8 M20,39.2c0.4,0.2,0.7,0.4,0.6,0.4c0,0-0.2,0-0.4-0.1
		c-0.1-0.1-0.6-0.3-1-0.4c-0.5-0.1-0.6-0.2-0.4-0.2C19.1,38.8,19.6,39,20,39.2 M30.9,39.3c-0.3,0.3-0.2,0.3,0.7,0.5
		c0.5,0.1,0.7,0,0.5-0.1c-0.1-0.1-0.5-0.2-0.7-0.2c-0.4,0-0.4,0-0.3-0.3c0-0.1,0.1-0.2,0.1-0.2C31.1,39,31,39.1,30.9,39.3 M40,39.3
		c-0.1,0.1-0.1,0.5-0.1,0.8c0,0.4,0,0.4,0.1-0.2C40.2,39,40.1,38.8,40,39.3 M12.1,40c0.2,0.3,0.3,0.5,0.4,0.4c0-0.1-0.1-0.4-0.3-0.6
		l-0.4-0.4L12.1,40 M23.2,39.6c0,0,0.1,0.2,0.3,0.3c0.2,0.2,0.3,0.2,0.3-0.1c0-0.1-0.1-0.3-0.3-0.3S23.2,39.5,23.2,39.6 M16.7,40
		c-0.2,0-0.3,0.1-0.3,0.2c0,0.1,0.3,0.1,0.6,0c1.1-0.3,3.4,0.2,3.4,0.8c0,0.1,0.1,0.2,0.2,0.2s0.3,0.1,0.4,0.2
		c0.1,0.1,0-0.1-0.2-0.3C19.9,40,18.4,39.6,16.7,40 M47.2,40.1c0.2,0,0.4,0,0.6,0s0-0.1-0.3-0.1S47.1,40.1,47.2,40.1 M20.7,40.5
		c0.5,0.6,0.5,0.6,0.5,0.1c0-0.2-0.1-0.3-0.1-0.2c-0.1,0.2-0.2,0.1-0.4-0.1C20.4,40.1,20.4,40.2,20.7,40.5 M45.8,40.8
		C46,41.7,46,41.7,46,41c0-0.3-0.1-0.6-0.2-0.7C45.7,40.2,45.7,40.3,45.8,40.8 M12.7,40.6c0,0.1,0.1,0.3,0.2,0.4
		c0.1,0.1,0.2,0,0.2-0.1s-0.1-0.3-0.2-0.4C12.8,40.4,12.7,40.4,12.7,40.6 M47.8,40.4c0.1,0.1,0,0.3-0.2,0.5c-0.3,0.3-0.3,0.3,0.1,0
		C48.1,40.6,48.2,40.3,47.8,40.4C47.7,40.3,47.7,40.4,47.8,40.4 M29,40.7c-0.3,0.2-0.3,0.2,0.1,0.2c0.2,0,0.3-0.1,0.3-0.2
		s0-0.2-0.1-0.2C29.3,40.5,29.1,40.6,29,40.7 M37.7,40.7c0,0.1-0.2,0.4-0.4,0.6l-0.4,0.4l0.4-0.4c0.2-0.2,0.5-0.3,0.5-0.3
		C37.9,41.1,37.9,40.9,37.7,40.7C37.8,40.5,37.7,40.4,37.7,40.7 M38.9,41.2l-0.7,0.7L38.9,41.2c0.7-0.6,0.8-0.7,0.7-0.7
		C39.6,40.5,39.3,40.8,38.9,41.2 M48.9,41.1c-0.3,0.3-1.1,1.3-1.8,2.1l-1.3,1.4l1.5-1.5c1.3-1.4,2.4-2.6,2.2-2.6
		C49.4,40.5,49.2,40.8,48.9,41.1 M36.4,41.5l-0.6,0.6L36.4,41.5c0.4-0.3,0.7-0.5,0.7-0.6C37,40.8,36.9,40.9,36.4,41.5 M8.8,41.8
		c0.2,0.3,0.5,0.6,0.6,0.7c0.2,0.1,0-0.1-0.3-0.5C8.6,41.2,8.3,41.1,8.8,41.8 M10.9,42c0.3,0.4,0.6,0.7,0.6,0.6
		c0.1-0.1-0.5-0.9-0.8-1.1C10.4,41.3,10.5,41.5,10.9,42 M12.9,41.5c0,0.1,0.1,0.4,0.3,0.7l0.3,0.4l-0.1-0.4
		C13.1,41.6,12.9,41.2,12.9,41.5 M27.3,41.7c-0.1,0.3-0.1,0.4,0,0.6c0.2,0.2,0.2,0.1,0.2-0.1c0-0.2,0.2-0.4,0.3-0.6
		c0.3-0.2,0.3-0.2,0-0.2C27.6,41.4,27.4,41.5,27.3,41.7 M46.3,42.4l-1,1L46.3,42.4c1-0.9,1.2-1,1-1C47.3,41.3,46.8,41.8,46.3,42.4
		 M44.9,42.3c-0.2,0.3-0.4,0.4-0.4,0.4s-0.2,0-0.3,0s-0.1,0.1,0.1,0.1c0.2,0,0.4-0.1,0.6-0.2C45,42.5,45.1,42.4,44.9,42.3
		c0,0.1,0.1-0.1,0.3-0.2c0.2-0.2,0.3-0.3,0.2-0.3S45.1,42,44.9,42.3 M45.7,42.4c-0.4,0.4-1.1,0.7-1.7,0.7h-0.6l0.1,0.6
		c0.1,0.8,0.3,1,0.2,0.2c-0.1-0.6-0.1-0.6,0.4-0.6C44.6,43.3,45.3,43,45.7,42.4c0.3-0.1,0.4-0.3,0.3-0.3S45.8,42.3,45.7,42.4
		 M27.5,42.7c0,0.3,0.6,1.6,0.9,1.8c0.3,0.2,0.3,0.2,0-0.1c-0.2-0.2-0.4-0.7-0.6-1.1C27.7,42.9,27.6,42.6,27.5,42.7 M9.7,42.9
		c0,0,0.2,0.3,0.5,0.5l0.5,0.5l-0.5-0.5C9.8,42.9,9.7,42.8,9.7,42.9 M21.1,43.2c0,0.2,0,0.5-0.1,0.6s-0.2,0.2-0.2,0.4
		s0.1,0.1,0.2-0.2C21.3,43.6,21.3,43.4,21.1,43.2C21,42.8,21,42.8,21.1,43.2 M30.5,43.2c0.1,0.1,0.2,0.2,0.1,0.2c-0.1,0,0.3,1,0.5,1
		c0,0,0-0.2-0.2-0.5c-0.3-0.6-0.3-0.6,0.4-0.3c0.4,0.2,0.5,0.3,0.4,0.5c-0.1,0.3-0.1,0.3,0.1,0.1c0.3-0.4,0.2-0.6-0.4-0.8
		C31.1,43.2,30.7,43.1,30.5,43.2C30.3,43,30.3,43,30.5,43.2 M12.4,43.5c0,0.2,0.8,0.9,0.9,0.8c0.1-0.1,0-0.1-0.1-0.1
		S13,44.1,13.1,44c0.1-0.1,0-0.1-0.1-0.1c-0.1,0.1-0.2,0-0.3-0.2C12.7,43.3,12.4,43.2,12.4,43.5 M40.4,44.2c0.2,0.1,0.5,0.2,0.5,0.2
		c0.1,0,0.1,0.1,0.1,0.2c0,0.1,0.1,0.3,0.2,0.3c0.1,0,0.1-0.1,0-0.3s-0.3-0.3-0.3-0.2c-0.1,0.1-0.2,0-0.2-0.1s-0.2-0.2-0.4-0.2
		C40,44,40,44,40.4,44.2 M28,44.8C28,44.9,28.1,44.9,28,44.8c0.2,0.1,0.4,0.2,0.6,0.5c0.4,0.4,0.4,0.5,0.1,0.5c-0.2,0-0.2,0,0.1,0.2
		c0.6,0.2,0.6,0.1,0-0.7C28.3,44.7,28,44.5,28,44.8 M20.6,45.5c-0.3,0.4-0.8,0.8-1.1,0.9c-0.8,0.4-0.8,0.6,0.2,0.8
		c0.7,0.1,1.6-0.7,1.4-1.2c-0.1-0.2,0-0.3,0.1-0.2s0.2,0,0.2-0.1c0-0.4-0.2-0.3-0.6,0.3c-0.3,0.6-0.9,0.9-1.5,0.9
		c-0.4,0-0.4,0,0-0.2c0.5-0.3,1.6-1.3,1.8-1.6C21.3,44.7,21.2,44.8,20.6,45.5 M22,45.1c-0.1,0.1,0,0.3,0.1,0.3
		c0.2,0.1,0.4-0.2,0.2-0.4C22.1,44.9,22,44.9,22,45.1 M28.7,44.9c0,0,0.2,0.3,0.5,0.5l0.5,0.5l-0.5-0.5
		C28.8,44.9,28.7,44.8,28.7,44.9 M41.2,45.5c-0.2,0.6-0.1,0.9,0.2,0.5c0.2-0.2,0.2-0.2,0-0.1c-0.3,0.1-0.3,0,0-0.4
		c0.1-0.2,0.1-0.4,0.1-0.4S41.3,45.2,41.2,45.5 M15.2,45.5c0,0.6,2.1,1.3,3.1,1.1c0.8-0.1,0.8-0.1-0.5-0.2c-1-0.1-1.4-0.2-2-0.6
		C15.5,45.5,15.2,45.4,15.2,45.5 M12.6,45.8c0.5,0.5,2.8,2.1,2.8,1.9c0,0-0.3-0.3-0.6-0.5c-0.3-0.2-1-0.7-1.5-1.1
		C12.7,45.8,12.4,45.6,12.6,45.8 M38,46.3c-0.2,0.6-0.2,0.7,0,0.6c0.2-0.2,0.5-1.1,0.4-1.2C38.3,45.5,38.2,45.9,38,46.3 M39.4,45.6
		c0.1,0.1,0,0.2-0.1,0.3c-0.2,0.1-0.1,0.2,0.3,0.2c0.3,0,0.6,0,0.5,0c0,0-0.2-0.2-0.5-0.3S39.3,45.5,39.4,45.6 M31.4,45.8
		c0,0.4,0.3,1.1,0.3,0.8c0-0.2-0.1-0.5-0.1-0.7C31.4,45.7,31.4,45.7,31.4,45.8 M29.7,46.1c0,0,0.2,0.3,0.5,0.5l0.5,0.5l-0.5-0.5
		C29.8,46,29.7,45.9,29.7,46.1 M20.9,46.5c-0.2,0.3-0.8,0.8-0.9,0.6c0,0,0.1-0.1,0.3-0.2c0.2-0.1,0.4-0.3,0.5-0.4
		c0.1-0.2,0.2-0.3,0.3-0.3C21,46.2,21,46.3,20.9,46.5 M22.6,46.6L22.1,47L22.6,46.6c0.6-0.3,0.7-0.3,1.3-0.1
		c0.9,0.3,1.1,0.2,0.4-0.1C23.4,46.1,23.1,46.1,22.6,46.6 M39.7,46.4c0.2,0.1,0.3,0.3,0.3,0.3c-0.1,0.1,0,0.1,0.2,0
		c0.3-0.1,0.2-0.3-0.4-0.5l-0.4-0.1L39.7,46.4 M25.2,46.8c0.3,0.1,0.4,0.2,0.3,0.4c-0.1,0.2-0.1,0.2,0.1,0.1
		C25.8,47,25.6,46.7,25.2,46.8C24.8,46.7,24.8,46.7,25.2,46.8 M42.2,47.1c-0.8,0.5-1,0.7-0.4,0.4c0.5-0.3,1.2-0.8,1.1-0.8
		C42.8,46.7,42.5,46.8,42.2,47.1 M17,46.9c0,0,0.2,0.2,0.4,0.3c0.2,0.1,0.3,0.1,0.2,0c-0.3-0.4,0.9-0.2,1.3,0.3l0.4,0.4l-0.4-0.1
		c-0.3-0.1-0.4-0.1-0.1,0.1C19,48,19.2,48,19.3,48s0.2,0,0.2,0.1s0.1,0.2,0.2,0.2s-0.1-0.3-0.5-0.7C18.5,46.9,17,46.5,17,46.9
		 M22.2,47.7c0,0.3,0,0.5,0.1,0.3c0-0.2,0-0.4,0-0.6S22.2,47.3,22.2,47.7 M37.9,47.4c-0.1,0.1-0.2,0.3-0.1,0.4
		c0.1,0.1,0.1,0,0.1-0.1s0.1-0.2,0.2-0.1c0.1,0.1,0.3,0,0.5-0.1c0.2-0.2,0.2-0.2-0.1-0.1c-0.3,0.1-0.4,0-0.3-0.1
		C38.3,47.1,38.1,47.1,37.9,47.4 M19.4,47.4c0,0,0.2,0.3,0.5,0.5l0.5,0.5l-0.5-0.5C19.5,47.4,19.4,47.3,19.4,47.4 M21.8,47.7
		c-0.1,0.1,0,0.3,0.1,0.5c0.1,0.3,0.2,0.2,0.2-0.2C22,47.5,22,47.4,21.8,47.7 M21,48.1c-0.1,0.1-0.1,0.3,0,0.3
		c0.1,0.1,0.2,0,0.3-0.1c0.1-0.1,0.2-0.1,0.3-0.1c0.1,0.1,0.1,0,0-0.2C21.3,47.8,21.3,47.8,21,48.1 M31,48c0.5,0.3,0.9,0.3,0.6,0.1
		c-0.1-0.1-0.4-0.2-0.6-0.2C30.6,47.8,30.6,47.8,31,48 M32.4,48.1c0.1,0.2,0.3,0.4,0.4,0.6c0.1,0.2,0.1,0.2,0.1,0
		C32.9,48.6,32.7,48.3,32.4,48.1C32.1,47.8,32.1,47.8,32.4,48.1 M31.7,48.8c0.5,0.4,0.5,0.6,0,0.7c-0.3,0.1-0.3,0.1-0.1,0.1
		c0.9,0,0.8-1,0-1.1C31.3,48.5,31.4,48.6,31.7,48.8 M33,48.7c0,0.2-0.1,0.4-0.3,0.5c-0.1,0.1-0.2,0.3-0.1,0.3
		C32.9,49.5,33.2,48.9,33,48.7C33.1,48.5,33.1,48.5,33,48.7 M27.1,49.5c0.1,0.1-0.2,0.2-0.6,0.2c-0.5,0.1-0.5,0.1,0.4,0.1
		c0.6,0,1,0,1,0C27.6,49.6,27,49.3,27.1,49.5 M29,49.7c-0.1,0.1,0.3,0.1,0.9,0.1c1.1,0,1.1-0.1,0-0.2C29.5,49.6,29.1,49.6,29,49.7
		 M21,50.3c0.2,0.1,0.4,0.1,0.6,0.1s0.1-0.1-0.1-0.1c-0.2-0.1-0.4-0.1-0.6-0.1C20.7,50.2,20.7,50.2,21,50.3 M34.8,50.3
		C34.6,50.4,34.6,50.4,34.8,50.3c0,0.1,0.3,0,0.5,0c0.2-0.1,0.2-0.1,0.1-0.1C35.2,50.2,35,50.3,34.8,50.3 M22.6,50.8
		c0.5,0.1,1,0.2,1.3,0.2s0-0.1-0.6-0.2C22,50.5,21.5,50.5,22.6,50.8 M32.1,50.9c-0.6,0.1-0.8,0.2-0.5,0.2s0.9-0.1,1.3-0.2
		C34,50.6,33.4,50.6,32.1,50.9 M24.7,51.1c0.2,0,0.5,0,0.8,0c0.2,0,0-0.1-0.4-0.1C24.6,51,24.5,51.1,24.7,51.1 M26.4,51.3
		c0.3,0,0.9,0,1.3,0c0.3,0,0.1-0.1-0.6-0.1C26.3,51.2,26.1,51.3,26.4,51.3 M29.5,51.3c0.3,0,0.8,0,1.1,0s0.1-0.1-0.5-0.1
		S29.2,51.3,29.5,51.3"/>
</g>
</svg>
